<svg width="420" height="108" viewBox="0 0 420 108" fill="none" xmlns="http://www.w3.org/2000/svg">
<path fill-rule="evenodd" clip-rule="evenodd" d="M0 76.8422V73.128H1.64593C2.74322 73.128 3.70987 72.9904 4.5459 72.7153C5.43418 72.4402 6.13958 71.89 6.6621 71.0646C7.18462 70.2392 7.44587 69.0011 7.44587 67.3504V27.4024C7.44587 25.6966 7.18462 24.4585 6.6621 23.6882C6.13958 22.8628 5.43418 22.3125 4.5459 22.0375C3.70987 21.7624 2.74322 21.6248 1.64593 21.6248H0V17.9106H23.9836V21.6248H22.3376C21.2926 21.6248 20.3259 21.7624 19.4377 22.0375C18.6016 22.2576 17.9224 22.7528 17.3998 23.5231C16.8773 24.2934 16.6161 25.4765 16.6161 27.0722V72.4677H31.8213C33.2844 72.4677 34.4862 72.1376 35.4267 71.4773C36.3672 70.7619 37.0726 69.854 37.5429 68.7535C38.0131 67.598 38.3527 66.3874 38.5618 65.1219L39.5023 58.9316H43.6563L43.1077 76.8422H0ZM46.857 76.8422V73.128H48.1894C49.2344 73.128 50.0704 72.9629 50.6975 72.6328C51.3768 72.3026 51.9776 71.6974 52.5001 70.817C53.0749 69.8816 53.6497 68.5334 54.2245 66.7726L71.5459 17.9106H78.9134L96.2349 68.3409C96.7051 69.6064 97.1754 70.5968 97.6457 71.3122C98.1682 71.9725 98.769 72.4402 99.4484 72.7153C100.18 72.9904 101.016 73.128 101.956 73.128H103.054V76.8422H80.3242V73.128H82.4404C83.7989 73.128 84.8701 72.8253 85.6539 72.2201C86.4377 71.6149 86.8296 70.6519 86.8296 69.3313C86.8296 69.0011 86.8035 68.671 86.7512 68.3409C86.6989 68.0107 86.6205 67.6531 86.516 67.2679C86.4116 66.8827 86.307 66.525 86.2025 66.1949L83.1458 57.1983H62.9244L60.1812 65.452C60.0244 65.8922 59.8937 66.36 59.7893 66.8552L59.4758 68.1758C59.4235 68.561 59.3974 68.9461 59.3974 69.3313C59.3974 70.5968 59.8154 71.5598 60.6514 72.2201C61.4875 72.8253 62.6369 73.128 64.1 73.128H66.373V76.8422H46.857ZM64.4919 52.8238H81.6566L77.0323 38.6274C76.5621 37.0867 76.0657 35.5736 75.5432 34.0879C75.0729 32.6022 74.6549 31.1716 74.2891 29.796C73.9233 28.3654 73.5837 26.9897 73.2702 25.6691C73.0612 26.6595 72.826 27.65 72.5648 28.6404C72.3036 29.5758 72.0162 30.5388 71.7027 31.5292C71.4414 32.5197 71.1279 33.5652 70.7621 34.6657C70.4486 35.7112 70.0567 36.8116 69.5865 37.9671L64.4919 52.8238ZM71.2324 12.133C72.0162 11.0875 72.826 9.84944 73.6621 8.4188C74.5503 6.98815 75.4125 5.53 76.2486 4.04433C77.0846 2.55866 77.7638 1.21054 78.2864 0H87.7701V0.825376C87.2998 1.54069 86.5683 2.4486 85.5755 3.54911C84.5827 4.6496 83.4593 5.80512 82.2053 7.01567C80.9512 8.22621 79.6711 9.38173 78.3648 10.4822C77.1107 11.5277 75.9351 12.4357 74.8378 13.206H71.2324V12.133ZM173.9 76.8422V73.128H175.546C176.644 73.128 177.61 72.9904 178.446 72.7153C179.334 72.4402 180.04 71.89 180.562 71.0646C181.085 70.2392 181.346 69.0011 181.346 67.3504V27.0722C181.346 25.4765 181.058 24.2934 180.484 23.5231C179.961 22.7528 179.256 22.2576 178.368 22.0375C177.531 21.7624 176.591 21.6248 175.546 21.6248H173.9V17.9106H198.433C203.919 17.9106 208.596 19.0386 212.462 21.2946C216.381 23.4957 219.385 26.7695 221.476 31.1166C223.566 35.4636 224.611 40.7734 224.611 47.0462C224.611 53.044 223.617 58.2713 221.632 62.7283C219.699 67.1853 216.799 70.6519 212.932 73.128C209.066 75.6041 204.232 76.8422 198.433 76.8422H173.9ZM196.63 72.3852C200.653 72.3852 203.972 71.3947 206.584 69.4138C209.249 67.4329 211.261 64.5716 212.619 60.83C213.977 57.0332 214.657 52.4386 214.657 47.0462C214.657 41.6538 213.977 37.1418 212.619 33.5101C211.261 29.8234 209.249 27.0448 206.584 25.1739C203.972 23.248 200.68 22.2851 196.708 22.2851H190.438V72.3852H196.63ZM231.765 76.8422V73.128H233.411C234.456 73.128 235.396 73.018 236.233 72.7979C237.12 72.5228 237.826 72 238.349 71.2297C238.923 70.4593 239.211 69.3038 239.211 67.7631V27.4024C239.211 25.6966 238.95 24.4585 238.427 23.6882C237.904 22.8628 237.199 22.3125 236.311 22.0375C235.475 21.7624 234.508 21.6248 233.411 21.6248H231.765V17.9106H272.365L272.757 32.5197H268.289L267.897 28.888C267.793 27.6775 267.505 26.577 267.035 25.5866C266.565 24.5961 265.885 23.7982 264.997 23.193C264.109 22.5877 262.959 22.2851 261.549 22.2851H248.381V43.9098H267.192V48.2018H248.381V72.4677H263.665C265.128 72.4677 266.33 72.165 267.27 71.5598C268.211 70.9546 268.916 70.1567 269.386 69.1662C269.909 68.1758 270.249 67.0753 270.405 65.8647L270.954 62.2331H275.421L274.873 76.8422H231.765ZM281.21 76.8422V73.128H282.856C283.901 73.128 284.841 73.018 285.678 72.7979C286.566 72.5228 287.271 72 287.794 71.2297C288.368 70.4593 288.656 69.3038 288.656 67.7631V27.0722C288.656 25.4765 288.368 24.2934 287.794 23.5231C287.271 22.7528 286.566 22.2576 285.678 22.0375C284.841 21.7624 283.901 21.6248 282.856 21.6248H281.21V17.9106H303.47C308.12 17.9106 311.96 18.5158 314.991 19.7264C318.022 20.8819 320.268 22.6152 321.732 24.9263C323.246 27.2373 324.005 30.1536 324.005 33.6752C324.005 36.5915 323.43 39.0676 322.28 41.1036C321.183 43.0844 319.772 44.7077 318.048 45.9733C316.324 47.1838 314.547 48.1467 312.718 48.8621L323.064 66.4425C323.744 67.598 324.396 68.5885 325.023 69.4138C325.65 70.2392 326.277 70.927 326.905 71.4773C327.532 72.0276 328.184 72.4402 328.864 72.7153C329.595 72.9904 330.353 73.128 331.137 73.128H331.45V76.8422H329.883C327.479 76.8422 325.441 76.7596 323.769 76.5946C322.149 76.3744 320.791 76.0168 319.694 75.5216C318.596 74.9713 317.603 74.201 316.715 73.2105C315.879 72.2201 315.017 70.9546 314.129 69.4138L303.94 50.9255H297.748V67.7631C297.748 69.3038 298.009 70.4593 298.532 71.2297C299.106 72 299.812 72.5228 300.648 72.7979C301.536 73.018 302.503 73.128 303.548 73.128H305.194V76.8422H281.21ZM302.921 46.7986C305.847 46.7986 308.12 46.3309 309.74 45.3955C311.36 44.4601 312.509 43.057 313.188 41.1861C313.92 39.3152 314.286 36.9767 314.286 34.1704C314.286 31.2542 313.894 28.9155 313.11 27.1548C312.379 25.394 311.176 24.1284 309.505 23.358C307.833 22.5327 305.612 22.12 302.843 22.12H297.748V46.7986H302.921ZM333.717 76.8422V73.128H335.363C336.408 73.128 337.348 73.018 338.185 72.7979C339.073 72.5228 339.778 72 340.301 71.2297C340.875 70.4593 341.163 69.3038 341.163 67.7631V27.4024C341.163 25.6966 340.902 24.4585 340.379 23.6882C339.856 22.8628 339.151 22.3125 338.263 22.0375C337.427 21.7624 336.46 21.6248 335.363 21.6248H333.717V17.9106H374.317L374.709 32.5197H370.241L369.849 28.888C369.745 27.6775 369.457 26.577 368.987 25.5866C368.517 24.5961 367.837 23.7982 366.949 23.193C366.061 22.5877 364.912 22.2851 363.501 22.2851H350.333V43.9098H369.144V48.2018H350.333V72.4677H365.617C367.08 72.4677 368.282 72.165 369.222 71.5598C370.163 70.9546 370.868 70.1567 371.338 69.1662C371.861 68.1758 372.201 67.0753 372.357 65.8647L372.906 62.2331H377.374L376.825 76.8422H333.717ZM400.17 77.6676C397.349 77.6676 394.893 77.3925 392.803 76.8422C390.765 76.237 389.067 75.4116 387.708 74.3661C386.35 73.2656 385.357 72 384.73 70.5694C384.103 69.1388 383.79 67.6255 383.79 66.0298C383.79 64.7092 384.05 63.6088 384.573 62.7283C385.148 61.7929 385.931 61.105 386.925 60.6649C387.918 60.1697 389.041 59.9221 390.295 59.9221C390.399 62.4532 390.844 64.7367 391.627 66.7726C392.411 68.8086 393.561 70.4317 395.076 71.6423C396.643 72.7979 398.603 73.3756 400.954 73.3756C404.35 73.3756 406.989 72.4952 408.87 70.7344C410.804 68.9737 411.77 66.525 411.77 63.3886C411.77 61.4077 411.353 59.7295 410.516 58.3538C409.68 56.9232 408.374 55.6301 406.597 54.4746C404.82 53.264 402.391 51.9985 399.308 50.6779C396.853 49.6324 394.684 48.5044 392.803 47.2939C390.975 46.0283 389.458 44.6801 388.257 43.2495C387.107 41.8189 386.245 40.2231 385.671 38.4624C385.148 36.6465 384.887 34.6657 384.887 32.5197C384.887 29.2733 385.645 26.5219 387.16 24.266C388.675 21.9549 390.765 20.1942 393.43 18.9836C396.147 17.718 399.204 17.0852 402.6 17.0852C405.945 17.0852 408.739 17.5254 410.987 18.4058C413.234 19.2863 414.931 20.4418 416.081 21.8724C417.231 23.248 417.805 24.7612 417.805 26.4119C417.805 28.2277 417.178 29.6583 415.924 30.7039C414.67 31.6943 412.92 32.1895 410.673 32.1895C410.673 30.5388 410.385 28.888 409.811 27.2373C409.288 25.5866 408.4 24.2109 407.146 23.1104C405.892 22.01 404.168 21.4597 401.973 21.4597C400.145 21.4597 398.55 21.8173 397.192 22.5327C395.834 23.248 394.788 24.266 394.057 25.5866C393.326 26.9072 392.96 28.5028 392.96 30.3737C392.96 32.4097 393.326 34.1704 394.057 35.6561C394.788 37.0867 396.042 38.4073 397.819 39.6179C399.648 40.8285 402.13 42.1215 405.265 43.4971C408.504 44.8728 411.222 46.3585 413.416 47.9541C415.611 49.5498 417.257 51.3656 418.354 53.4016C419.451 55.4376 420 57.8586 420 60.6649C420 64.1865 419.19 67.2128 417.57 69.744C415.95 72.2752 413.651 74.2285 410.673 75.6041C407.695 76.9798 404.193 77.6676 400.17 77.6676ZM162.879 63.5331C165.034 59.4062 166.112 54.7979 166.112 49.7081V2.04281H151.318V47.0256C151.318 50.8085 150.828 53.9381 149.848 56.4142C148.933 58.8903 147.464 60.713 145.439 61.8823C143.415 63.0516 140.77 63.6362 137.504 63.6362C132.866 63.6362 129.372 62.3982 127.021 59.9221C124.669 57.4459 123.494 53.1815 123.494 47.1288V2.04281L118.497 2.0428V66.525C115.817 64.6581 114.191 61.5123 114.157 58.1284L113.599 2.04281H108.7V49.5017C108.7 57.6867 111.117 64.2897 115.95 69.3107C120.783 74.2629 127.838 76.739 137.112 76.739C143.643 76.739 149.031 75.5697 153.277 73.2312C157.588 70.8238 160.788 67.5912 162.879 63.5331ZM81.8259 98.4711L20.6007 97.4765L20.5629 100.056L81.7882 101.05L81.8259 98.4711ZM349.971 99.2633H411.203V101.843H349.971V99.2633ZM94.7488 106.927V107.794H99.667V106.927H99.4122C99.1248 106.927 98.857 106.893 98.6089 106.824C98.3606 106.755 98.1647 106.617 98.021 106.411C97.8772 106.191 97.8055 105.868 97.8055 105.441V95.9083L105.153 107.794H106.545V95.4131C106.545 94.9729 106.616 94.6496 106.76 94.4433C106.904 94.2369 107.1 94.0993 107.348 94.0306C107.596 93.9618 107.864 93.9274 108.151 93.9274H108.406V93.0607H103.488V93.9274H103.743C104.03 93.9274 104.291 93.9618 104.526 94.0306C104.774 94.0856 104.97 94.2163 105.114 94.4226C105.271 94.6152 105.349 94.9178 105.349 95.3305V104.472L98.3345 93.0607H94.7488V93.9274H95.0035C95.2908 93.9274 95.5521 93.9618 95.7873 94.0306C96.0354 94.0856 96.2313 94.2163 96.3751 94.4226C96.5318 94.6152 96.6102 94.9178 96.6102 95.3305V105.441C96.6102 105.868 96.5383 106.191 96.3947 106.411C96.2509 106.617 96.055 106.755 95.8069 106.824C95.5717 106.893 95.3039 106.927 95.0035 106.927H94.7488ZM109.693 106.927V107.794H120.196L120.333 104.183H119.314L119.177 105.07C119.138 105.373 119.046 105.655 118.903 105.916C118.772 106.164 118.576 106.37 118.315 106.535C118.067 106.686 117.733 106.762 117.316 106.762H113.534V100.592H118.256V99.5812H113.534V94.0925H116.826C117.218 94.0925 117.531 94.175 117.766 94.3401C118.014 94.4914 118.197 94.6977 118.315 94.9591C118.445 95.2067 118.524 95.4818 118.55 95.7845L118.648 96.6718H119.667L119.569 93.0607H109.693V93.9274H109.948C110.248 93.9274 110.516 93.9618 110.751 94.0306C111 94.0993 111.196 94.2369 111.339 94.4433C111.483 94.6496 111.555 94.9729 111.555 95.4131V105.545C111.555 105.943 111.476 106.246 111.32 106.452C111.176 106.645 110.98 106.776 110.732 106.844C110.497 106.9 110.235 106.927 109.948 106.927H109.693ZM125.233 107.051C126.238 107.684 127.5 108 129.014 108C129.863 108 130.635 107.924 131.327 107.773C132.019 107.608 132.692 107.367 133.345 107.051V103.337C133.345 102.896 133.404 102.573 133.521 102.367C133.652 102.16 133.815 102.023 134.011 101.954C134.22 101.885 134.448 101.851 134.697 101.851H134.775V100.984H129.681V101.851H129.759C130.047 101.851 130.308 101.885 130.543 101.954C130.791 102.009 130.987 102.14 131.131 102.346C131.287 102.539 131.366 102.841 131.366 103.254V106.576C131.091 106.659 130.778 106.721 130.425 106.762C130.073 106.803 129.706 106.824 129.328 106.824C128.139 106.824 127.186 106.576 126.467 106.081C125.762 105.586 125.246 104.864 124.919 103.914C124.606 102.951 124.449 101.782 124.449 100.407C124.449 99.0309 124.6 97.8617 124.9 96.8987C125.213 95.9358 125.703 95.2067 126.369 94.7115C127.049 94.2025 127.943 93.948 129.054 93.948C129.694 93.948 130.204 94.0856 130.582 94.3607C130.96 94.6221 131.229 94.9591 131.385 95.3718C131.556 95.7707 131.64 96.1834 131.64 96.6099C132.15 96.6099 132.581 96.4792 132.933 96.2178C133.286 95.9564 133.462 95.6056 133.462 95.1655C133.462 94.7253 133.3 94.3332 132.973 93.9893C132.659 93.6317 132.183 93.3565 131.542 93.1639C130.902 92.9576 130.098 92.8544 129.132 92.8544C127.629 92.8544 126.369 93.1777 125.35 93.8242C124.331 94.4571 123.561 95.3443 123.038 96.4861C122.529 97.6141 122.274 98.9209 122.274 100.407C122.274 101.934 122.515 103.268 122.999 104.41C123.495 105.538 124.24 106.418 125.233 107.051ZM138.966 107.051C139.88 107.684 141.03 108 142.415 108C143.734 108 144.85 107.684 145.765 107.051C146.679 106.418 147.372 105.538 147.842 104.41C148.325 103.268 148.567 101.934 148.567 100.407C148.567 98.8796 148.325 97.5522 147.842 96.4241C147.372 95.2824 146.679 94.402 145.765 93.783C144.864 93.1501 143.753 92.8338 142.434 92.8338C141.049 92.8338 139.893 93.1501 138.966 93.783C138.051 94.402 137.365 95.2755 136.909 96.4035C136.464 97.5316 136.242 98.859 136.242 100.386C136.242 101.913 136.464 103.247 136.909 104.389C137.365 105.531 138.051 106.418 138.966 107.051ZM144.256 106.452C143.759 106.741 143.146 106.886 142.415 106.886C141.696 106.886 141.082 106.741 140.573 106.452C140.063 106.164 139.644 105.744 139.319 105.194C139.005 104.63 138.776 103.949 138.633 103.151C138.488 102.339 138.417 101.424 138.417 100.407C138.417 99.3887 138.488 98.4807 138.633 97.6828C138.776 96.8849 139.005 96.211 139.319 95.6607C139.644 95.0967 140.063 94.6702 140.573 94.3813C141.082 94.0925 141.702 93.948 142.434 93.948C143.165 93.948 143.779 94.0925 144.276 94.3813C144.786 94.6702 145.19 95.0967 145.491 95.6607C145.804 96.211 146.032 96.8849 146.177 97.6828C146.32 98.4807 146.392 99.3887 146.392 100.407C146.392 101.424 146.32 102.339 146.177 103.151C146.032 103.949 145.804 104.63 145.491 105.194C145.177 105.744 144.766 106.164 144.256 106.452ZM141.964 90.6878C141.755 91.0454 141.552 91.3549 141.356 91.6164V91.8846H142.101C142.362 91.6921 142.642 91.4651 142.944 91.2037C143.244 90.9286 143.538 90.6397 143.825 90.337C144.125 90.0343 144.394 89.7455 144.629 89.4704C144.864 89.1953 145.04 88.9683 145.158 88.7895V88.5831H143.061C142.93 88.8858 142.767 89.2228 142.571 89.5942C142.375 89.9656 142.172 90.3302 141.964 90.6878ZM153.489 107.051C154.377 107.684 155.468 108 156.761 108C157.492 108 158.12 107.931 158.642 107.794C159.178 107.642 159.615 107.457 159.955 107.237C160.294 107.003 160.549 106.755 160.719 106.494C160.888 106.219 160.974 105.95 160.974 105.689C160.974 105.483 160.935 105.318 160.857 105.194C160.79 105.056 160.706 104.953 160.602 104.884C160.379 105.187 160.112 105.476 159.799 105.751C159.497 106.012 159.125 106.225 158.682 106.391C158.237 106.556 157.695 106.638 157.055 106.638C156.101 106.638 155.324 106.377 154.724 105.854C154.122 105.331 153.678 104.602 153.391 103.667C153.117 102.718 152.98 101.631 152.98 100.407C152.98 99.0309 153.109 97.8617 153.372 96.8987C153.646 95.9358 154.083 95.2067 154.684 94.7115C155.284 94.2025 156.076 93.948 157.055 93.948C157.63 93.948 158.08 94.0856 158.407 94.3607C158.747 94.6221 158.988 94.9591 159.132 95.3718C159.276 95.7707 159.348 96.1834 159.348 96.6099C159.83 96.6099 160.236 96.4792 160.563 96.2178C160.888 95.9564 161.053 95.6056 161.053 95.1655C161.053 94.7253 160.908 94.3332 160.621 93.9893C160.334 93.6317 159.896 93.3565 159.309 93.1639C158.721 92.9576 157.982 92.8544 157.094 92.8544C155.723 92.8544 154.567 93.1777 153.626 93.8242C152.698 94.4571 151.993 95.3443 151.51 96.4861C151.04 97.6141 150.805 98.9209 150.805 100.407C150.805 101.934 151.026 103.268 151.471 104.41C151.928 105.538 152.6 106.418 153.489 107.051ZM162.468 106.927V107.794H168.17V106.927H167.915C167.628 106.927 167.361 106.893 167.112 106.824C166.864 106.755 166.668 106.617 166.524 106.411C166.381 106.191 166.309 105.868 166.309 105.441V95.4131C166.309 94.9729 166.381 94.6496 166.524 94.4433C166.668 94.2369 166.864 94.0993 167.112 94.0306C167.361 93.9618 167.628 93.9274 167.915 93.9274H168.17V93.0607H162.468V93.9274H162.723C163.023 93.9274 163.291 93.9618 163.526 94.0306C163.775 94.0993 163.971 94.2369 164.114 94.4433C164.257 94.6496 164.33 94.9729 164.33 95.4131V105.441C164.33 105.868 164.257 106.191 164.114 106.411C163.971 106.617 163.775 106.755 163.526 106.824C163.291 106.893 163.023 106.927 162.723 106.927H162.468ZM172.739 107.051C173.654 107.684 174.803 108 176.188 108C177.507 108 178.624 107.684 179.539 107.051C180.453 106.418 181.145 105.538 181.616 104.41C182.099 103.268 182.341 101.934 182.341 100.407C182.341 98.8796 182.099 97.5522 181.616 96.4241C181.145 95.2824 180.453 94.402 179.539 93.783C178.637 93.1501 177.527 92.8338 176.208 92.8338C174.823 92.8338 173.666 93.1501 172.739 93.783C171.825 94.402 171.139 95.2755 170.682 96.4035C170.237 97.5316 170.016 98.859 170.016 100.386C170.016 101.913 170.237 103.247 170.682 104.389C171.139 105.531 171.825 106.418 172.739 107.051ZM178.03 106.452C177.534 106.741 176.919 106.886 176.188 106.886C175.469 106.886 174.856 106.741 174.346 106.452C173.837 106.164 173.419 105.744 173.092 105.194C172.779 104.63 172.55 103.949 172.406 103.151C172.263 102.339 172.191 101.424 172.191 100.407C172.191 99.3887 172.263 98.4807 172.406 97.6828C172.55 96.8849 172.779 96.211 173.092 95.6607C173.419 95.0967 173.837 94.6702 174.346 94.3813C174.856 94.0925 175.476 93.948 176.208 93.948C176.939 93.948 177.553 94.0925 178.049 94.3813C178.559 94.6702 178.964 95.0967 179.264 95.6607C179.578 96.211 179.807 96.8849 179.95 97.6828C180.093 98.4807 180.166 99.3887 180.166 100.407C180.166 101.424 180.093 102.339 179.95 103.151C179.807 103.949 179.578 104.63 179.264 105.194C178.951 105.744 178.539 106.164 178.03 106.452ZM186.596 107.794C187.092 107.931 187.661 108 188.301 108C189.281 108 190.129 107.835 190.848 107.505C191.579 107.175 192.142 106.707 192.533 106.102C192.925 105.483 193.121 104.733 193.121 103.853C193.121 103.137 192.978 102.525 192.69 102.016C192.402 101.507 191.985 101.06 191.436 100.675C190.901 100.276 190.247 99.9114 189.477 99.5812C188.719 99.2511 188.119 98.9415 187.674 98.6527C187.229 98.35 186.91 98.013 186.714 97.6416C186.531 97.2564 186.44 96.7887 186.44 96.2384C186.44 95.757 186.531 95.3443 186.714 95.0004C186.91 94.6428 187.184 94.3676 187.537 94.175C187.903 93.9825 188.334 93.8861 188.83 93.8861C189.379 93.8861 189.81 94.0168 190.123 94.2782C190.45 94.5396 190.678 94.8697 190.809 95.2686C190.952 95.6675 191.025 96.0802 191.025 96.5067C191.495 96.5067 191.867 96.3967 192.142 96.1765C192.429 95.9427 192.573 95.6056 192.573 95.1655C192.573 94.7666 192.429 94.3952 192.142 94.0512C191.854 93.6936 191.436 93.4047 190.887 93.1846C190.352 92.9644 189.692 92.8544 188.908 92.8544C188.085 92.8544 187.347 93.0057 186.694 93.3084C186.054 93.5972 185.544 94.0237 185.166 94.5877C184.8 95.138 184.617 95.8051 184.617 96.5892C184.617 97.1532 184.69 97.6622 184.833 98.1162C184.99 98.5701 185.211 98.976 185.499 99.3336C185.799 99.6912 186.179 100.021 186.635 100.324C187.092 100.627 187.621 100.909 188.223 101.17C188.993 101.5 189.594 101.817 190.025 102.119C190.47 102.422 190.783 102.752 190.966 103.11C191.162 103.454 191.26 103.88 191.26 104.389C191.26 105.228 191.011 105.875 190.515 106.329C190.019 106.769 189.333 106.989 188.458 106.989C187.844 106.989 187.347 106.838 186.969 106.535C186.59 106.219 186.309 105.813 186.126 105.318C185.944 104.809 185.838 104.272 185.813 103.708C185.512 103.708 185.258 103.77 185.048 103.894C184.839 104.004 184.676 104.162 184.558 104.368C184.454 104.575 184.402 104.815 184.402 105.091C184.402 105.517 184.48 105.909 184.637 106.267C184.807 106.624 185.054 106.934 185.381 107.195C185.708 107.457 186.113 107.656 186.596 107.794ZM199.954 106.927V107.794H205.656V106.927H205.401C205.114 106.927 204.846 106.893 204.597 106.824C204.35 106.755 204.154 106.617 204.01 106.411C203.866 106.191 203.794 105.868 203.794 105.441V95.4131C203.794 94.9729 203.866 94.6496 204.01 94.4433C204.154 94.2369 204.35 94.0993 204.597 94.0306C204.846 93.9618 205.114 93.9274 205.401 93.9274H205.656V93.0607H199.954V93.9274H200.208C200.51 93.9274 200.777 93.9618 201.012 94.0306C201.26 94.0993 201.456 94.2369 201.599 94.4433C201.744 94.6496 201.815 94.9729 201.815 95.4131V105.441C201.815 105.868 201.744 106.191 201.599 106.411C201.456 106.617 201.26 106.755 201.012 106.824C200.777 106.893 200.51 106.927 200.208 106.927H199.954ZM207.148 106.927V107.794H211.675V106.927H211.616C211.329 106.927 211.075 106.893 210.852 106.824C210.644 106.755 210.479 106.617 210.362 106.411C210.258 106.191 210.205 105.868 210.205 105.441V94.6496L214.751 107.794H215.809L220.296 94.6083V105.627C220.284 105.998 220.218 106.281 220.1 106.473C219.983 106.652 219.82 106.776 219.61 106.844C219.414 106.9 219.173 106.927 218.885 106.927H218.827V107.794H224.039V106.927H223.784C223.497 106.927 223.229 106.893 222.981 106.824C222.733 106.755 222.537 106.617 222.393 106.411C222.25 106.191 222.177 105.868 222.177 105.441V95.4131C222.177 94.9729 222.25 94.6496 222.393 94.4433C222.537 94.2369 222.733 94.0993 222.981 94.0306C223.229 93.9618 223.497 93.9274 223.784 93.9274H224.039V93.0607H219.689L215.672 104.864L211.616 93.0607H207.148V93.9274H207.403C207.691 93.9274 207.952 93.9618 208.187 94.0306C208.435 94.0856 208.631 94.2163 208.775 94.4226C208.931 94.6152 209.01 94.9178 209.01 95.3305V105.545C209.01 105.943 208.931 106.246 208.775 106.452C208.631 106.645 208.435 106.776 208.187 106.844C207.952 106.9 207.691 106.927 207.403 106.927H207.148ZM228.614 107.051C229.529 107.684 230.678 108 232.063 108C233.382 108 234.498 107.684 235.413 107.051C236.328 106.418 237.02 105.538 237.49 104.41C237.974 103.268 238.215 101.934 238.215 100.407C238.215 98.8796 237.974 97.5522 237.49 96.4241C237.02 95.2824 236.328 94.402 235.413 93.783C234.512 93.1501 233.401 92.8338 232.082 92.8338C230.697 92.8338 229.541 93.1501 228.614 93.783C227.699 94.402 227.013 95.2755 226.557 96.4035C226.112 97.5316 225.89 98.859 225.89 100.386C225.89 101.913 226.112 103.247 226.557 104.389C227.013 105.531 227.699 106.418 228.614 107.051ZM233.905 106.452C233.409 106.741 232.794 106.886 232.063 106.886C231.344 106.886 230.73 106.741 230.221 106.452C229.711 106.164 229.294 105.744 228.967 105.194C228.653 104.63 228.424 103.949 228.281 103.151C228.138 102.339 228.065 101.424 228.065 100.407C228.065 99.3887 228.138 98.4807 228.281 97.6828C228.424 96.8849 228.653 96.211 228.967 95.6607C229.294 95.0967 229.711 94.6702 230.221 94.3813C230.73 94.0925 231.351 93.948 232.082 93.948C232.813 93.948 233.428 94.0925 233.924 94.3813C234.434 94.6702 234.839 95.0967 235.139 95.6607C235.452 96.211 235.682 96.8849 235.825 97.6828C235.968 98.4807 236.04 99.3887 236.04 100.407C236.04 101.424 235.968 102.339 235.825 103.151C235.682 103.949 235.452 104.63 235.139 105.194C234.825 105.744 234.414 106.164 233.905 106.452ZM240.08 106.927V107.794H245.92C247.618 107.794 248.878 107.464 249.701 106.803C250.538 106.143 250.955 105.146 250.955 103.811C250.955 103.082 250.824 102.463 250.563 101.954C250.315 101.431 249.962 101.019 249.505 100.716C249.061 100.4 248.539 100.186 247.938 100.076V99.9939C248.408 99.8288 248.826 99.6156 249.192 99.3542C249.558 99.0791 249.845 98.7284 250.054 98.3019C250.263 97.8754 250.368 97.3595 250.368 96.7543C250.368 95.4888 249.95 94.5602 249.113 93.9687C248.291 93.3634 247.03 93.0607 245.332 93.0607H240.08V93.9274H240.335C240.623 93.9274 240.884 93.9618 241.119 94.0306C241.368 94.0856 241.564 94.2163 241.707 94.4226C241.864 94.6152 241.942 94.9178 241.942 95.3305V105.441C241.942 105.868 241.87 106.191 241.726 106.411C241.583 106.617 241.387 106.755 241.139 106.824C240.903 106.893 240.635 106.927 240.335 106.927H240.08ZM248.173 106.081C247.716 106.535 246.932 106.762 245.822 106.762H243.921V100.592H245.861C246.631 100.592 247.232 100.709 247.663 100.943C248.095 101.163 248.402 101.507 248.584 101.975C248.767 102.443 248.859 103.034 248.859 103.749C248.859 104.85 248.63 105.627 248.173 106.081ZM247.076 99.2717C246.645 99.4642 246.043 99.5606 245.273 99.5606H243.921V94.0925H245.234C246.345 94.0925 247.128 94.285 247.585 94.6702C248.042 95.0416 248.271 95.7364 248.271 96.7543C248.271 97.4146 248.179 97.9511 247.997 98.3638C247.814 98.7765 247.507 99.0791 247.076 99.2717ZM252.901 106.927V107.794H258.603V106.927H258.349C258.061 106.927 257.793 106.893 257.545 106.824C257.297 106.755 257.101 106.617 256.957 106.411C256.813 106.191 256.742 105.868 256.742 105.441V95.4131C256.742 94.9729 256.813 94.6496 256.957 94.4433C257.101 94.2369 257.297 94.0993 257.545 94.0306C257.793 93.9618 258.061 93.9274 258.349 93.9274H258.603V93.0607H252.901V93.9274H253.156C253.456 93.9274 253.724 93.9618 253.959 94.0306C254.207 94.0993 254.403 94.2369 254.547 94.4433C254.691 94.6496 254.763 94.9729 254.763 95.4131V105.441C254.763 105.868 254.691 106.191 254.547 106.411C254.403 106.617 254.207 106.755 253.959 106.824C253.724 106.893 253.456 106.927 253.156 106.927H252.901ZM260.096 106.927V107.794H270.599L270.736 103.357H269.717L269.521 104.905C269.482 105.194 269.403 105.483 269.286 105.771C269.168 106.06 268.985 106.301 268.737 106.494C268.502 106.673 268.189 106.762 267.797 106.762H263.937V95.3305C263.937 94.9178 264.008 94.6152 264.152 94.4226C264.309 94.2163 264.505 94.0856 264.74 94.0306C264.987 93.9618 265.256 93.9274 265.543 93.9274H265.798V93.0607H260.096V93.9274H260.351C260.651 93.9274 260.919 93.9618 261.154 94.0306C261.402 94.0993 261.598 94.2369 261.742 94.4433C261.885 94.6496 261.958 94.9729 261.958 95.4131V105.441C261.958 105.868 261.885 106.191 261.742 106.411C261.598 106.617 261.402 106.755 261.154 106.824C260.919 106.893 260.651 106.927 260.351 106.927H260.096ZM272.303 106.927V107.794H278.005V106.927H277.751C277.464 106.927 277.196 106.893 276.947 106.824C276.7 106.755 276.504 106.617 276.36 106.411C276.216 106.191 276.144 105.868 276.144 105.441V95.4131C276.144 94.9729 276.216 94.6496 276.36 94.4433C276.504 94.2369 276.7 94.0993 276.947 94.0306C277.196 93.9618 277.464 93.9274 277.751 93.9274H278.005V93.0607H272.303V93.9274H272.558C272.859 93.9274 273.126 93.9618 273.362 94.0306C273.61 94.0993 273.806 94.2369 273.949 94.4433C274.094 94.6496 274.165 94.9729 274.165 95.4131V105.441C274.165 105.868 274.094 106.191 273.949 106.411C273.806 106.617 273.61 106.755 273.362 106.824C273.126 106.893 272.859 106.927 272.558 106.927H272.303ZM278.754 106.927V107.794H283.535V106.927H283.084C282.653 106.927 282.327 106.844 282.104 106.679C281.896 106.514 281.791 106.26 281.791 105.916C281.791 105.833 281.798 105.751 281.81 105.668C281.824 105.572 281.843 105.469 281.869 105.359C281.896 105.249 281.928 105.139 281.967 105.029L282.712 102.862H287.865L288.649 105.173C288.688 105.269 288.715 105.366 288.727 105.462C288.754 105.545 288.774 105.627 288.786 105.71C288.799 105.778 288.806 105.854 288.806 105.937C288.806 106.281 288.708 106.535 288.512 106.7C288.316 106.851 288.022 106.927 287.63 106.927H287.179V107.794H292.568V106.927H292.313C292.066 106.927 291.856 106.9 291.686 106.844C291.517 106.776 291.372 106.666 291.255 106.514C291.137 106.349 291.027 106.122 290.922 105.833L286.493 93.0607H284.965L280.615 105.318C280.458 105.758 280.315 106.095 280.184 106.329C280.054 106.562 279.91 106.721 279.753 106.803C279.596 106.886 279.388 106.927 279.126 106.927H278.754ZM287.512 101.83H283.084L284.416 98.0336C284.534 97.7173 284.632 97.4284 284.71 97.167C284.802 96.8919 284.881 96.6373 284.946 96.4035C285.024 96.1559 285.09 95.9151 285.141 95.6813C285.208 95.4475 285.266 95.2067 285.318 94.9591C285.396 95.2893 285.482 95.6262 285.573 95.9702C285.678 96.3141 285.788 96.6718 285.906 97.0432C286.037 97.4146 286.168 97.8066 286.298 98.2193L287.512 101.83ZM285.455 90.6878C285.247 91.0454 285.044 91.3549 284.848 91.6164V91.8846H285.592C285.854 91.6921 286.135 91.4651 286.435 91.2037C286.736 90.9286 287.03 90.6397 287.316 90.337C287.618 90.0343 287.885 89.7455 288.12 89.4704C288.355 89.1953 288.531 88.9683 288.649 88.7895V88.5831H286.552C286.422 88.8858 286.258 89.2228 286.062 89.5942C285.866 89.9656 285.664 90.3302 285.455 90.6878ZM293.315 106.927V107.794H299.017V106.927H298.762C298.474 106.927 298.206 106.9 297.959 106.844C297.724 106.776 297.528 106.645 297.371 106.452C297.226 106.246 297.155 105.943 297.155 105.545V101.294H298.782L301.427 105.937C301.649 106.322 301.858 106.638 302.054 106.886C302.262 107.133 302.497 107.326 302.759 107.464C303.02 107.587 303.347 107.677 303.739 107.732C304.143 107.773 304.653 107.794 305.267 107.794H305.542V106.927H305.483C305.273 106.927 305.078 106.893 304.895 106.824C304.725 106.755 304.555 106.652 304.386 106.514C304.229 106.377 304.072 106.205 303.915 105.998C303.759 105.792 303.595 105.551 303.426 105.276L300.741 100.799C301.211 100.634 301.662 100.4 302.093 100.097C302.536 99.7944 302.903 99.3955 303.19 98.9003C303.477 98.3912 303.621 97.7722 303.621 97.0432C303.621 96.1491 303.438 95.4131 303.073 94.8353C302.707 94.2437 302.152 93.8036 301.407 93.5147C300.663 93.212 299.722 93.0607 298.586 93.0607H293.315V93.9274H293.57C293.856 93.9274 294.118 93.9618 294.353 94.0306C294.601 94.0856 294.797 94.2163 294.941 94.4226C295.098 94.6152 295.176 94.9178 295.176 95.3305V105.545C295.176 105.943 295.098 106.246 294.941 106.452C294.797 106.645 294.601 106.776 294.353 106.844C294.118 106.9 293.856 106.927 293.57 106.927H293.315ZM300.33 99.9732C299.899 100.207 299.297 100.324 298.527 100.324H297.155V94.0512H298.488C299.232 94.0512 299.826 94.1544 300.271 94.3607C300.714 94.5533 301.035 94.8766 301.231 95.3305C301.427 95.7707 301.525 96.3622 301.525 97.1051C301.525 97.8204 301.433 98.4188 301.251 98.9003C301.067 99.368 300.761 99.7256 300.33 99.9732ZM306.174 106.927V107.794H311.876V106.927H311.621C311.333 106.927 311.065 106.893 310.817 106.824C310.569 106.755 310.373 106.617 310.23 106.411C310.085 106.191 310.014 105.868 310.014 105.441V95.4131C310.014 94.9729 310.085 94.6496 310.23 94.4433C310.373 94.2369 310.569 94.0993 310.817 94.0306C311.065 93.9618 311.333 93.9274 311.621 93.9274H311.876V93.0607H306.174V93.9274H306.428C306.728 93.9274 306.997 93.9618 307.232 94.0306C307.479 94.0993 307.675 94.2369 307.82 94.4433C307.963 94.6496 308.035 94.9729 308.035 95.4131V105.441C308.035 105.868 307.963 106.191 307.82 106.411C307.675 106.617 307.479 106.755 307.232 106.824C306.997 106.893 306.728 106.927 306.428 106.927H306.174ZM316.445 107.051C317.358 107.684 318.508 108 319.893 108C321.212 108 322.329 107.684 323.244 107.051C324.158 106.418 324.851 105.538 325.321 104.41C325.804 103.268 326.046 101.934 326.046 100.407C326.046 98.8796 325.804 97.5522 325.321 96.4241C324.851 95.2824 324.158 94.402 323.244 93.783C322.343 93.1501 321.232 92.8338 319.913 92.8338C318.528 92.8338 317.372 93.1501 316.445 93.783C315.53 94.402 314.844 95.2755 314.387 96.4035C313.943 97.5316 313.721 98.859 313.721 100.386C313.721 101.913 313.943 103.247 314.387 104.389C314.844 105.531 315.53 106.418 316.445 107.051ZM321.735 106.452C321.238 106.741 320.624 106.886 319.893 106.886C319.175 106.886 318.561 106.741 318.052 106.452C317.542 106.164 317.123 105.744 316.797 105.194C316.484 104.63 316.255 103.949 316.112 103.151C315.967 102.339 315.896 101.424 315.896 100.407C315.896 99.3887 315.967 98.4807 316.112 97.6828C316.255 96.8849 316.484 96.211 316.797 95.6607C317.123 95.0967 317.542 94.6702 318.052 94.3813C318.561 94.0925 319.181 93.948 319.913 93.948C320.644 93.948 321.258 94.0925 321.755 94.3813C322.264 94.6702 322.668 95.0967 322.97 95.6607C323.283 96.211 323.511 96.8849 323.655 97.6828C323.799 98.4807 323.871 99.3887 323.871 100.407C323.871 101.424 323.799 102.339 323.655 103.151C323.511 103.949 323.283 104.63 322.97 105.194C322.656 105.744 322.245 106.164 321.735 106.452ZM330.302 107.794C330.798 107.931 331.366 108 332.006 108C332.986 108 333.835 107.835 334.554 107.505C335.285 107.175 335.847 106.707 336.239 106.102C336.631 105.483 336.827 104.733 336.827 103.853C336.827 103.137 336.682 102.525 336.396 102.016C336.108 101.507 335.69 101.06 335.142 100.675C334.605 100.276 333.952 99.9114 333.182 99.5812C332.424 99.2511 331.823 98.9415 331.379 98.6527C330.935 98.35 330.615 98.013 330.419 97.6416C330.236 97.2564 330.145 96.7887 330.145 96.2384C330.145 95.757 330.236 95.3443 330.419 95.0004C330.615 94.6428 330.89 94.3676 331.242 94.175C331.607 93.9825 332.038 93.8861 332.535 93.8861C333.084 93.8861 333.515 94.0168 333.829 94.2782C334.154 94.5396 334.383 94.8697 334.514 95.2686C334.658 95.6675 334.73 96.0802 334.73 96.5067C335.2 96.5067 335.573 96.3967 335.847 96.1765C336.133 95.9427 336.278 95.6056 336.278 95.1655C336.278 94.7666 336.133 94.3952 335.847 94.0512C335.559 93.6936 335.141 93.4047 334.593 93.1846C334.056 92.9644 333.398 92.8544 332.614 92.8544C331.791 92.8544 331.052 93.0057 330.4 93.3084C329.759 93.5972 329.25 94.0237 328.871 94.5877C328.505 95.138 328.323 95.8051 328.323 96.5892C328.323 97.1532 328.394 97.6622 328.538 98.1162C328.695 98.5701 328.917 98.976 329.204 99.3336C329.504 99.6912 329.883 100.021 330.341 100.324C330.798 100.627 331.327 100.909 331.928 101.17C332.698 101.5 333.3 101.817 333.731 102.119C334.174 102.422 334.488 102.752 334.671 103.11C334.867 103.454 334.965 103.88 334.965 104.389C334.965 105.228 334.717 105.875 334.221 106.329C333.723 106.769 333.038 106.989 332.163 106.989C331.548 106.989 331.052 106.838 330.674 106.535C330.294 106.219 330.014 105.813 329.831 105.318C329.648 104.809 329.544 104.272 329.518 103.708C329.217 103.708 328.962 103.77 328.754 103.894C328.544 104.004 328.381 104.162 328.264 104.368C328.159 104.575 328.107 104.815 328.107 105.091C328.107 105.517 328.186 105.909 328.342 106.267C328.511 106.624 328.76 106.934 329.087 107.195C329.413 107.457 329.818 107.656 330.302 107.794Z" fill="black"/>
</svg>
