<svg width="16" height="14" viewBox="0 0 16 14" fill="none" xmlns="http://www.w3.org/2000/svg">
<path d="M14.247 12.269C15.257 12.269 15.834 11.412 15.834 10.244V10.034C15.834 8.43 14.64 7 12.52 7H12.485C10.42 7 9 8.36 9 10.432V10.646C9 12.82 10.438 14 12.358 14H12.402C12.996 14 13.42 13.926 13.639 13.825V13.095C13.394 13.205 12.966 13.275 12.459 13.275H12.415C11.081 13.275 9.844 12.487 9.844 10.62V10.463C9.844 8.806 10.902 7.739 12.484 7.739H12.524C14.059 7.739 15.008 8.789 15.008 10.065V10.183C15.008 11.158 14.684 11.573 14.369 11.573C14.137 11.573 13.959 11.425 13.959 11.153V8.963H13.053V9.532H13.023C12.939 9.234 12.655 8.902 12.069 8.902C11.291 8.902 10.81 9.457 10.81 10.302V10.83C10.81 11.722 11.3 12.264 12.07 12.264C12.541 12.264 12.966 12.037 13.084 11.621H13.127C13.245 12.041 13.744 12.269 14.247 12.269ZM11.794 10.681V10.454C11.794 9.908 12.021 9.663 12.367 9.663C12.664 9.663 12.939 9.855 12.939 10.371V10.738C12.939 11.311 12.686 11.482 12.375 11.482C12.021 11.482 11.794 11.267 11.794 10.682V10.681Z" fill="white"/>
<path d="M2 0C1.46957 0 0.960859 0.210714 0.585786 0.585786C0.210714 0.960859 0 1.46957 0 2L0 10.01C0.00264352 10.5387 0.214524 11.0448 0.58931 11.4178C0.964097 11.7907 1.4713 12 2 12H7.5C7.63261 12 7.75979 11.9473 7.85355 11.8536C7.94732 11.7598 8 11.6326 8 11.5C8 11.3674 7.94732 11.2402 7.85355 11.1464C7.75979 11.0527 7.63261 11 7.5 11H2C1.77988 11 1.5659 10.9274 1.39124 10.7934C1.21658 10.6595 1.09101 10.4716 1.034 10.259L6.674 6.788L8 7.583L15 3.383V6.5C15 6.63261 15.0527 6.75979 15.1464 6.85355C15.2402 6.94732 15.3674 7 15.5 7C15.6326 7 15.7598 6.94732 15.8536 6.85355C15.9473 6.75979 16 6.63261 16 6.5V2C16 1.46957 15.7893 0.960859 15.4142 0.585786C15.0391 0.210714 14.5304 0 14 0H2ZM5.708 6.208L1 9.105V3.383L5.708 6.208ZM1 2.217V2C1 1.73478 1.10536 1.48043 1.29289 1.29289C1.48043 1.10536 1.73478 1 2 1H14C14.2652 1 14.5196 1.10536 14.7071 1.29289C14.8946 1.48043 15 1.73478 15 2V2.217L8 6.417L1 2.217Z" fill="white"/>
</svg>
