<svg width="122" height="125" viewBox="0 0 122 125" fill="none" xmlns="http://www.w3.org/2000/svg">
<circle cx="61" cy="64" r="60.5" fill="white" stroke="black"/>
<path d="M38.92 30.28C38.92 29.128 39.784 28.552 41.512 28.552C41.768 28.552 42.184 28.584 42.76 28.648C43.336 28.712 43.784 28.744 44.104 28.744C44.744 28.744 45.928 28.808 47.656 28.936C49.448 29.064 51.048 29.128 52.456 29.128C54.44 29.128 56.552 29.064 58.792 28.936C61.032 28.808 62.28 28.744 62.536 28.744C63.624 28.744 64.168 29.064 64.168 29.704C64.168 30.6 63.784 31.208 63.016 31.528C62.248 31.784 61.384 31.976 60.424 32.104C59.528 32.168 58.632 32.872 57.736 34.216C56.904 35.496 56.424 37.448 56.296 40.072C56.168 42.568 56.008 49.544 55.816 61C55.624 72.456 55.528 78.856 55.528 80.2V84.04C55.528 88.648 56.296 91.176 57.832 91.624C59.432 92.136 60.808 92.392 61.96 92.392C66.76 92.392 70.952 92.168 74.536 91.72C78.184 91.272 80.904 90.728 82.696 90.088C84.552 89.384 86.088 88.648 87.304 87.88C88.52 87.048 89.288 86.312 89.608 85.672C89.992 84.968 90.344 84.392 90.664 83.944C91.048 83.496 91.432 83.272 91.816 83.272C92.584 83.272 92.968 83.816 92.968 84.904C92.968 87.656 91.592 90.44 88.84 93.256C86.088 96.072 83.688 97.48 81.64 97.48C77.032 97.48 71.816 97.32 65.992 97C60.232 96.68 56.648 96.52 55.24 96.52C53.448 96.52 51.368 96.648 49 96.904C46.696 97.16 44.776 97.288 43.24 97.288C41.384 97.288 40.456 96.904 40.456 96.136C40.456 95.688 40.616 95.336 40.936 95.08C41.32 94.76 41.672 94.6 41.992 94.6C42.952 94.6 43.88 94.28 44.776 93.64C45.928 92.744 46.76 91.112 47.272 88.744C47.784 86.312 48.04 81.672 48.04 74.824V62.92C48.04 61.192 48.072 58.504 48.136 54.856C48.264 51.208 48.328 48.36 48.328 46.312C48.328 44.584 48.264 41.672 48.136 37.576C48.072 35.72 47.272 34.28 45.736 33.256C44.2 32.232 42.408 31.688 40.36 31.624C39.72 31.624 39.304 31.528 39.112 31.336C38.984 31.08 38.92 30.728 38.92 30.28Z" fill="black"/>
</svg>
