<svg width="150" height="150" viewBox="0 0 150 150" fill="none" xmlns="http://www.w3.org/2000/svg">
<g clip-path="url(#clip0_581_632)">
<path d="M31.1787 -0.220263C31.5669 -0.244579 31.5669 -0.244579 31.9628 -0.269385C32.836 -0.322763 33.7094 -0.371524 34.5829 -0.419828C34.8884 -0.43756 35.1938 -0.455292 35.5085 -0.473561C41.6178 -0.826942 47.7309 -1.03744 53.8479 -1.20173C54.6306 -1.22315 55.4134 -1.24502 56.1961 -1.26726C56.3906 -1.27277 56.585 -1.27828 56.7854 -1.28396C59.691 -1.36849 62.5888 -1.52089 65.4895 -1.71187C93.119 -3.49537 93.119 -3.49537 102.878 4.97563C108.076 9.61576 112.648 14.9816 116.786 20.5769C117.951 22.1494 119.162 23.7368 120.611 25.0601C121.265 25.7874 121.104 26.5795 121.102 27.5293C121.103 27.7382 121.103 27.9471 121.104 28.1623C121.106 28.8642 121.101 29.5658 121.096 30.2676C121.096 30.7699 121.096 31.2723 121.096 31.7746C121.097 33.1401 121.091 34.5056 121.085 35.8711C121.08 37.2974 121.079 38.7238 121.078 40.1502C121.076 42.8521 121.068 45.5539 121.06 48.2557C121.05 51.3313 121.045 54.4069 121.04 57.4825C121.031 63.81 121.016 70.1374 120.996 76.4649C121.196 76.4834 121.396 76.502 121.602 76.5211C121.997 76.5589 121.997 76.5589 122.399 76.5974C122.789 76.6343 122.789 76.6343 123.188 76.672C127.329 77.1537 131.124 79.294 134.18 82.0313C134.428 82.2514 134.675 82.4716 134.931 82.6985C139.387 86.8899 141.456 92.4191 141.787 98.4261C141.926 104.435 139.718 110.13 135.645 114.551C132.339 117.895 127.61 121.153 122.722 121.309C122.147 121.302 121.571 121.296 120.996 121.289C121.005 121.719 121.005 121.719 121.015 122.158C121.036 123.224 121.05 124.289 121.061 125.355C121.067 125.816 121.075 126.277 121.085 126.738C121.099 127.401 121.106 128.064 121.111 128.728C121.117 128.933 121.123 129.139 121.129 129.35C121.129 130.305 121.052 130.874 120.518 131.675C119.616 132.265 119.053 132.264 117.98 132.243C117.626 132.24 117.273 132.236 116.91 132.232C116.358 132.217 116.358 132.217 115.796 132.202C115.424 132.197 115.052 132.192 114.669 132.186C113.75 132.172 112.832 132.153 111.914 132.129C111.919 132.408 111.923 132.688 111.928 132.976C111.944 134.012 111.954 135.049 111.963 136.086C111.967 136.535 111.973 136.984 111.981 137.432C111.991 138.077 111.996 138.722 112 139.367C112.007 139.668 112.007 139.668 112.014 139.975C112.014 140.776 111.991 141.372 111.583 142.072C110.781 142.528 110.137 142.482 109.219 142.469C108.688 142.464 108.688 142.464 108.146 142.46C107.776 142.453 107.406 142.445 107.025 142.438C106.652 142.434 106.279 142.43 105.894 142.426C104.971 142.415 104.048 142.401 103.125 142.383C103.13 142.582 103.134 142.782 103.139 142.987C103.157 143.891 103.169 144.794 103.18 145.697C103.187 146.011 103.195 146.325 103.202 146.649C103.205 146.95 103.208 147.251 103.211 147.561C103.216 147.839 103.22 148.117 103.225 148.403C103.104 149.276 102.94 149.472 102.246 150C101.561 150.111 101.561 150.111 100.735 150.112C100.421 150.115 100.106 150.118 99.782 150.12C99.2616 150.118 99.2616 150.118 98.7307 150.116C98.3631 150.117 97.9955 150.119 97.6168 150.121C96.5945 150.126 95.5722 150.125 94.5499 150.124C93.4481 150.123 92.3463 150.127 91.2445 150.131C89.0848 150.137 86.9251 150.138 84.7654 150.138C83.0098 150.137 81.2542 150.138 79.4986 150.14C78.9934 150.141 78.4881 150.142 77.9829 150.142C77.6057 150.143 77.6057 150.143 77.2208 150.143C72.4612 150.149 67.7016 150.148 62.942 150.146C58.5882 150.145 54.2345 150.151 49.8807 150.161C45.4113 150.171 40.942 150.175 36.4727 150.174C33.9631 150.173 31.4535 150.174 28.9439 150.182C26.8066 150.188 24.6694 150.189 22.5321 150.183C21.4418 150.181 20.3517 150.18 19.2614 150.186C18.0786 150.193 16.8962 150.188 15.7135 150.182C15.3698 150.186 15.0261 150.189 14.672 150.193C12.6604 150.171 11.1519 149.977 9.66813 148.535C7.91893 146.585 8.33352 143.633 8.34745 141.187C8.3461 140.672 8.34423 140.157 8.34191 139.642C8.33702 138.229 8.33943 136.816 8.34306 135.402C8.34571 133.877 8.34162 132.352 8.3384 130.827C8.33319 127.841 8.33431 124.855 8.33771 121.868C8.34036 119.441 8.34072 117.014 8.33944 114.587C8.33926 114.241 8.33908 113.896 8.3389 113.54C8.33852 112.839 8.33814 112.137 8.33776 111.435C8.33441 104.855 8.33826 98.2757 8.34455 91.6959C8.34979 86.0496 8.34888 80.4034 8.34348 74.7571C8.33721 68.2009 8.33474 61.6447 8.33834 55.0885C8.33871 54.3895 8.33908 53.6904 8.33944 52.9913C8.33962 52.6474 8.3398 52.3034 8.33999 51.9491C8.341 49.5248 8.33929 47.1005 8.33653 44.6762C8.33325 41.722 8.33414 38.7678 8.34038 35.8136C8.34346 34.3062 8.34466 32.7988 8.34079 31.2914C8.3373 29.9115 8.33922 28.5316 8.34545 27.1517C8.34676 26.6526 8.34609 26.1534 8.34325 25.6542C8.31598 20.4658 8.31598 20.4658 10.1871 18.4969C11.8266 17.4924 13.192 17.397 15.0881 17.4866C15.3569 17.4932 15.6258 17.4998 15.9029 17.5066C16.5595 17.5237 17.2151 17.5477 17.8713 17.5782C17.8577 17.3025 17.8441 17.0268 17.8301 16.7427C17.7433 13.7514 17.7433 13.7514 18.3656 12.4146C19.6372 11.1087 20.8279 10.0651 22.7039 9.89445C22.954 9.89751 23.204 9.90058 23.4617 9.90374C23.7345 9.90563 24.0074 9.90752 24.2885 9.90947C24.5697 9.91438 24.8509 9.91929 25.1405 9.92434C25.4274 9.92699 25.7142 9.92963 26.0097 9.93235C26.7149 9.93924 27.42 9.94886 28.1252 9.96097C28.1221 9.68004 28.119 9.39911 28.1159 9.10967C28.1053 8.06903 28.0985 7.0284 28.093 5.98772C28.09 5.537 28.086 5.0863 28.081 4.6356C28.0739 3.98837 28.0705 3.34122 28.0679 2.69397C28.0649 2.49192 28.0619 2.28988 28.0588 2.08172C28.0587 1.58264 28.0894 1.08376 28.1252 0.585965C28.999 -0.28792 30.0004 -0.155198 31.1787 -0.220263ZM31.9338 3.80862C31.9338 44.8008 31.9338 85.793 31.9338 128.027C60.0675 128.027 88.2013 128.027 117.188 128.027C117.188 125.804 117.188 123.58 117.188 121.289C116.493 121.174 115.798 121.059 115.082 120.941C110.068 120.032 106.163 117.818 102.539 114.258C102.377 114.1 102.215 113.941 102.048 113.778C97.9942 109.44 96.5308 103.457 96.6169 97.6811C96.8202 91.8449 99.5225 86.3399 103.711 82.3242C107.76 78.8872 112.106 77.4812 117.188 76.4649C117.188 60.7061 117.188 44.9473 117.188 28.711C105.586 28.5659 105.586 28.5659 93.7502 28.418C93.4601 28.2246 93.1701 28.0313 92.8713 27.8321C92.7746 19.9043 92.6779 11.9766 92.5783 3.80862C72.5656 3.80862 52.5529 3.80862 31.9338 3.80862ZM21.9728 14.3555C21.5444 15.2124 21.6419 15.9654 21.6405 16.9228C21.6398 17.1299 21.6391 17.3369 21.6384 17.5503C21.6365 18.2512 21.6366 18.9522 21.6367 19.6531C21.6358 20.1579 21.6347 20.6627 21.6335 21.1675C21.6305 22.5602 21.6294 23.9528 21.6287 25.3455C21.6275 26.8453 21.6247 28.3451 21.6222 29.8449C21.6164 33.4694 21.6134 37.0939 21.6108 40.7184C21.6095 42.4235 21.608 44.1287 21.6064 45.8338C21.6014 51.4991 21.5972 57.1644 21.5951 62.8296C21.5945 64.3005 21.5939 65.7714 21.5934 67.2422C21.5932 67.6078 21.5931 67.9734 21.5929 68.3501C21.5905 74.2771 21.5831 80.2041 21.5736 86.1312C21.5639 92.2108 21.5586 98.2903 21.5577 104.37C21.557 107.786 21.5545 111.201 21.547 114.617C21.5407 117.525 21.5383 120.433 21.5411 123.341C21.5425 124.826 21.5419 126.31 21.5362 127.795C21.5311 129.153 21.5313 130.511 21.5359 131.869C21.5366 132.361 21.5353 132.854 21.5318 133.346C21.5274 134.013 21.5302 134.68 21.5348 135.347C21.5345 135.719 21.5343 136.09 21.534 136.472C21.6111 137.417 21.6111 137.417 22.1826 138.108C22.9735 138.659 23.3705 138.72 24.3274 138.718C24.7763 138.722 24.7763 138.722 25.2344 138.726C25.5627 138.722 25.891 138.719 26.2292 138.715C26.5784 138.716 26.9275 138.717 27.2872 138.718C28.2567 138.72 29.2259 138.716 30.1954 138.71C31.2406 138.705 32.2859 138.707 33.3311 138.708C35.1422 138.708 36.9532 138.705 38.7643 138.698C41.3828 138.689 44.0013 138.686 46.6198 138.684C50.8681 138.682 55.1163 138.674 59.3645 138.663C63.4915 138.652 67.6186 138.644 71.7456 138.639C71.9999 138.638 72.2543 138.638 72.5163 138.638C73.7923 138.636 75.0683 138.635 76.3442 138.633C86.9314 138.621 97.5185 138.6 108.106 138.574C108.106 136.447 108.106 134.32 108.106 132.129C107.12 132.127 106.135 132.124 105.12 132.122C96.0902 132.1 87.0607 132.075 78.0313 132.047C76.8486 132.043 75.6659 132.04 74.4832 132.036C74.2478 132.035 74.0123 132.035 73.7697 132.034C69.9539 132.022 66.138 132.013 62.3222 132.004C58.4087 131.995 54.4953 131.983 50.5818 131.97C48.1657 131.962 45.7496 131.955 43.3335 131.951C41.6782 131.948 40.0229 131.943 38.3676 131.936C37.4116 131.932 36.4556 131.929 35.4997 131.928C34.4646 131.928 33.4296 131.923 32.3946 131.918C31.9385 131.918 31.9385 131.918 31.4732 131.919C31.1969 131.917 30.9206 131.915 30.636 131.913C30.3969 131.912 30.1578 131.911 29.9115 131.911C29.297 131.836 29.297 131.836 28.4181 131.25C28.3071 130.424 28.3071 130.424 28.3054 129.343C28.3039 129.144 28.3024 128.945 28.3008 128.74C28.2968 128.067 28.2991 127.393 28.3013 126.72C28.2997 126.234 28.2977 125.749 28.2954 125.264C28.2901 123.926 28.2903 122.588 28.2914 121.25C28.2915 119.809 28.2867 118.368 28.2824 116.927C28.2757 114.428 28.2722 111.93 28.2709 109.431C28.2691 105.819 28.2623 102.206 28.2544 98.5939C28.2417 92.7335 28.233 86.8731 28.2267 81.0127C28.2205 75.3186 28.2125 69.6245 28.2021 63.9304C28.2014 63.5797 28.2008 63.2289 28.2001 62.8675C28.1969 61.1079 28.1936 59.3484 28.1903 57.5888C28.163 42.9824 28.142 28.376 28.1252 13.7696C27.3194 13.7537 26.514 13.7421 25.7082 13.7329C25.3666 13.7256 25.3666 13.7256 25.0181 13.7181C23.4042 13.6799 23.4042 13.6799 21.9728 14.3555ZM12.6013 21.8489C12.2021 22.8045 12.1946 23.5752 12.1942 24.6121C12.193 24.8198 12.1917 25.0276 12.1904 25.2416C12.1872 25.9414 12.1902 26.641 12.1932 27.3407C12.1922 27.8461 12.1908 28.3514 12.1891 28.8567C12.1854 30.248 12.1872 31.6393 12.19 33.0307C12.1919 34.5301 12.1889 36.0295 12.1865 37.5289C12.1825 40.4674 12.1834 43.4058 12.1859 46.3442C12.1879 48.7317 12.1882 51.1192 12.1872 53.5066C12.1871 53.846 12.187 54.1854 12.1868 54.535C12.1865 55.2244 12.1863 55.9138 12.186 56.6031C12.1835 63.0722 12.1864 69.5413 12.1911 76.0105C12.195 81.5652 12.1943 87.1199 12.1903 92.6746C12.1856 99.12 12.1837 105.565 12.1864 112.011C12.1867 112.698 12.187 113.385 12.1872 114.072C12.1874 114.41 12.1875 114.748 12.1876 115.096C12.1884 117.481 12.1871 119.867 12.1851 122.252C12.1826 125.158 12.1833 128.064 12.1879 130.97C12.1903 132.453 12.1911 133.937 12.1882 135.42C12.1856 136.777 12.1871 138.134 12.1917 139.49C12.1927 139.982 12.1922 140.475 12.1901 140.967C12.1874 141.633 12.1901 142.3 12.1942 142.966C12.1944 143.337 12.1945 143.708 12.1947 144.09C12.3139 145.096 12.4297 145.519 13.1838 146.191C13.8612 146.366 13.8612 146.366 14.6371 146.336C14.9389 146.338 15.2406 146.34 15.5516 146.343C15.8841 146.339 16.2167 146.336 16.5594 146.332C17.0881 146.334 17.0881 146.334 17.6275 146.335C18.6077 146.337 19.5876 146.333 20.5677 146.327C21.6239 146.322 22.6802 146.324 23.7364 146.325C25.567 146.326 27.3975 146.322 29.2281 146.315C31.8748 146.306 34.5215 146.303 37.1683 146.301C41.4622 146.299 45.7561 146.291 50.05 146.28C54.2216 146.269 58.3933 146.261 62.5649 146.256C62.9505 146.255 62.9505 146.255 63.3439 146.255C64.6334 146.253 65.9229 146.252 67.2124 146.25C77.9138 146.238 88.6152 146.218 99.3166 146.191C99.3166 144.935 99.3166 143.678 99.3166 142.383C98.9199 142.382 98.5231 142.381 98.1144 142.381C88.6969 142.364 79.2794 142.343 69.8619 142.316C68.7027 142.312 67.5436 142.309 66.3844 142.306C66.1536 142.305 65.9229 142.305 65.6851 142.304C61.9487 142.294 58.2122 142.286 54.4758 142.28C50.6418 142.274 46.8078 142.264 42.9738 142.251C40.6081 142.244 38.2423 142.238 35.8766 142.237C34.0625 142.235 32.2484 142.228 30.4343 142.22C29.6901 142.218 28.9459 142.217 28.2018 142.217C27.1864 142.218 26.1711 142.213 25.1557 142.207C24.8607 142.208 24.5658 142.21 24.2619 142.211C22.4139 142.192 20.856 142.034 19.4116 140.761C18.3612 139.345 18.1274 138.722 18.1236 136.96C18.1224 136.662 18.1224 136.662 18.1211 136.357C18.1186 135.684 18.1183 135.01 18.1179 134.337C18.1165 133.852 18.1151 133.367 18.1135 132.881C18.1095 131.543 18.1073 130.205 18.1055 128.867C18.1031 127.426 18.0991 125.985 18.0953 124.544C18.0889 122.045 18.0836 119.547 18.079 117.048C18.0723 113.436 18.0641 109.823 18.0555 106.211C18.0415 100.351 18.0288 94.4903 18.017 88.6299C18.0054 82.9358 17.9933 77.2417 17.9803 71.5476C17.9795 71.1969 17.9787 70.8461 17.9779 70.4847C17.9739 68.7251 17.9699 66.9655 17.9659 65.206C17.9325 50.5996 17.9012 35.9932 17.8713 21.3867C17.108 21.3551 16.346 21.3319 15.5824 21.3135C15.3662 21.3037 15.15 21.2939 14.9273 21.2837C13.6702 21.2577 13.6702 21.2577 12.6013 21.8489ZM129.199 89.3555C127.73 90.2981 126.581 91.6951 125.463 93.0176C124.55 94.0338 123.579 94.9868 122.608 95.9473C121.325 97.2171 120.078 98.4869 118.915 99.868C117.533 101.412 116.025 102.843 114.551 104.297C112.358 102.469 110.374 100.515 108.558 98.3105C108.099 97.7755 108.099 97.7755 107.227 97.5586C106.792 97.8487 106.792 97.8487 106.348 98.1446C106.515 99.2843 107.04 99.8572 107.813 100.69C108.05 100.947 108.288 101.203 108.532 101.468C109.441 102.417 110.369 103.344 111.309 104.263C112.017 104.988 112.637 105.761 113.237 106.578C113.671 106.987 113.671 106.987 114.356 107.089C115.489 106.863 115.999 106.151 116.712 105.304C117.019 104.954 117.328 104.604 117.637 104.256C117.801 104.071 117.964 103.887 118.132 103.697C119.202 102.521 120.347 101.418 121.482 100.306C122.376 99.4248 123.233 98.5306 124.052 97.5792C125.151 96.3055 126.333 95.1292 127.533 93.9514C127.948 93.5443 128.362 93.1366 128.775 92.7281C128.955 92.5512 129.135 92.3743 129.321 92.1921C129.843 91.665 129.843 91.665 130.371 90.8203C130.349 90.194 130.349 90.194 130.078 89.6485C129.788 89.5518 129.498 89.4551 129.199 89.3555Z" fill="black"/>
<path d="M39.1542 23.6547C39.5423 23.6532 39.5423 23.6532 39.9383 23.6516C40.7949 23.649 41.6514 23.6507 42.5079 23.6527C43.1023 23.6523 43.6966 23.6517 44.291 23.651C45.5372 23.6501 46.7834 23.6514 48.0295 23.6541C49.6285 23.6575 51.2274 23.6555 52.8264 23.652C54.0539 23.6499 55.2814 23.6506 56.5089 23.6521C57.0985 23.6525 57.6882 23.652 58.2778 23.6507C59.1013 23.6492 59.9246 23.6514 60.7481 23.6547C60.9928 23.6535 61.2376 23.6523 61.4897 23.6511C62.6296 23.6595 63.1898 23.6696 64.1601 24.3165C64.2699 24.9634 64.2699 24.9634 64.2698 25.7844C64.2718 26.0949 64.2739 26.4055 64.276 26.7255C64.2738 27.0676 64.2715 27.4098 64.2692 27.7623C64.2703 28.1215 64.2714 28.4806 64.2725 28.8507C64.2744 29.8374 64.2724 30.8239 64.2685 31.8106C64.2652 32.8418 64.2664 33.873 64.267 34.9042C64.2673 36.6361 64.264 38.368 64.2586 40.0999C64.2524 42.1039 64.2514 44.1078 64.2532 46.1118C64.2549 48.0375 64.2532 49.9631 64.25 51.8887C64.2486 52.7092 64.2483 53.5296 64.2489 54.3501C64.2496 55.495 64.2454 56.6398 64.2406 57.7847C64.2413 58.1268 64.2421 58.469 64.2428 58.8215C64.2407 59.1321 64.2386 59.4426 64.2365 59.7626C64.2356 60.169 64.2356 60.169 64.2347 60.5836C64.1601 61.2305 64.1601 61.2305 63.5742 61.8165C62.7123 61.8732 61.878 61.8933 61.0159 61.8876C60.751 61.8882 60.4861 61.8887 60.2132 61.8893C59.3346 61.8904 58.4561 61.8873 57.5775 61.884C56.9689 61.8836 56.3602 61.8835 55.7516 61.8836C54.4749 61.8831 53.1981 61.8807 51.9214 61.8767C50.282 61.8718 48.6426 61.8707 47.0032 61.8709C45.7461 61.8708 44.489 61.8692 43.2319 61.8671C42.6272 61.8661 42.0226 61.8656 41.418 61.8653C40.5741 61.8647 39.7303 61.8621 38.8864 61.859C38.6347 61.8591 38.3829 61.8593 38.1236 61.8594C36.3952 61.85 36.3952 61.85 35.7422 61.5235C35.7217 56.6824 35.7061 51.8414 35.6966 47.0003C35.6921 44.7526 35.6859 42.5049 35.6759 40.2572C35.6671 38.2986 35.6614 36.3401 35.6595 34.3815C35.6583 33.344 35.6556 32.3065 35.6492 31.269C35.6422 30.1121 35.642 28.9553 35.6424 27.7985C35.6392 27.4527 35.6361 27.1068 35.6328 26.7506C35.634 26.4367 35.6352 26.1228 35.6365 25.7994C35.6357 25.5256 35.6349 25.2518 35.634 24.9696C35.6697 24.7541 35.7054 24.5385 35.7422 24.3165C36.8817 23.5568 37.8328 23.6483 39.1542 23.6547Z" fill="black"/>
<path d="M38.983 72.8715C39.3292 72.8706 39.3292 72.8706 39.6823 72.8698C40.1699 72.8694 40.6575 72.8704 41.1451 72.8729C41.8916 72.876 42.6379 72.8729 43.3844 72.8692C43.8582 72.8696 44.332 72.8703 44.8058 72.8715C45.1409 72.8697 45.1409 72.8697 45.4828 72.8679C46.5921 72.8777 47.1009 72.9046 48.0467 73.5352C48.1564 74.0689 48.1564 74.0689 48.1558 74.722C48.1585 75.0886 48.1585 75.0886 48.1613 75.4626C48.1586 75.7269 48.1559 75.9912 48.1532 76.2635C48.1534 76.6698 48.1534 76.6698 48.1536 77.0844C48.1529 77.6577 48.1501 78.2311 48.1452 78.8044C48.1383 79.684 48.1392 80.5634 48.1411 81.4431C48.1395 81.9993 48.1374 82.5555 48.1349 83.1116C48.1353 83.5081 48.1353 83.5081 48.1357 83.9125C48.1329 84.1569 48.1301 84.4013 48.1272 84.6532C48.1259 84.8687 48.1245 85.0842 48.1231 85.3063C48.0467 85.8399 48.0467 85.8399 47.4608 86.4258C46.6272 86.4844 45.8227 86.5078 44.9889 86.5037C44.744 86.5042 44.4991 86.5048 44.2468 86.5054C43.7286 86.5058 43.2105 86.5047 42.6923 86.5022C41.8976 86.4991 41.103 86.5022 40.3082 86.506C39.8055 86.5056 39.3027 86.5048 38.7999 86.5037C38.5613 86.5049 38.3226 86.506 38.0767 86.5073C36.3953 86.4932 36.3953 86.4932 35.742 85.8399C35.6657 85.3063 35.6657 85.3063 35.6616 84.6532C35.6588 84.4087 35.656 84.1643 35.6531 83.9125C35.6534 83.6482 35.6537 83.3839 35.6539 83.1116C35.6527 82.8407 35.6514 82.5698 35.6501 82.2907C35.6484 81.7174 35.6483 81.1441 35.6496 80.5708C35.6505 79.6911 35.6436 78.8117 35.6362 77.932C35.6355 77.3759 35.6353 76.8197 35.6356 76.2635C35.6329 75.9992 35.6302 75.7349 35.6274 75.4626C35.6293 75.2182 35.6311 74.9738 35.633 74.722C35.6328 74.5064 35.6326 74.2909 35.6324 74.0689C35.9469 72.5379 37.7704 72.865 38.983 72.8715Z" fill="black"/>
<path d="M37.8477 97.225C38.2286 97.2259 38.2286 97.2259 38.6171 97.2268C38.8761 97.2265 39.1351 97.2262 39.402 97.2259C39.9507 97.2257 40.4994 97.2263 41.0481 97.2275C41.8911 97.2291 42.734 97.2275 43.577 97.2256C44.1088 97.2258 44.6405 97.2262 45.1723 97.2268C45.4262 97.2262 45.6801 97.2256 45.9417 97.225C47.7204 97.232 47.7204 97.232 48.047 97.5587C48.0803 98.4607 48.0951 99.356 48.0963 100.258C48.0977 100.665 48.0977 100.665 48.0992 101.08C48.1007 101.656 48.1014 102.231 48.1013 102.806C48.102 103.688 48.1073 104.57 48.1128 105.452C48.1137 106.01 48.1143 106.567 48.1146 107.125C48.1167 107.39 48.1188 107.655 48.1209 107.928C48.12 108.174 48.1191 108.419 48.1182 108.672C48.1186 108.888 48.119 109.105 48.1195 109.328C48.047 109.863 48.047 109.863 47.4611 110.449C46.6275 110.508 45.823 110.531 44.9892 110.527C44.7443 110.528 44.4994 110.528 44.2471 110.529C43.7289 110.529 43.2108 110.528 42.6926 110.526C41.8979 110.523 41.1033 110.526 40.3085 110.529C39.8058 110.529 39.303 110.528 38.8002 110.527C38.5616 110.528 38.3229 110.529 38.077 110.531C36.3957 110.517 36.3957 110.517 35.7424 109.863C35.6699 109.328 35.6699 109.328 35.6712 108.672C35.6703 108.427 35.6694 108.181 35.6685 107.928C35.6706 107.663 35.6727 107.398 35.6748 107.125C35.675 106.853 35.6751 106.582 35.6752 106.302C35.6761 105.727 35.6784 105.153 35.6821 104.578C35.6874 103.695 35.6881 102.813 35.688 101.93C35.6894 101.373 35.6911 100.815 35.6931 100.258C35.6935 99.9925 35.6938 99.7267 35.6941 99.4529C35.7111 97.2334 35.7111 97.2334 37.8477 97.225Z" fill="black"/>
<path d="M55.6743 98.6874C55.9865 98.6853 56.2987 98.6832 56.6203 98.681C57.1363 98.6798 57.1363 98.6798 57.6626 98.6786C58.2043 98.6757 58.2043 98.6757 58.7569 98.6728C59.749 98.668 60.7411 98.6646 61.7332 98.6622C62.3529 98.6607 62.9725 98.6589 63.5921 98.6571C65.5302 98.6515 67.4684 98.6473 69.4065 98.6449C71.6449 98.642 73.8832 98.6343 76.1215 98.6224C77.851 98.6136 79.5804 98.6093 81.3099 98.6083C82.3432 98.6076 83.3764 98.605 84.4097 98.5976C85.5621 98.5895 86.7145 98.5908 87.867 98.5928C88.2098 98.589 88.5526 98.5853 88.9057 98.5814C89.2196 98.5835 89.5334 98.5855 89.8567 98.5876C90.2656 98.5865 90.2656 98.5865 90.6826 98.5855C91.6388 98.7771 91.9926 99.1353 92.5781 99.9024C92.5964 100.946 92.5964 100.946 92.2852 101.953C91.2736 102.718 90.5311 102.942 89.2749 102.944C88.8165 102.947 88.8165 102.947 88.3489 102.951C88.0168 102.949 87.6846 102.948 87.3425 102.946C86.8142 102.948 86.8142 102.948 86.2752 102.95C85.3115 102.954 84.348 102.953 83.3843 102.95C82.3747 102.948 81.365 102.95 80.3553 102.951C78.66 102.953 76.9646 102.951 75.2692 102.947C73.3106 102.942 71.3521 102.943 69.3935 102.948C67.7103 102.952 66.0271 102.953 64.3439 102.95C63.3393 102.949 62.3347 102.949 61.3301 102.952C60.21 102.954 59.0901 102.951 57.97 102.946C57.4719 102.948 57.4719 102.948 56.9636 102.951C56.658 102.949 56.3525 102.946 56.0376 102.944C55.773 102.943 55.5084 102.943 55.2357 102.943C54.3235 102.807 53.7694 102.493 53.0273 101.953C52.7344 101.257 52.7344 101.257 52.7344 100.488C53.479 98.9281 54.0046 98.695 55.6743 98.6874Z" fill="black"/>
<path d="M55.6743 89.6053C55.9865 89.6032 56.2987 89.6011 56.6203 89.599C57.1363 89.5978 57.1363 89.5978 57.6626 89.5966C58.2043 89.5937 58.2043 89.5937 58.7569 89.5908C59.749 89.586 60.7411 89.5826 61.7332 89.5802C62.3529 89.5786 62.9725 89.5769 63.5921 89.575C65.5302 89.5694 67.4684 89.5653 69.4065 89.5628C71.6449 89.56 73.8832 89.5523 76.1215 89.5404C77.851 89.5316 79.5804 89.5272 81.3099 89.5263C82.3432 89.5256 83.3764 89.523 84.4097 89.5156C85.5621 89.5075 86.7145 89.5087 87.867 89.5108C88.2098 89.507 88.5526 89.5033 88.9057 89.4994C89.2196 89.5014 89.5334 89.5035 89.8567 89.5056C90.2656 89.5045 90.2656 89.5045 90.6826 89.5034C91.6388 89.6951 91.9926 90.0532 92.5781 90.8203C92.5964 91.864 92.5964 91.864 92.2852 92.8711C91.2736 93.6359 90.5311 93.86 89.2749 93.8616C88.8165 93.8653 88.8165 93.8653 88.3489 93.8691C88.0168 93.8673 87.6846 93.8656 87.3425 93.8637C86.8142 93.866 86.8142 93.866 86.2752 93.8684C85.3115 93.8716 84.348 93.8709 83.3843 93.8681C82.3747 93.8658 81.365 93.8679 80.3553 93.8693C78.66 93.8709 76.9646 93.8688 75.2692 93.8646C73.3106 93.8598 71.3521 93.8614 69.3935 93.8662C67.7103 93.8702 66.0271 93.8708 64.3439 93.8685C63.3393 93.8671 62.3347 93.8669 61.3301 93.8698C60.21 93.872 59.0901 93.8686 57.97 93.8637C57.4719 93.8664 57.4719 93.8664 56.9636 93.8691C56.658 93.8666 56.3525 93.8642 56.0376 93.8616C55.773 93.8613 55.5084 93.861 55.2357 93.8606C54.3235 93.7249 53.7694 93.4111 53.0273 92.8711C52.7344 92.1753 52.7344 92.1753 52.7344 91.4063C53.479 89.8461 54.0046 89.613 55.6743 89.6053Z" fill="black"/>
<path d="M55.6612 71.4393C56.1252 71.4355 56.1252 71.4355 56.5985 71.4316C56.9392 71.4304 57.28 71.4291 57.6311 71.4278C57.9889 71.4254 58.3466 71.423 58.7153 71.4206C59.9035 71.4133 61.0917 71.4084 62.2799 71.4042C62.6889 71.4027 63.0979 71.4011 63.5068 71.3995C65.208 71.3932 66.9092 71.3877 68.6104 71.3844C71.0488 71.3796 73.487 71.3699 75.9253 71.3532C77.6396 71.3419 79.3539 71.3361 81.0682 71.3346C82.0922 71.3335 83.116 71.33 84.14 71.3205C85.2826 71.3101 86.425 71.3112 87.5677 71.3134C88.0762 71.3062 88.0762 71.3062 88.5949 71.2988C91.1485 71.3188 91.1485 71.3188 92.0662 72.1702C92.5781 72.9492 92.5781 72.9492 92.5964 73.8647C92.2366 74.8384 91.9917 75.0637 91.1133 75.5859C90.3959 75.6965 90.3959 75.6965 89.5788 75.6975C89.2683 75.7 88.9578 75.7025 88.6379 75.705C88.2988 75.7032 87.9596 75.7015 87.6102 75.6996C87.2519 75.7012 86.8936 75.7027 86.5244 75.7043C85.5425 75.7075 84.5609 75.7067 83.579 75.704C82.5512 75.7017 81.5235 75.7038 80.4957 75.7052C78.7697 75.7068 77.0438 75.7047 75.3179 75.7005C73.3228 75.6957 71.3279 75.6973 69.3328 75.7021C67.6195 75.7061 65.9062 75.7066 64.1929 75.7043C63.1698 75.703 62.1467 75.7028 61.1236 75.7057C59.9831 75.7087 58.8427 75.7045 57.7023 75.6996C57.3631 75.7014 57.024 75.7032 56.6746 75.705C56.3641 75.7025 56.0536 75.7001 55.7337 75.6975C55.464 75.6972 55.1944 75.6968 54.9166 75.6965C54.0567 75.5639 53.6574 75.2982 53.0273 74.707C52.7527 74.0112 52.7527 74.0112 52.7344 73.2422C53.4756 71.689 53.9983 71.4493 55.6612 71.4393Z" fill="black"/>
<path d="M55.6612 80.5213C56.1252 80.5175 56.1252 80.5175 56.5985 80.5136C56.9392 80.5124 57.28 80.5112 57.6311 80.5099C57.9889 80.5075 58.3466 80.5051 58.7153 80.5026C59.9035 80.4953 61.0917 80.4904 62.2799 80.4863C62.6889 80.4847 63.0979 80.4831 63.5068 80.4815C65.208 80.4752 66.9092 80.4697 68.6104 80.4664C71.0488 80.4617 73.487 80.4519 75.9253 80.4352C77.6396 80.4239 79.3539 80.4182 81.0682 80.4166C82.0922 80.4156 83.116 80.412 84.14 80.4025C85.2826 80.3921 86.425 80.3932 87.5677 80.3954C88.0762 80.3882 88.0762 80.3882 88.5949 80.3809C91.1485 80.4008 91.1485 80.4008 92.0662 81.2523C92.5781 82.0312 92.5781 82.0312 92.5964 82.9467C92.2367 83.9201 91.9911 84.1454 91.1133 84.6679C90.4013 84.7785 90.4013 84.7785 89.5919 84.7795C89.2843 84.782 88.9767 84.7845 88.6597 84.787C88.1558 84.7844 88.1558 84.7844 87.6418 84.7817C87.2868 84.7832 86.9318 84.7847 86.566 84.7863C85.5932 84.7895 84.6206 84.7888 83.6478 84.786C82.6292 84.7838 81.6105 84.7858 80.5919 84.7872C78.8809 84.7888 77.17 84.7867 75.4591 84.7825C73.4824 84.7777 71.5058 84.7793 69.529 84.7841C67.8309 84.7881 66.1328 84.7887 64.4346 84.7864C63.4209 84.785 62.4071 84.7848 61.3933 84.7877C60.2627 84.7907 59.1322 84.7866 58.0016 84.7817C57.6663 84.7834 57.3309 84.7852 56.9854 84.787C56.677 84.7846 56.3685 84.7821 56.0507 84.7795C55.7836 84.7792 55.5164 84.7789 55.2411 84.7785C54.3256 84.6433 53.7717 84.3313 53.0273 83.789C52.7344 83.0932 52.7344 83.0932 52.7344 82.3242C53.4756 80.7711 53.9983 80.5313 55.6612 80.5213Z" fill="black"/>
<path d="M55.6743 107.769C55.9865 107.767 56.2987 107.765 56.6203 107.763C57.1363 107.762 57.1363 107.762 57.6626 107.761C58.2043 107.758 58.2043 107.758 58.7569 107.755C59.749 107.75 60.7411 107.747 61.7332 107.744C62.3529 107.743 62.9725 107.741 63.5921 107.739C65.5302 107.734 67.4684 107.729 69.4065 107.727C71.6449 107.724 73.8832 107.716 76.1215 107.704C77.851 107.696 79.5804 107.691 81.3099 107.69C82.3432 107.69 83.3764 107.687 84.4097 107.68C85.5621 107.672 86.7145 107.673 87.867 107.675C88.2098 107.671 88.5526 107.667 88.9057 107.663C89.2196 107.665 89.5334 107.668 89.8567 107.67C90.2656 107.669 90.2656 107.669 90.6826 107.667C91.6388 107.859 91.9926 108.217 92.5781 108.984C92.5964 110.028 92.5964 110.028 92.2852 111.035C91.2768 111.797 90.5382 112.024 89.286 112.024C88.9829 112.026 88.6798 112.028 88.3675 112.03C88.0381 112.028 87.7087 112.025 87.3693 112.023C86.8453 112.025 86.8453 112.025 86.3108 112.026C85.355 112.028 84.3993 112.026 83.4435 112.022C82.442 112.019 81.4406 112.02 80.4391 112.021C78.7575 112.021 77.076 112.018 75.3944 112.013C73.4518 112.006 71.5092 112.005 69.5666 112.007C67.6959 112.009 65.8252 112.007 63.9545 112.004C63.1593 112.003 62.3641 112.002 61.5688 112.003C60.4579 112.003 59.347 111.999 58.2361 111.995C57.742 111.996 57.742 111.996 57.238 111.997C56.9349 111.995 56.6318 111.993 56.3195 111.99C56.057 111.99 55.7945 111.989 55.5241 111.989C54.6862 111.904 54.0696 111.711 53.3203 111.328C52.8809 110.504 52.8809 110.504 52.7344 109.57C53.4347 107.995 54.0265 107.777 55.6743 107.769Z" fill="black"/>
<path d="M71.1924 57.857C71.4877 57.8533 71.783 57.8495 72.0873 57.8457C72.5706 57.8486 72.5706 57.8486 73.0637 57.8515C73.4044 57.849 73.7452 57.8464 74.0962 57.8438C75.2242 57.8372 76.352 57.8392 77.4801 57.8418C78.0652 57.8407 78.6504 57.8395 79.2356 57.8379C81.0754 57.833 82.9152 57.834 84.755 57.8389C86.6519 57.8439 88.5486 57.8392 90.4455 57.8298C92.0752 57.8219 93.7049 57.8198 95.3346 57.8223C96.3075 57.8237 97.2802 57.8225 98.2531 57.8171C99.3382 57.812 100.423 57.8162 101.508 57.8229C101.99 57.8177 101.99 57.8177 102.483 57.8125C104.652 57.8397 104.652 57.8397 105.825 58.6945C106.348 59.4726 106.348 59.4726 106.366 60.3881C106.007 61.3601 105.758 61.5856 104.883 62.1093C104.198 62.2191 104.198 62.2191 103.426 62.219C102.986 62.2221 102.986 62.2221 102.538 62.2252C102.218 62.223 101.898 62.2207 101.568 62.2184C101.061 62.22 101.061 62.22 100.543 62.2217C99.423 62.224 98.3033 62.22 97.1834 62.2158C96.4062 62.2156 95.629 62.2158 94.8519 62.2162C93.2225 62.2165 91.5931 62.2132 89.9637 62.2078C88.0805 62.2016 86.1974 62.2006 84.3142 62.2024C82.5018 62.2041 80.6895 62.2024 78.8771 62.1992C78.1062 62.198 77.3352 62.1977 76.5643 62.1982C75.4876 62.1983 74.4111 62.1946 73.3345 62.1898C73.0145 62.1905 72.6946 62.1913 72.3649 62.192C72.0717 62.1899 71.7784 62.1879 71.4763 62.1857C71.0945 62.1848 71.0945 62.1848 70.7051 62.1839C69.9551 62.1023 69.4832 61.9256 68.8478 61.5234C68.4317 60.6911 68.4627 60.1011 68.5548 59.1796C69.3684 58.1485 69.8881 57.8612 71.1924 57.857Z" fill="black"/>
<path d="M70.8903 49.4001C71.3413 49.3964 71.3413 49.3964 71.8014 49.3926C72.1311 49.3944 72.4608 49.3962 72.8004 49.398C73.3214 49.3957 73.3214 49.3957 73.853 49.3933C74.8057 49.3901 75.7584 49.3909 76.7112 49.3937C77.7078 49.3959 78.7044 49.3938 79.7011 49.3924C81.3749 49.3909 83.0486 49.393 84.7223 49.3971C86.658 49.4019 88.5935 49.4004 90.5291 49.3955C92.1904 49.3916 93.8517 49.391 95.513 49.3933C96.5055 49.3947 97.4979 49.3948 98.4904 49.3919C99.5966 49.3897 100.703 49.3931 101.809 49.398C102.139 49.3962 102.468 49.3944 102.808 49.3926C103.109 49.3951 103.409 49.3976 103.719 49.4001C103.981 49.4005 104.242 49.4008 104.512 49.4011C105.315 49.5349 105.567 49.7502 106.055 50.3906C106.336 51.2352 106.414 51.672 106.11 52.5147C105.762 53.0274 105.762 53.0274 105.176 53.3203C104.703 53.3493 104.228 53.3599 103.754 53.3615C103.454 53.3631 103.154 53.3648 102.844 53.3665C102.514 53.3669 102.183 53.3672 101.842 53.3675C101.321 53.3697 101.321 53.3697 100.79 53.3719C99.8358 53.3755 98.8819 53.3777 97.9279 53.379C97.3322 53.3798 96.7366 53.381 96.1409 53.3823C94.278 53.3863 92.4151 53.3892 90.5522 53.3903C88.4001 53.3916 86.248 53.3968 84.0959 53.4053C82.4333 53.4116 80.7708 53.4145 79.1083 53.4149C78.1148 53.4152 77.1214 53.417 76.1279 53.4222C75.0203 53.4272 73.9128 53.4267 72.8051 53.4247C72.475 53.4274 72.1448 53.4301 71.8047 53.4329C71.5036 53.4313 71.2025 53.4297 70.8923 53.428C70.4993 53.4286 70.4993 53.4286 70.0983 53.4293C69.4336 53.3203 69.4336 53.3203 68.9098 52.9382C68.3169 52.1087 68.4495 51.3721 68.5547 50.3906C69.2233 49.4561 69.7757 49.4015 70.8903 49.4001Z" fill="black"/>
<path d="M70.9014 40.9001C71.2045 40.8968 71.5077 40.8934 71.82 40.89C72.3186 40.8913 72.3186 40.8913 72.8273 40.8926C73.1775 40.8901 73.5277 40.8876 73.8885 40.8851C74.8491 40.8794 75.8097 40.8777 76.7703 40.8783C77.5719 40.8783 78.3736 40.8758 79.1752 40.8734C81.066 40.8677 82.9567 40.8669 84.8475 40.8689C86.7991 40.8708 88.7506 40.8641 90.7022 40.8532C92.3772 40.8443 94.0521 40.8409 95.7272 40.8421C96.7279 40.8427 97.7284 40.841 98.7291 40.8339C99.8445 40.8274 100.96 40.8302 102.075 40.8354C102.407 40.8315 102.74 40.8276 103.082 40.8236C103.905 40.8325 104.663 40.8499 105.469 41.0156C106.123 41.7112 106.123 41.7112 106.348 42.4805C106.308 43.3107 106.195 43.7619 105.689 44.4213C105.007 44.9568 104.595 44.9347 103.732 44.9358C103.285 44.9395 103.285 44.9395 102.83 44.9433C102.503 44.9416 102.177 44.9398 101.84 44.9379C101.496 44.9395 101.152 44.941 100.798 44.9426C99.8543 44.9458 98.9107 44.9451 97.967 44.9423C96.9795 44.9401 95.992 44.9421 95.0045 44.9435C93.3457 44.9451 91.687 44.943 90.0283 44.9388C88.111 44.934 86.1938 44.9356 84.2764 44.9404C82.6303 44.9444 80.9842 44.945 79.3381 44.9427C78.3549 44.9413 77.3718 44.9411 76.3886 44.944C75.2923 44.9462 74.1961 44.9428 73.0998 44.9379C72.611 44.9406 72.611 44.9406 72.1123 44.9433C71.8136 44.9409 71.515 44.9384 71.2074 44.9358C70.9482 44.9355 70.689 44.9352 70.4219 44.9348C69.5686 44.7991 69.1662 44.5509 68.5547 43.9453C68.3364 42.1991 68.3364 42.1991 68.9104 41.3982C69.606 40.8895 70.0431 40.9036 70.9014 40.9001Z" fill="black"/>
</g>
<defs>
<clipPath id="clip0_581_632">
<rect width="150" height="150" fill="white"/>
</clipPath>
</defs>
</svg>
