<svg width="151" height="146" viewBox="0 0 151 146" fill="none" xmlns="http://www.w3.org/2000/svg">
<path d="M72.6308 19.7782C72.8983 19.7767 73.1659 19.7753 73.4416 19.7739C74.006 19.7729 74.5704 19.7756 75.1347 19.7817C75.9973 19.7896 76.8586 19.7818 77.7211 19.7724C78.2704 19.7734 78.8198 19.7753 79.3691 19.7782C79.6261 19.7752 79.8831 19.7722 80.1478 19.7692C81.3963 19.793 81.9986 19.8666 83.0497 20.5922C83.7457 21.6291 83.7875 22.198 83.7602 23.4391C83.7554 23.8177 83.7507 24.1963 83.7459 24.5864C83.7336 24.9833 83.7212 25.3802 83.7087 25.7771C83.7013 26.1798 83.6946 26.5824 83.6886 26.9851C83.6714 27.9683 83.6473 28.9508 83.6171 29.9336C83.8048 29.9478 83.9925 29.9619 84.1859 29.9765C85.731 30.109 87.1192 30.3351 88.5976 30.8309C89.7476 31.2474 89.7476 31.2474 90.9413 31.3985C91.3727 30.8253 91.3727 30.8253 91.8008 30.0836C91.9668 29.8099 92.1327 29.5363 92.3037 29.2544C92.5629 28.8202 92.5629 28.8202 92.8273 28.3772C93.1676 27.8101 93.509 27.2436 93.8516 26.6778C94.0028 26.4246 94.154 26.1715 94.3098 25.9107C95.277 24.4503 95.277 24.4503 96.1942 24.2338C98.1028 24.2153 99.3929 24.7836 101.03 25.7222C101.273 25.8564 101.516 25.9905 101.766 26.1287C102.458 26.5129 103.145 26.9043 103.832 27.2969C104.312 27.5615 104.312 27.5615 104.802 27.8314C106.431 28.7546 107.605 29.5246 108.215 31.3733C108.435 33.1047 107.299 34.6154 106.487 36.0677C106.233 36.5359 106.233 36.5359 105.975 37.0135C105.558 37.7813 105.137 38.546 104.711 39.3086C104.928 39.5258 105.145 39.7429 105.369 39.9667C106.81 41.4075 108.251 42.8483 109.691 44.2891C109.862 44.1915 110.033 44.0939 110.21 43.9933C110.998 43.5483 111.791 43.113 112.584 42.6778C112.853 42.5241 113.122 42.3704 113.399 42.212C114.993 41.348 116.286 40.8865 118.104 40.8668C119.604 41.3142 120.396 42.6794 121.126 43.9847C121.222 44.1629 121.318 44.3412 121.417 44.5249C121.571 44.8071 121.571 44.8071 121.728 45.095C121.943 45.4907 122.156 45.8871 122.368 46.2842C122.692 46.8886 123.024 47.4879 123.357 48.0874C123.565 48.4743 123.773 48.8615 123.98 49.249C124.08 49.426 124.179 49.6031 124.282 49.7856C124.96 51.0864 125.019 51.9624 124.633 53.3711C124.04 54.1926 123.18 54.6441 122.322 55.169C122.047 55.338 121.773 55.507 121.49 55.6811C121.204 55.8554 120.917 56.0297 120.623 56.2093C120.333 56.387 120.044 56.5646 119.746 56.7477C119.032 57.1858 118.317 57.6227 117.601 58.0586C117.741 58.5694 117.88 59.0802 118.019 59.591C118.097 59.8754 118.174 60.1599 118.254 60.453C118.391 60.9528 118.528 61.4523 118.668 61.9511C118.986 63.131 119.089 64.1659 119.066 65.3829C119.441 65.3713 119.441 65.3713 119.823 65.3596C120.754 65.3346 121.685 65.3162 122.616 65.3024C123.018 65.295 123.42 65.2851 123.822 65.2723C124.401 65.2545 124.981 65.247 125.561 65.2398C125.909 65.2321 126.257 65.2245 126.616 65.2166C127.562 65.3829 127.562 65.3829 128.408 65.9503C129.265 67.1919 129.239 68.154 129.222 69.6309C129.223 69.8985 129.225 70.166 129.226 70.4417C129.227 71.0061 129.224 71.5705 129.218 72.1349C129.21 72.9974 129.218 73.8588 129.228 74.7212C129.227 75.2706 129.225 75.8199 129.222 76.3692C129.225 76.6262 129.228 76.8832 129.231 77.148C129.207 78.3964 129.133 78.9987 128.408 80.0498C127.371 80.7458 126.802 80.7876 125.561 80.7603C125.182 80.7556 124.804 80.7508 124.414 80.746C124.017 80.7337 123.62 80.7213 123.223 80.7088C122.82 80.7014 122.418 80.6947 122.015 80.6888C121.032 80.6715 120.049 80.6474 119.066 80.6172C119.052 80.8049 119.038 80.9926 119.023 81.186C118.891 82.7311 118.665 84.1194 118.169 85.5977C117.753 86.7477 117.753 86.7477 117.601 87.9414C118.17 88.3631 118.17 88.3631 118.906 88.7803C119.178 88.9436 119.451 89.107 119.731 89.2753C120.308 89.6161 120.886 89.9564 121.464 90.2961C124.322 92.0129 124.322 92.0129 124.926 93.2149C124.821 94.7497 124.416 95.8602 123.694 97.2089C123.601 97.3846 123.507 97.5603 123.411 97.7413C123.213 98.1099 123.014 98.4777 122.814 98.8447C122.51 99.4023 122.212 99.9629 121.915 100.524C121.721 100.884 121.527 101.244 121.332 101.603C121.158 101.926 120.983 102.249 120.803 102.582C120.093 103.697 119.417 104.742 118.104 105.133C115.95 105.11 114.433 104.379 112.584 103.322C112.304 103.169 112.024 103.015 111.735 102.857C111.051 102.48 110.37 102.098 109.691 101.711C109.474 101.928 109.257 102.145 109.033 102.369C107.592 103.81 106.152 105.251 104.711 106.691C104.819 106.885 104.927 107.078 105.038 107.277C105.527 108.159 106.007 109.046 106.487 109.932C106.657 110.237 106.827 110.541 107.003 110.854C108.211 113.107 108.211 113.107 108.28 114.564C107.334 117.065 105.237 118.063 102.998 119.248C102.442 119.544 101.892 119.85 101.342 120.157C99.4085 121.208 97.8563 122.022 95.6288 121.633C95.0154 121.211 95.0154 121.211 94.6034 120.589C94.4429 120.353 94.2824 120.118 94.1171 119.875C93.8503 119.44 93.8503 119.44 93.578 118.996C93.4644 118.813 93.3508 118.629 93.2337 118.44C92.4508 117.171 91.6903 115.891 90.9413 114.602C90.7359 114.658 90.5304 114.715 90.3188 114.773C89.4526 115.011 88.5856 115.246 87.7187 115.481C87.4962 115.543 87.2738 115.605 87.0446 115.669C85.8662 115.987 84.8325 116.089 83.6171 116.066C83.6248 116.316 83.6325 116.566 83.6404 116.823C83.6654 117.754 83.6837 118.685 83.6976 119.616C83.7049 120.018 83.7149 120.42 83.7276 120.822C83.7455 121.402 83.7529 121.981 83.7602 122.561C83.7678 122.909 83.7755 123.258 83.7834 123.616C83.6171 124.563 83.6171 124.563 83.0497 125.408C81.8081 126.265 80.8459 126.239 79.3691 126.222C79.1015 126.223 78.8339 126.225 78.5582 126.226C77.9939 126.227 77.4295 126.224 76.8651 126.218C76.0026 126.211 75.1412 126.218 74.2787 126.228C73.7294 126.227 73.1801 126.225 72.6308 126.222C72.3738 126.225 72.1168 126.228 71.852 126.231C70.6035 126.207 70.0012 126.133 68.9501 125.408C68.2542 124.371 68.2123 123.802 68.2397 122.561C68.2444 122.182 68.2491 121.804 68.254 121.414C68.2662 121.017 68.2786 120.62 68.2912 120.223C68.2985 119.82 68.3052 119.418 68.3112 119.015C68.3285 118.032 68.3525 117.049 68.3827 116.066C68.195 116.052 68.0073 116.038 67.814 116.024C66.2689 115.891 64.8806 115.665 63.4023 115.169C62.2522 114.753 62.2522 114.753 61.0585 114.602C60.6272 115.175 60.6272 115.175 60.1991 115.917C60.0331 116.19 59.8671 116.464 59.6961 116.746C59.5233 117.035 59.3505 117.325 59.1725 117.623C58.8322 118.19 58.4909 118.757 58.1483 119.322C57.9971 119.575 57.8458 119.829 57.69 120.089C57.285 120.701 56.9432 121.176 56.371 121.633C53.9445 122.037 52.1811 121.005 50.1111 119.852C49.56 119.546 49.0043 119.25 48.4471 118.955C44.5884 116.861 44.5884 116.861 43.7196 114.564C43.8038 112.788 44.6572 111.462 45.5129 109.932C45.6819 109.62 45.8509 109.308 46.025 108.987C46.4416 108.219 46.863 107.454 47.289 106.691C47.0718 106.474 46.8547 106.257 46.6309 106.033C45.1901 104.593 43.7493 103.152 42.3085 101.711C42.1375 101.809 41.9665 101.906 41.7902 102.007C41.0021 102.452 40.209 102.887 39.4154 103.322C39.0121 103.553 39.0121 103.553 38.6006 103.788C37.0073 104.652 35.7135 105.114 33.8958 105.133C32.3961 104.686 31.6038 103.321 30.8735 102.015C30.7776 101.837 30.6817 101.659 30.5829 101.475C30.4802 101.287 30.3776 101.099 30.2718 100.905C30.0572 100.509 29.8441 100.113 29.6323 99.7158C29.3083 99.1115 28.976 98.5122 28.6431 97.9127C28.4347 97.5258 28.2268 97.1386 28.0194 96.7511C27.92 96.574 27.8205 96.397 27.7181 96.2145C27.0403 94.9137 26.9812 94.0377 27.3671 92.6289C27.9601 91.8074 28.8202 91.356 29.6777 90.8311C29.9524 90.6621 30.2272 90.4931 30.5102 90.319C30.7963 90.1447 31.0824 89.9704 31.3771 89.7908C31.8113 89.5243 31.8113 89.5243 32.2543 89.2524C32.9683 88.8143 33.683 88.3774 34.3984 87.9414C34.2591 87.4307 34.1199 86.9199 33.9806 86.4091C33.9031 86.1246 33.8256 85.8402 33.7457 85.5471C33.6092 85.0473 33.4715 84.5478 33.3316 84.049C33.0135 82.8691 32.9112 81.8342 32.9335 80.6172C32.6838 80.6249 32.4341 80.6326 32.1768 80.6405C31.2459 80.6655 30.3152 80.6838 29.3841 80.6977C28.9819 80.705 28.5798 80.715 28.1779 80.7277C27.5984 80.7456 27.0187 80.7531 26.439 80.7603C25.9166 80.7718 25.9166 80.7718 25.3836 80.7835C24.4374 80.6172 24.4374 80.6172 23.5921 80.0498C22.735 78.8082 22.761 77.8461 22.778 76.3692C22.7766 76.1016 22.7752 75.834 22.7738 75.5584C22.7728 74.994 22.7755 74.4296 22.7816 73.8652C22.7894 73.0027 22.7817 72.1413 22.7723 71.2789C22.7733 70.7295 22.7752 70.1802 22.778 69.6309C22.7751 69.3739 22.7721 69.1169 22.769 68.8521C22.7929 67.6037 22.8665 67.0014 23.5921 65.9503C24.6289 65.2543 25.1979 65.2125 26.439 65.2398C26.8176 65.2445 27.1962 65.2492 27.5863 65.2541C27.9832 65.2663 28.3801 65.2787 28.777 65.2913C29.1797 65.2987 29.5823 65.3053 29.9849 65.3113C30.9681 65.3286 31.9507 65.3527 32.9335 65.3829C32.9477 65.1952 32.9618 65.0075 32.9764 64.8141C33.1089 63.269 33.335 61.8807 33.8307 60.4024C34.2473 59.2524 34.2473 59.2524 34.3984 58.0586C33.8298 57.637 33.8298 57.637 33.0937 57.2198C32.8214 57.0564 32.5492 56.8931 32.2686 56.7248C31.6914 56.384 31.1138 56.0437 30.536 55.704C27.6779 53.9872 27.6779 53.9872 27.0741 52.7852C27.1786 51.2504 27.5835 50.1399 28.3055 48.7912C28.3992 48.6155 28.4928 48.4398 28.5893 48.2588C28.7868 47.8902 28.9858 47.5224 29.1863 47.1554C29.4903 46.5978 29.788 46.0372 30.0851 45.4759C30.2789 45.1159 30.473 44.7562 30.6676 44.3967C30.8422 44.0737 31.0167 43.7508 31.1966 43.4181C31.9073 42.3027 32.5827 41.2585 33.8958 40.8668C36.0497 40.8902 37.5668 41.621 39.4154 42.6778C39.6957 42.8315 39.9759 42.9852 40.2646 43.1436C40.9491 43.52 41.63 43.9018 42.3085 44.2891C42.5257 44.072 42.7428 43.8548 42.9666 43.6311C44.4074 42.1903 45.8482 40.7494 47.289 39.3086C47.1825 39.1137 47.076 38.9188 46.9663 38.718C46.4841 37.8304 46.0076 36.94 45.5312 36.0494C45.3635 35.7427 45.1958 35.436 45.0231 35.1201C44.8644 34.8218 44.7058 34.5234 44.5424 34.216C44.3951 33.9429 44.2478 33.6698 44.0961 33.3885C43.6091 32.154 43.5829 31.2719 44.0926 30.0426C44.7965 29.1686 45.599 28.7016 46.576 28.1896C46.8549 28.0376 46.8549 28.0376 47.1395 27.8827C47.7307 27.5617 48.3245 27.2462 48.9186 26.9307C49.3192 26.7144 49.7195 26.4977 50.1197 26.2807C54.4974 23.912 54.4974 23.912 56.371 24.3672C57.2736 25.0966 57.8193 26.0216 58.4218 27.0039C58.5922 27.2793 58.5922 27.2793 58.7661 27.5601C59.5491 28.8289 60.3095 30.1094 61.0585 31.3985C61.264 31.3418 61.4694 31.2852 61.6811 31.2268C62.5472 30.9891 63.4142 30.7544 64.2812 30.5196C64.6148 30.4261 64.6148 30.4261 64.9552 30.3307C66.1336 30.0127 67.1674 29.9114 68.3827 29.9336C68.3751 29.6839 68.3674 29.4342 68.3595 29.177C68.3344 28.2461 68.3161 27.3153 68.3023 26.3842C68.2949 25.9821 68.2849 25.58 68.2722 25.178C68.2544 24.5985 68.2469 24.0188 68.2397 23.4391C68.232 23.0908 68.2243 22.7426 68.2164 22.3838C68.3827 21.4375 68.3827 21.4375 68.9501 20.5922C70.1917 19.7351 71.1539 19.7611 72.6308 19.7782ZM71.8984 23.4883C71.8017 26.4854 71.705 29.4825 71.6054 32.5704C69.4997 33.2723 67.4046 33.9129 65.2699 34.5113C64.9497 34.6027 64.6294 34.6941 64.2995 34.7882C63.4168 35.0361 62.5326 35.2729 61.6445 35.5C61.3268 35.5832 61.3268 35.5832 61.0027 35.668C60.4657 35.7816 60.4657 35.7816 59.5937 35.793C58.7124 35.0438 58.1351 34.2309 57.5589 33.2353C57.4067 32.976 57.2545 32.7167 57.0977 32.4496C56.9425 32.1813 56.7873 31.913 56.6274 31.6365C56.3167 31.1005 56.0047 30.5653 55.6912 30.0309C55.5545 29.7944 55.4177 29.5579 55.2768 29.3143C54.9445 28.7207 54.9445 28.7207 54.3202 28.4688C53.6535 28.762 53.6535 28.762 52.9172 29.2092C52.6415 29.3688 52.3658 29.5283 52.0818 29.6927C51.7932 29.8629 51.5047 30.033 51.2074 30.2083C50.9166 30.3773 50.6259 30.5463 50.3262 30.7204C49.6055 31.1397 48.8862 31.5611 48.1679 31.9844C48.421 32.4905 48.674 32.9967 48.9273 33.5027C49.142 33.9324 49.3561 34.3624 49.5697 34.7926C50.036 35.7303 50.5064 36.6622 51.0037 37.584C51.1374 37.8329 51.2711 38.0818 51.4089 38.3382C51.5862 38.6571 51.5862 38.6571 51.7671 38.9825C52.0427 39.7973 51.9217 40.2447 51.6835 41.0664C51.2664 41.585 51.2664 41.585 50.7325 42.0575C50.5368 42.2348 50.3411 42.412 50.1395 42.5947C49.93 42.7792 49.7204 42.9637 49.5046 43.1539C47.7684 44.7211 46.1813 46.3032 44.6855 48.1046C43.9444 48.7977 43.606 48.9015 42.6015 48.9766C41.7628 48.6602 41.7628 48.6602 40.8563 48.1721C40.5305 47.9993 40.2048 47.8265 39.8692 47.6485C39.3636 47.3724 39.3636 47.3724 38.8478 47.0906C38.5018 46.9054 38.1557 46.7206 37.8093 46.5362C36.9632 46.0838 36.1194 45.6276 35.2773 45.168C34.5757 45.8125 34.1274 46.4518 33.6717 47.2863C33.4776 47.6389 33.4776 47.6389 33.2797 47.9987C33.1473 48.2429 33.015 48.487 32.8786 48.7386C32.7428 48.9861 32.607 49.2337 32.4672 49.4887C32.133 50.0985 31.8002 50.7091 31.4687 51.3204C32.5112 52.5181 33.7645 53.1916 35.1308 53.9571C38.1777 55.6642 38.1777 55.6642 38.7929 56.5938C38.7827 57.3685 38.6935 57.9049 38.4999 58.6446C38.4317 58.9115 38.3634 59.1784 38.2931 59.4534C38.0427 60.3954 37.7786 61.3328 37.5112 62.2701C37.422 62.588 37.3329 62.906 37.2411 63.2337C36.7289 65.0458 36.167 66.8153 35.5702 68.6055C31.0746 68.7505 31.0746 68.7505 26.4882 68.8985C26.4882 71.6055 26.4882 74.3125 26.4882 77.1016C29.4853 77.1983 32.4823 77.295 35.5702 77.3946C36.2721 79.5003 36.9128 81.5953 37.5112 83.73C37.6025 84.0503 37.6939 84.3705 37.7881 84.7005C38.036 85.5831 38.2728 86.4673 38.4999 87.3555C38.5831 87.6732 38.5831 87.6732 38.6679 87.9972C38.7814 88.5343 38.7814 88.5343 38.7929 89.4063C38.0437 90.2876 37.2308 90.8649 36.2351 91.4411C35.9759 91.5932 35.7166 91.7454 35.4495 91.9023C35.1812 92.0575 34.9129 92.2127 34.6364 92.3726C34.1004 92.6833 33.5651 92.9952 33.0308 93.3087C32.6761 93.5139 32.6761 93.5139 32.3142 93.7231C31.7206 94.0554 31.7206 94.0554 31.4687 94.6797C31.7618 95.3465 31.7618 95.3465 32.2091 96.0828C32.4484 96.4963 32.4484 96.4963 32.6926 96.9182C32.8628 97.2067 33.0329 97.4953 33.2082 97.7925C33.3772 98.0833 33.5462 98.3741 33.7203 98.6737C34.1396 99.3944 34.561 100.114 34.9843 100.832C35.4904 100.579 35.9965 100.326 36.5025 100.073C36.9323 99.8579 37.3625 99.644 37.7931 99.4309C38.731 98.9656 39.6587 98.4956 40.5736 97.9859C40.8198 97.8496 41.0661 97.7133 41.3197 97.5728C41.529 97.4512 41.7382 97.3296 41.9537 97.2043C42.9552 96.9247 43.4314 97.1507 44.3593 97.6094C45.0757 98.2388 45.693 98.9417 46.3185 99.6602C47.8245 101.342 49.3566 102.858 51.0941 104.304C51.7943 105.052 51.9015 105.385 51.9765 106.398C51.6601 107.237 51.6601 107.237 51.172 108.144C50.9992 108.469 50.8264 108.795 50.6484 109.131C50.4643 109.468 50.2802 109.805 50.0905 110.152C49.9053 110.498 49.7205 110.844 49.536 111.191C49.0836 112.037 48.6275 112.881 48.1679 113.723C48.8124 114.424 49.4517 114.873 50.2862 115.328C50.5213 115.458 50.7564 115.587 50.9986 115.72C51.2427 115.853 51.4869 115.985 51.7384 116.121C51.986 116.257 52.2336 116.393 52.4886 116.533C53.0984 116.867 53.709 117.2 54.3202 117.531C55.1675 116.74 55.758 115.989 56.3138 114.974C56.4607 114.714 56.6076 114.455 56.759 114.188C57.0628 113.644 57.3634 113.099 57.6608 112.551C58.7656 110.62 58.7656 110.62 59.7859 110.114C61.3107 110.259 62.7148 110.699 64.1713 111.159C64.7731 111.345 65.375 111.529 65.9772 111.713C66.2741 111.804 66.571 111.896 66.877 111.989C68.1224 112.353 69.3795 112.657 70.6422 112.955C71.3124 113.137 71.3124 113.137 71.6054 113.43C71.6519 114.101 71.679 114.773 71.6981 115.445C71.7042 115.646 71.7103 115.847 71.7165 116.055C71.7357 116.699 71.753 117.344 71.7702 117.989C71.7828 118.425 71.7956 118.861 71.8085 119.298C71.8402 120.369 71.8692 121.44 71.8984 122.512C74.6054 122.512 77.3124 122.512 80.1015 122.512C80.1982 119.515 80.2948 116.518 80.3945 113.43C82.5002 112.728 84.5952 112.087 86.7299 111.489C87.0502 111.397 87.3704 111.306 87.7004 111.212C88.583 110.964 89.4672 110.727 90.3554 110.5C90.5672 110.445 90.7789 110.389 90.9971 110.332C91.5341 110.219 91.5341 110.219 92.4062 110.207C93.2874 110.956 93.8648 111.769 94.4409 112.765C94.5931 113.024 94.7453 113.283 94.9021 113.55C95.0573 113.819 95.2126 114.087 95.3725 114.364C95.6831 114.9 95.9951 115.435 96.3086 115.969C96.4454 116.206 96.5821 116.442 96.723 116.686C97.0553 117.279 97.0553 117.279 97.6796 117.531C98.3122 117.276 98.3122 117.276 99.0083 116.876C99.2694 116.732 99.5306 116.588 99.7996 116.44C100.073 116.287 100.346 116.133 100.628 115.975C101.039 115.75 101.039 115.75 101.459 115.52C102.865 114.848 102.865 114.848 103.832 113.723C103.505 112.966 103.505 112.966 103.017 112.115C102.843 111.793 102.669 111.471 102.49 111.139C102.116 110.459 101.742 109.78 101.366 109.102C101.192 108.779 101.018 108.456 100.838 108.123C100.675 107.828 100.512 107.532 100.344 107.228C99.9771 106.279 99.9625 105.879 100.316 104.934C100.733 104.415 100.733 104.415 101.267 103.943C101.463 103.765 101.659 103.588 101.86 103.405C102.07 103.221 102.279 103.036 102.495 102.846C104.231 101.279 105.819 99.6969 107.314 97.8955C108.055 97.2024 108.394 97.0986 109.398 97.0235C110.237 97.3398 110.237 97.3398 111.144 97.828C111.469 98.0008 111.795 98.1736 112.131 98.3516C112.468 98.5357 112.805 98.7198 113.152 98.9095C113.498 99.0947 113.844 99.2795 114.191 99.4639C115.037 99.9163 115.88 100.372 116.723 100.832C117.424 100.188 117.872 99.5483 118.328 98.7138C118.458 98.4787 118.587 98.2436 118.72 98.0014C118.853 97.7572 118.985 97.5131 119.121 97.2615C119.257 97.014 119.393 96.7664 119.533 96.5114C119.867 95.9015 120.2 95.291 120.531 94.6797C119.74 93.8324 118.989 93.2419 117.973 92.6862C117.714 92.5393 117.455 92.3924 117.188 92.241C116.644 91.9372 116.099 91.6366 115.551 91.3392C113.62 90.2344 113.62 90.2344 113.114 89.214C113.259 87.6893 113.699 86.2852 114.159 84.8287C114.344 84.2269 114.529 83.625 114.713 83.0228C114.804 82.7258 114.895 82.4289 114.989 82.123C115.353 80.8775 115.657 79.6205 115.954 78.3577C116.137 77.6875 116.137 77.6875 116.43 77.3946C117.1 77.348 117.773 77.3209 118.445 77.3019C118.646 77.2958 118.847 77.2897 119.055 77.2834C119.699 77.2642 120.344 77.247 120.989 77.2298C121.425 77.2171 121.861 77.2044 122.298 77.1914C123.369 77.1598 124.44 77.1308 125.512 77.1016C125.512 74.3946 125.512 71.6875 125.512 68.8985C122.515 68.8018 119.517 68.7051 116.43 68.6055C115.728 66.4998 115.087 64.4048 114.489 62.2701C114.397 61.9498 114.306 61.6296 114.212 61.2996C113.964 60.417 113.727 59.5328 113.5 58.6446C113.445 58.4328 113.389 58.221 113.332 58.0028C113.218 57.4658 113.218 57.4658 113.207 56.5938C113.956 55.7125 114.769 55.1352 115.765 54.559C116.024 54.4068 116.283 54.2546 116.55 54.0978C116.819 53.9426 117.087 53.7874 117.363 53.6275C117.899 53.3168 118.435 53.0049 118.969 52.6914C119.206 52.5546 119.442 52.4178 119.686 52.2769C120.279 51.9447 120.279 51.9447 120.531 51.3204C120.276 50.6878 120.276 50.6878 119.875 49.9917C119.732 49.7305 119.588 49.4694 119.44 49.2003C119.286 48.9271 119.133 48.6539 118.975 48.3724C118.825 48.098 118.675 47.8236 118.52 47.5409C117.848 46.1348 117.848 46.1348 116.723 45.168C115.971 45.5003 115.971 45.5003 115.125 45.9931C114.804 46.1686 114.484 46.344 114.153 46.5247C113.477 46.9003 112.801 47.2787 112.128 47.66C111.806 47.835 111.483 48.01 111.152 48.1904C110.858 48.3549 110.564 48.5194 110.261 48.6889C109.153 49.0583 108.68 48.8911 107.641 48.3907C107.116 47.9672 107.116 47.9672 106.685 47.4751C106.44 47.2029 106.44 47.2029 106.191 46.9251C106.023 46.732 105.855 46.5389 105.681 46.3399C104.175 44.6578 102.643 43.1417 100.906 41.6959C100.206 40.9481 100.098 40.615 100.023 39.6016C100.34 38.763 100.34 38.763 100.828 37.8564C101.001 37.5307 101.173 37.2049 101.351 36.8693C101.536 36.5323 101.72 36.1952 101.909 35.8479C102.095 35.502 102.279 35.1558 102.464 34.8094C102.916 33.9633 103.372 33.1195 103.832 32.2774C103.187 31.5759 102.548 31.1275 101.714 30.6718C101.479 30.5424 101.243 30.4131 101.001 30.2798C100.757 30.1475 100.513 30.0151 100.261 29.8787C100.014 29.7429 99.7663 29.6072 99.5112 29.4673C98.9014 29.1331 98.2909 28.8003 97.6796 28.4688C96.8323 29.2602 96.2418 30.011 95.686 31.0265C95.5391 31.2858 95.3922 31.5451 95.2409 31.8122C94.9371 32.3559 94.6365 32.9014 94.3391 33.4487C93.2342 35.38 93.2342 35.38 92.2139 35.8857C90.6892 35.7414 89.2851 35.3011 87.8285 34.8409C87.2268 34.6555 86.6248 34.4709 86.0227 34.287C85.7257 34.1958 85.4288 34.1046 85.1229 34.0106C83.8774 33.6472 82.6203 33.3426 81.3576 33.0456C80.6874 32.8633 80.6874 32.8633 80.3945 32.5704C80.3479 31.8995 80.3208 31.2273 80.3018 30.5551C80.2957 30.3539 80.2896 30.1527 80.2833 29.9454C80.2641 29.3007 80.2469 28.6559 80.2297 28.011C80.217 27.5748 80.2042 27.1386 80.1913 26.7024C80.1597 25.6311 80.1306 24.5597 80.1015 23.4883C77.3945 23.4883 74.6874 23.4883 71.8984 23.4883Z" fill="black"/>
<path d="M72.4235 0.577242C72.6873 0.575174 72.9511 0.573105 73.2229 0.570974C84.3071 0.50379 84.3072 0.50379 89.1834 1.51566C89.6201 1.6053 89.6201 1.6053 90.0656 1.69676C96.5126 3.06018 102.592 5.08577 108.519 7.96097C108.712 8.05331 108.904 8.14564 109.102 8.24078C114.64 10.9348 119.704 14.6172 124.236 18.7619C124.827 19.2974 125.43 19.8096 126.043 20.3206C133.614 26.9643 139.723 36.4267 143.383 45.7539C143.993 44.8378 144.356 43.9734 144.764 42.9513C144.918 42.5696 145.072 42.1879 145.227 41.8063C145.468 41.2063 145.709 40.6059 145.948 40.0048C146.18 39.4234 146.414 38.8435 146.65 38.2638C146.858 37.7429 146.858 37.7429 147.071 37.2114C147.484 36.3789 147.484 36.3789 148.363 35.793C150.254 35.9257 150.254 35.9257 151 36.6719C150.931 38.7706 150.346 40.48 149.556 42.4088C149.384 42.838 149.384 42.838 149.208 43.2758C148.967 43.8765 148.724 44.4764 148.48 45.0758C148.106 45.9929 147.738 46.912 147.371 47.8316C147.135 48.4167 146.899 49.0017 146.663 49.5866C146.553 49.8606 146.443 50.1347 146.329 50.417C146.225 50.6724 146.12 50.9277 146.013 51.1908C145.922 51.4145 145.831 51.6381 145.737 51.8685C145.402 52.5576 145.079 53.1024 144.555 53.6641C142.721 54.1429 140.929 53.4083 139.264 52.6902C139.021 52.5896 138.778 52.4891 138.528 52.3854C137.758 52.0652 136.991 51.7386 136.223 51.4119C135.71 51.1981 135.196 50.9846 134.682 50.7716C128.584 48.2306 128.584 48.2306 127.562 47.5117C127.159 46.468 127.159 46.468 127.269 45.461C127.69 44.7285 127.69 44.7285 128.441 44.2891C130.087 44.3941 131.401 44.7511 132.936 45.3797C133.128 45.4573 133.32 45.535 133.518 45.6149C134.121 45.8601 134.724 46.109 135.326 46.3582C135.739 46.5265 136.151 46.6945 136.564 46.8623C137.569 47.2711 138.572 47.6835 139.574 48.0977C138.795 46.02 138.022 43.9587 137.011 41.982C136.912 41.7873 136.813 41.5927 136.711 41.3922C128.413 25.2874 114.107 13.335 96.9178 7.71177C78.8139 1.95407 59.9182 4.2704 43.139 12.7991C35.438 16.8353 28.3205 22.8112 22.9725 29.6407C22.7376 29.9326 22.5027 30.2245 22.2607 30.5253C17.5614 36.4193 14.1168 43.1593 11.4998 50.2045C10.3848 53.1691 10.3848 53.1691 9.20294 53.9571C8.21153 53.9158 7.64458 53.8314 6.8775 53.188C6.17782 51.624 7.03152 49.8236 7.59891 48.312C7.69923 48.054 7.79954 47.7959 7.90289 47.5301C8.00774 47.2586 8.11259 46.9871 8.22061 46.7074C9.18535 44.2559 10.3031 41.9218 11.5467 39.6016C11.6561 39.3929 11.7655 39.1843 11.8783 38.9693C14.7188 33.5627 18.2255 28.6848 22.3476 24.1784C22.8831 23.587 23.3954 22.9837 23.9063 22.3714C35.5365 9.11775 54.895 0.669313 72.4235 0.577242Z" fill="black"/>
<path d="M9.47275 92.1793C10.7093 92.4973 11.8739 92.9973 13.0505 93.4872C13.4701 93.659 13.4701 93.659 13.8982 93.8343C14.4871 94.0761 15.0756 94.3189 15.6636 94.5628C16.5619 94.9352 17.4616 95.3038 18.3617 95.6719C18.9351 95.9078 19.5085 96.1439 20.0817 96.3803C20.4837 96.5451 20.4837 96.5451 20.8938 96.7133C23.5273 97.8089 23.5273 97.8089 24.4374 98.4883C24.7476 99.5548 24.8429 100.217 24.474 101.271C23.6438 101.858 23.0454 101.738 22.0661 101.61C20.1906 101.187 18.4254 100.379 16.6554 99.6418C16.2441 99.4735 15.8327 99.3055 15.4211 99.1377C14.4212 98.7294 13.423 98.317 12.4256 97.9023C13.359 100.464 14.4185 102.904 15.6849 105.318C15.9344 105.795 15.9344 105.795 16.1889 106.281C17.587 108.907 19.1331 111.349 20.9217 113.723C21.0491 113.895 21.1765 114.067 21.3078 114.244C32.1952 128.892 48.5098 138.128 66.4717 140.864C79.6807 142.739 93.6128 140.768 105.59 134.816C105.835 134.696 106.081 134.575 106.334 134.451C109.901 132.69 113.238 130.747 116.43 128.371C116.603 128.243 116.777 128.115 116.956 127.982C124.136 122.644 129.979 116.078 134.559 108.409C134.858 107.91 135.167 107.417 135.476 106.925C137.978 102.804 139.847 98.1663 141.308 93.5807C141.686 92.7941 142.044 92.4756 142.797 92.043C143.805 92.0636 144.345 92.1599 145.122 92.812C145.822 94.376 144.968 96.1764 144.401 97.688C144.3 97.946 144.2 98.2041 144.097 98.47C143.992 98.7414 143.887 99.0129 143.779 99.2926C142.814 101.744 141.697 104.078 140.453 106.398C140.344 106.607 140.234 106.816 140.121 107.031C137.291 112.418 133.8 117.289 129.693 121.78C129.256 122.26 128.824 122.745 128.398 123.234C117.063 136.185 99.4354 144.015 82.4452 145.363C81.4887 145.406 80.5335 145.418 79.5761 145.423C79.1804 145.426 79.1804 145.426 78.7767 145.429C67.6925 145.496 67.6925 145.496 62.8163 144.484C62.5251 144.425 62.234 144.365 61.9341 144.303C49.162 141.602 37.4329 136.082 27.7641 127.238C27.1728 126.703 26.5695 126.19 25.9571 125.679C18.4947 119.131 12.1465 109.522 8.61704 100.246C8.00525 101.164 7.63104 102.038 7.21514 103.059C7.10037 103.339 7.10037 103.339 6.98329 103.625C6.73961 104.219 6.49718 104.814 6.25498 105.41C6.01165 106.007 5.76805 106.604 5.52353 107.201C5.30232 107.741 5.08221 108.281 4.86216 108.822C4.51548 109.621 4.51548 109.621 4.22251 109.914C3.63771 109.963 3.63771 109.963 2.92246 109.969C2.68718 109.973 2.4519 109.977 2.20949 109.982C1.58579 109.914 1.58579 109.914 0.999851 109.328C0.88627 107.39 1.62821 105.622 2.38001 103.878C2.48806 103.62 2.5961 103.362 2.70743 103.097C3.05055 102.279 3.3984 101.464 3.74643 100.649C3.97792 100.1 4.20909 99.5504 4.43995 99.001C4.95858 97.7687 5.47843 96.537 6.00684 95.3089C6.18009 94.8998 6.34817 94.4884 6.51013 94.0747C7.14568 92.4758 7.69761 91.8598 9.47275 92.1793Z" fill="black"/>
<path d="M75.8537 41.2496C76.0475 41.2498 76.2414 41.2501 76.4411 41.2503C84.2024 41.2842 90.8718 43.9324 96.801 48.9766C97.0136 49.1432 97.2262 49.3097 97.4453 49.4813C102.337 53.4769 105.54 59.6357 107.055 65.6758C107.136 65.9929 107.136 65.9929 107.218 66.3163C107.718 68.4881 107.754 70.6319 107.751 72.8536C107.75 73.0474 107.75 73.2412 107.75 73.441C107.716 81.2023 105.068 87.8717 100.024 93.8008C99.8571 94.0135 99.6905 94.2261 99.5189 94.4451C95.034 99.9355 88.0275 103.187 81.2027 104.535C72.4951 105.368 63.661 103.966 56.7009 98.3419C56.1985 97.9046 55.6978 97.4653 55.1994 97.0235C54.9815 96.8509 54.7636 96.6783 54.5391 96.5005C49.6513 92.5221 46.4561 86.3486 44.9455 80.3243C44.8916 80.1129 44.8377 79.9016 44.7821 79.6838C44.2823 77.512 44.2465 75.3682 44.2497 73.1465C44.2499 72.9527 44.2502 72.7589 44.2505 72.5592C44.2843 64.7978 46.9325 58.1284 51.9767 52.1993C52.1433 51.9867 52.3098 51.774 52.4814 51.555C56.477 46.6637 62.6359 43.46 68.676 41.9454C68.993 41.8645 68.993 41.8645 69.3164 41.782C71.4882 41.2821 73.632 41.2463 75.8537 41.2496ZM57.2502 52.1993C56.8769 52.5375 56.8769 52.5375 56.496 52.8825C52.0501 57.0969 48.4771 63.484 48.1209 69.7258C47.9928 79.1168 49.9706 86.3512 56.6459 93.2881C62.1305 98.6213 69.2983 101.074 76.8516 101.134C80.8627 100.966 84.6867 99.9236 88.3049 98.1954C88.5753 98.0662 88.8457 97.9371 89.1243 97.804C95.2642 94.6646 100.364 88.7851 102.538 82.2194C104.865 74.6592 104.404 66.8376 100.729 59.8016C96.9394 53.0242 91.0471 48.2717 83.6723 45.9554C74.3759 43.4742 64.346 45.6175 57.2502 52.1993Z" fill="black"/>
<path d="M76.8791 52.1992C77.4284 52.5471 77.4284 52.5471 77.758 53.0781C77.8129 53.8655 77.8129 53.8655 77.758 54.543C78.0903 54.6034 78.4226 54.6638 78.7651 54.7261C81.2981 55.3705 83.3236 57.108 84.7892 59.2305C86.0184 61.3506 86.2638 63.5473 85.9611 65.9688C85.3752 66.5547 85.3752 66.5547 84.3681 66.6462C83.3244 66.5547 83.3244 66.5547 82.846 66.2159C82.3121 65.496 82.2017 64.8488 82.0243 63.9729C81.481 61.6485 80.5228 60.3419 78.6369 58.9375C78.3468 58.8408 78.0568 58.7441 77.758 58.6445C77.758 62.8018 77.758 66.959 77.758 71.2422C78.6281 71.3872 78.6281 71.3872 79.5158 71.5352C82.2148 72.5473 84.0093 74.3031 85.3752 76.8086C86.4254 79.3128 86.4339 82.8876 85.54 85.4512C84.2838 88.0121 82.1723 90.1094 79.5158 91.1641C78.4721 91.4021 78.4721 91.4021 77.758 91.457C77.7036 91.9555 77.7036 91.9555 77.6481 92.4641C77.5877 92.8085 77.5273 93.153 77.465 93.5078C76.6451 93.9178 76.028 93.8748 75.1213 93.8008C74.5719 93.4529 74.5719 93.4529 74.2424 92.9219C74.1874 92.1345 74.1874 92.1345 74.2424 91.457C73.91 91.3966 73.5777 91.3362 73.2353 91.2739C70.7022 90.6295 68.6767 88.892 67.2111 86.7695C65.982 84.6494 65.7365 82.4527 66.0392 80.0313C66.6252 79.4453 66.6252 79.4453 67.6322 79.3538C68.6759 79.4453 68.6759 79.4453 69.1543 79.7841C69.6882 80.504 69.7986 81.1512 69.976 82.0271C70.5193 84.3515 71.4775 85.6581 73.3634 87.0625C73.7985 87.2075 73.7985 87.2075 74.2424 87.3555C74.2424 83.1983 74.2424 79.041 74.2424 74.7578C73.6623 74.6611 73.0822 74.5645 72.4845 74.4649C69.9377 73.5098 67.8435 71.7558 66.685 69.279C66.0613 67.7798 65.8887 66.4492 65.9111 64.8335C65.9139 64.6018 65.9168 64.3701 65.9197 64.1314C66.0124 61.0713 67.0174 59.1601 69.1337 56.9462C70.6316 55.5924 72.2001 54.7001 74.2424 54.543C74.2786 54.2106 74.3149 53.8783 74.3522 53.5359C74.4429 53.0193 74.4429 53.0193 74.5353 52.4922C75.3553 52.0822 75.9723 52.1252 76.8791 52.1992ZM71.3413 60.3646C70.0017 61.7241 69.7951 62.7824 69.738 64.6504C69.7886 66.588 70.1298 67.6544 71.4408 69.0999C72.6595 70.31 72.6595 70.31 74.2424 70.6563C74.2424 66.6924 74.2424 62.7285 74.2424 58.6445C72.8932 58.6445 72.2954 59.4725 71.3413 60.3646ZM77.758 75.3438C77.758 79.3076 77.758 83.2715 77.758 87.3555C79.573 86.9017 80.7391 85.7133 81.8595 84.2427C82.4231 82.3407 82.4429 80.3012 81.8046 78.4199C80.9275 77.2102 79.9042 76.1464 78.6369 75.3438C78.3468 75.3438 78.0568 75.3438 77.758 75.3438Z" fill="black"/>
</svg>
