<svg width="200" height="150" viewBox="0 0 200 150" fill="none" xmlns="http://www.w3.org/2000/svg">
<path d="M129.633 3.52101C130.224 3.74234 130.224 3.74234 130.826 3.96814C141.383 8.16544 149.161 16.1516 153.397 25.3396C155.392 30.0694 156.26 34.724 156.222 39.7524C156.225 40.1459 156.228 40.5395 156.231 40.945C156.226 42.9329 156.084 44.7546 155.618 46.7031C155.149 49.0906 155.915 50.6515 157.123 52.7806C157.491 53.4833 157.858 54.187 158.221 54.8917C158.399 55.2319 158.576 55.5721 158.759 55.9226C161.186 60.8075 162.942 66.6745 162.692 72.003C162.541 75.982 162.541 75.982 164.817 79.2992C165.9 80.1649 167.03 80.9567 168.201 81.7321C168.756 82.1486 169.309 82.5676 169.857 82.9909C170.096 83.1657 170.335 83.3405 170.581 83.5206C171.76 84.4189 172.846 85.3957 173.95 86.3607C175.016 87.2659 176.129 88.1107 177.268 88.9464C179.055 90.2911 179.055 90.2911 179.474 91.5925C179.499 92.8093 179.499 92.8093 178.841 93.7743C177.516 94.8233 177.516 94.8233 176.382 94.8233C174.01 94.1354 172.648 93.1063 170.952 91.5505C170.474 91.1242 169.994 90.6985 169.514 90.2734C169.287 90.0714 169.06 89.8695 168.826 89.6614C167.861 88.8205 166.828 88.0581 165.781 87.2943C164.717 86.4892 163.74 85.612 162.747 84.7427C161.751 83.8979 160.698 83.1204 159.638 82.3366C158.514 81.4731 157.468 80.5488 156.421 79.6172C155.698 78.9827 155.698 78.9827 154.566 78.3754C152.935 78.4262 151.951 79.4472 150.841 80.3685C150.428 80.7034 150.015 81.0382 149.602 81.3729C149.393 81.5437 149.183 81.7145 148.968 81.8905C148.348 82.3911 147.721 82.8827 147.088 83.3712C146.892 83.5226 146.696 83.6741 146.494 83.8302C145.949 84.2502 145.404 84.6702 144.859 85.0902C144.026 85.7024 144.026 85.7024 143.658 86.4315C144.429 86.6531 145.201 86.8746 145.995 87.1029C146.06 86.8675 146.124 86.6321 146.19 86.3896C147.324 84.5169 149.552 83.3939 151.839 82.7392C154.954 82.3475 157.445 82.8672 160.02 84.4175C161.846 85.8476 162.993 87.3185 163.267 89.4696C163.308 92.4133 162.857 94.1485 160.702 96.4177C158.117 98.2397 156.037 98.7489 152.664 98.6415C149.692 98.3335 148.072 97.1097 146.169 95.1917C145.606 94.4876 145.606 94.4876 145.283 93.6301C144.645 92.4825 143.864 92.2604 142.538 91.7393C142.129 91.5753 141.72 91.4113 141.299 91.2424C140.921 91.0948 140.542 90.9473 140.152 90.7952C139.631 90.5738 139.111 90.3511 138.593 90.1239C138.264 90.4078 137.935 90.6916 137.595 90.9841C136.52 91.7592 136.32 91.8023 134.819 91.8023C133.539 91.4692 133.145 91.3418 132.36 90.4596C132.192 89.729 132.192 89.729 132.161 88.8927C132.14 88.4432 132.14 88.4432 132.119 87.9847C132.11 87.6729 132.102 87.3611 132.092 87.0399C132.079 86.7243 132.066 86.4086 132.052 86.0834C132.02 85.3045 131.995 84.5253 131.971 83.7462C130.299 83.8569 128.628 83.9677 126.906 84.0818C126.944 84.7513 126.944 84.7513 126.982 85.4342C127.645 98.9695 127.645 98.9695 125.039 102.169C123.661 103.455 122.131 104.474 120.409 105.397C119.178 106.082 118.123 106.9 117.038 107.745C116.504 108.16 115.949 108.554 115.389 108.942C114.704 109.596 114.704 109.596 114.878 110.621C115.175 111.657 115.175 111.657 115.998 112.614C117.809 112.459 118.549 111.899 119.772 110.768C121.747 108.96 121.747 108.96 123.546 108.817C124.958 108.921 124.958 108.921 125.815 109.391C126.894 110.734 126.722 111.994 126.694 113.59C126.694 113.928 126.694 114.265 126.694 114.613C126.693 115.728 126.681 116.843 126.669 117.958C126.666 118.732 126.664 119.505 126.662 120.278C126.656 122.313 126.641 124.348 126.624 126.384C126.608 128.46 126.601 130.537 126.593 132.614C126.576 136.689 126.549 140.763 126.517 144.838C131.659 144.838 136.801 144.838 142.1 144.838C142.077 143.028 142.054 141.217 142.031 139.352C142.021 138.202 142.012 137.051 142.005 135.901C141.993 134.077 141.979 132.253 141.953 130.429C141.931 128.958 141.92 127.487 141.915 126.015C141.911 125.455 141.904 124.896 141.894 124.336C141.795 118.887 141.795 118.887 143.428 117.123C145.664 115.387 147.927 115.096 150.853 115.121C151.196 115.12 151.538 115.118 151.891 115.117C152.612 115.116 153.332 115.118 154.052 115.124C155.148 115.131 156.242 115.124 157.337 115.116C158.041 115.116 158.744 115.118 159.448 115.121C159.771 115.118 160.095 115.115 160.428 115.113C162.655 115.143 164.403 115.541 166.253 116.642C168.141 118.603 168.25 120.296 168.245 122.774C168.245 123.013 168.245 123.253 168.245 123.499C168.245 124.286 168.242 125.072 168.239 125.858C168.238 126.405 168.238 126.952 168.237 127.499C168.236 128.936 168.232 130.372 168.228 131.809C168.223 133.534 168.221 135.259 168.219 136.984C168.215 139.602 168.208 142.22 168.201 144.838C172.572 144.838 176.943 144.838 181.447 144.838C181.438 143.798 181.43 142.757 181.422 141.686C181.396 138.252 181.379 134.818 181.366 131.384C181.358 129.302 181.347 127.219 181.329 125.137C181.312 123.128 181.303 121.119 181.299 119.11C181.296 118.343 181.29 117.576 181.282 116.809C181.271 115.736 181.269 114.663 181.27 113.59C181.264 113.272 181.258 112.953 181.253 112.625C181.268 110.486 181.268 110.486 182.143 109.397C183.196 108.816 184.084 108.702 185.329 108.757C186.762 109.054 187.584 109.879 188.556 110.789C189.28 111.449 189.986 112.024 190.796 112.614C191.674 112.669 191.674 112.669 192.355 112.278C193.13 111.529 193.13 111.529 193.523 110.6C193.058 109.486 192.306 108.824 191.305 108.034C191.026 107.806 190.747 107.579 190.46 107.345C189.873 106.872 189.283 106.402 188.689 105.936C186.564 104.187 186.564 104.187 186.281 102.591C186.511 101.537 186.511 101.537 187.12 100.718C188.428 99.9956 189.261 100.071 190.796 100.194C191.877 100.749 191.877 100.749 192.89 101.516C193.255 101.791 193.619 102.066 193.995 102.35C194.354 102.635 194.712 102.921 195.082 103.215C195.416 103.48 195.751 103.745 196.095 104.017C198.399 105.919 199.767 107.326 200 110.138C199.933 112.574 198.743 114.41 197.03 116.306C194.893 117.912 193.311 118.392 190.516 118.409C189.474 118.305 188.645 117.996 187.68 117.649C187.681 117.998 187.683 118.346 187.685 118.706C187.701 121.995 187.712 125.284 187.72 128.574C187.724 130.265 187.73 131.955 187.739 133.646C187.747 135.279 187.752 136.911 187.754 138.543C187.755 139.166 187.758 139.788 187.762 140.41C187.768 141.283 187.769 142.156 187.768 143.028C187.771 143.285 187.774 143.541 187.777 143.805C187.768 145.829 187.506 147.272 185.927 148.803C184.461 149.908 183.724 149.916 181.801 149.92C181.294 149.922 180.788 149.924 180.266 149.926C179.702 149.927 179.137 149.927 178.573 149.927C177.981 149.929 177.389 149.931 176.797 149.932C175.187 149.937 173.576 149.939 171.965 149.94C170.96 149.941 169.954 149.943 168.948 149.944C165.802 149.949 162.656 149.952 159.509 149.953C155.876 149.955 152.242 149.961 148.608 149.97C145.801 149.978 142.994 149.981 140.187 149.982C138.509 149.982 136.832 149.984 135.155 149.99C133.577 149.995 131.999 149.996 130.421 149.993C129.842 149.993 129.263 149.994 128.684 149.998C127.893 150.002 127.102 149.999 126.311 149.997C125.647 149.997 125.647 149.997 124.97 149.998C123.263 149.818 122.238 149.277 121.146 148.145C120.511 146.859 120.502 145.66 120.505 144.286C120.501 143.997 120.497 143.709 120.493 143.412C120.481 142.462 120.477 141.512 120.474 140.562C120.467 139.902 120.46 139.243 120.453 138.583C120.434 136.848 120.422 135.114 120.412 133.379C120.401 131.609 120.382 129.838 120.365 128.067C120.331 124.594 120.305 121.122 120.283 117.649C119.926 117.812 119.926 117.812 119.56 117.977C117.825 118.689 115.81 118.532 113.979 118.137C111.26 117.169 109.734 115.004 108.529 112.776C108.197 111.918 108.078 111.23 108.061 110.327C108.05 110.062 108.039 109.797 108.027 109.523C108.561 106.739 110.573 105.054 112.93 103.236C113.206 103.017 113.483 102.799 113.767 102.573C114.046 102.353 114.326 102.132 114.613 101.905C114.897 101.676 115.18 101.446 115.472 101.21C116.388 100.53 116.388 100.53 117.46 99.9547C118.942 99.0823 120.067 98.3202 120.485 96.7531C120.795 94.4802 120.699 92.197 120.624 89.9141C120.603 88.8811 120.588 87.8484 120.581 86.8152C120.576 86.1751 120.561 85.535 120.537 84.8952C120.503 82.8651 120.865 81.7204 122.231 80.0538C123.795 78.8291 125.634 78.5197 127.685 78.3754C127.428 77.8216 127.171 77.2677 126.906 76.6971C126.617 76.7823 126.329 76.8676 126.031 76.9554C115.463 79.9313 104.871 79.7788 94.3723 76.7259C93.9238 76.6057 93.4754 76.4854 93.0133 76.3614C92.666 76.2463 92.3187 76.1311 91.9609 76.0124C90.1631 76.0311 89.5826 76.6977 88.343 77.7622C88.0503 78.0255 87.7576 78.2887 87.456 78.56C86.9842 78.97 86.9842 78.97 86.5029 79.3883C85.8201 79.9834 85.1405 80.5812 84.4636 81.1813C83.3919 82.1316 82.3122 83.0747 81.2302 84.0162C79.1279 85.8472 77.0359 87.6868 74.945 89.5274C72.1066 92.0252 69.2617 94.5173 66.4088 97.0028C65.3463 97.9318 64.2901 98.8658 63.2342 99.8004C62.5805 100.372 61.9266 100.943 61.2724 101.514C60.9813 101.775 60.6902 102.035 60.3902 102.304C58.0272 104.349 55.8948 105.149 52.5707 105.621C52.1765 105.678 51.7823 105.736 51.3761 105.795C50.7743 105.878 50.7743 105.878 50.1602 105.963C49.7469 106.023 49.3336 106.082 48.9078 106.144C47.8973 106.289 46.8864 106.431 45.8749 106.572C45.822 106.817 45.7692 107.063 45.7147 107.315C45.4718 108.432 45.223 109.547 44.974 110.663C44.8909 111.049 44.8078 111.435 44.7222 111.833C44.6381 112.206 44.554 112.579 44.4673 112.964C44.3918 113.307 44.3163 113.649 44.2385 114.003C43.775 115.433 42.9661 116.729 41.5896 117.649C38.1348 118.682 33.9628 119.498 30.292 119.327C30.2701 119.634 30.2701 119.634 30.2478 119.946C30.0759 121.922 29.7722 123.861 29.3667 125.81C29.3224 126.034 29.278 126.259 29.2324 126.49C28.7107 128.899 27.6738 130.452 25.6658 132.167C25.3374 132.452 25.0089 132.738 24.6706 133.032C22.6103 134.532 20.6364 134.549 18.0478 134.595C17.5169 134.607 17.5169 134.607 16.9752 134.619C16.2281 134.636 15.4808 134.65 14.7336 134.663C13.5955 134.684 12.4579 134.712 11.32 134.74C10.5921 134.755 9.86423 134.77 9.1363 134.784C8.62973 134.797 8.62973 134.797 8.11292 134.81C5.89647 134.842 3.80459 134.86 1.95494 133.656C0.329661 132.269 0.0224926 131.061 0 129.127C0.0125968 128.637 0.0126027 128.637 0.025454 128.137C0.0259895 127.795 0.026531 127.453 0.0270828 127.101C0.0306005 126.38 0.0397677 125.66 0.0542726 124.94C0.0756294 123.84 0.0782423 122.741 0.0779552 121.641C0.0837001 120.939 0.090512 120.237 0.0984991 119.536C0.10045 119.045 0.100456 119.045 0.102446 118.544C0.109902 118.236 0.117353 117.928 0.125035 117.61C0.12949 117.341 0.133939 117.073 0.138529 116.796C0.501908 114.877 1.73082 113.599 3.28186 112.254C3.46129 112.097 3.64071 111.94 3.82558 111.779C4.41402 111.266 5.00661 110.756 5.59971 110.247C6.01276 109.89 6.42567 109.532 6.83844 109.174C7.70168 108.428 8.56708 107.683 9.434 106.939C10.5438 105.987 11.6474 105.029 12.7493 104.07C13.5995 103.331 14.4532 102.596 15.3081 101.861C15.7165 101.509 16.1238 101.156 16.5298 100.802C17.0975 100.308 17.67 99.8183 18.2439 99.3295C18.5683 99.0501 18.8926 98.7707 19.2268 98.4828C20.2384 97.7929 20.8355 97.5909 22.1109 97.5086C23.5962 97.8658 23.9615 98.0542 24.8379 99.187C25.0571 100.089 25.0571 100.089 24.8379 101.201C23.366 102.998 21.4338 104.448 19.5056 105.869C10.1423 112.355 10.1423 112.355 5.63685 121.476C5.4505 124.13 5.66106 126.773 6.13841 129.397C8.15617 129.343 10.173 129.277 12.1898 129.203C12.8755 129.179 13.5613 129.158 14.2473 129.139C15.2352 129.113 16.222 129.076 17.2093 129.037C17.6672 129.028 17.6672 129.028 18.1343 129.018C19.6978 128.946 20.4035 128.82 21.7004 128.001C22.6047 126.923 22.8444 126.22 23.062 124.91C23.1366 124.502 23.2112 124.094 23.288 123.674C23.3576 123.25 23.4271 122.827 23.4988 122.39C24.4009 117.045 24.4009 117.045 26.0067 115.299C27.9797 114.099 30.3657 113.896 32.7025 113.558C33.2851 113.469 33.2851 113.469 33.8796 113.378C36.7245 112.949 36.7245 112.949 38.0835 112.949C38.1156 112.52 38.1477 112.091 38.1808 111.649C38.3905 109.9 38.747 108.188 39.1548 106.467C39.2112 106.206 39.2675 105.946 39.3256 105.677C39.7543 103.95 40.3236 103.011 41.9792 101.872C43.2497 101.21 44.3306 101.084 45.8017 100.978C53.3566 100.263 57.1483 98.284 62.2431 93.558C62.9155 92.9641 63.59 92.372 64.2664 91.7815C66.0188 90.2425 67.7426 88.6817 69.4613 87.1147C71.2288 85.512 73.0227 83.9316 74.8145 82.3491C78.3096 79.2554 81.7759 76.139 85.2219 73.0047C84.9312 72.8 84.6405 72.5953 84.341 72.3844C83.9577 72.1145 83.5745 71.8445 83.1796 71.5663C82.8006 71.2993 82.4215 71.0323 82.0309 70.7572C78.5936 68.3276 75.6225 65.7419 72.8926 62.7076C72.6478 62.4358 72.403 62.1639 72.1508 61.8838C71.9647 61.6767 71.7786 61.4696 71.5868 61.2563C71.4059 61.4134 71.225 61.5705 71.0386 61.7324C66.6372 65.5544 62.2315 69.3728 57.8209 73.187C55.6881 75.0316 53.5568 76.8775 51.4289 78.7263C49.5743 80.3376 47.717 81.9466 45.8564 83.5528C44.8712 84.4034 43.8875 85.2552 42.907 86.1098C41.8125 87.0636 40.7121 88.012 39.611 88.9601C39.2865 89.2445 38.962 89.529 38.6277 89.822C38.3267 90.0795 38.0258 90.337 37.7157 90.6022C37.3262 90.9397 37.3262 90.9397 36.9289 91.2839C35.992 91.8961 35.3548 92.0581 34.1877 92.1379C31.9911 91.3736 31.9911 91.3736 31.4607 90.4596C31.2659 89.5784 31.2659 89.5784 31.4607 88.4456C33.1933 86.366 35.5011 84.5941 37.6147 82.8065C38.3012 82.2227 38.9877 81.6389 39.6742 81.0551C40.0341 80.7497 40.394 80.4442 40.7648 80.1295C41.8962 79.1689 43.0247 78.2059 44.1526 77.2423C44.3437 77.079 44.5348 76.9157 44.7317 76.7475C45.1221 76.414 45.5124 76.0805 45.9028 75.747C48.5243 73.5073 51.1474 71.2691 53.7792 69.0383C55.5612 67.5279 57.3383 66.0133 59.1099 64.4938C60.0458 63.6914 60.9841 62.8913 61.9283 62.0961C62.9775 61.2106 64.018 60.3182 65.0569 59.4237C65.3709 59.1621 65.6849 58.9005 66.0085 58.6309C67.6645 57.2788 67.6645 57.2788 68.1013 55.4439C67.9659 55.1466 67.8305 54.8492 67.6911 54.5429C67.5514 54.1565 67.4118 53.7701 67.268 53.372C67.1872 53.1658 67.1065 52.9596 67.0233 52.7472C63.0366 42.5447 63.5858 31.4372 69.1193 21.7205C74.6498 12.5577 84.151 5.09187 95.6549 1.95707C106.961 -0.965553 118.846 -0.749813 129.633 3.52101ZM84.8323 13.2554C84.5496 13.448 84.2668 13.6406 83.9755 13.8389C76.8852 18.868 71.7914 27.1866 70.8076 35.074C70.4638 39.6629 70.3066 44.4226 71.9764 48.8365C72.0538 49.0457 72.1312 49.255 72.2109 49.4706C75.4178 57.9712 81.9307 65.2873 91.0655 69.648C93.0943 70.5372 95.1788 71.2862 97.2986 71.9977C97.6356 72.1111 97.9726 72.2245 98.3198 72.3413C102.171 73.536 106.113 73.8062 110.179 73.8019C110.865 73.8022 110.865 73.8022 111.565 73.8025C115.833 73.7565 119.746 73.1592 123.79 71.9977C123.321 69.9886 122.69 68.0931 121.89 66.1654C121.025 64.0006 120.321 61.8396 119.772 59.5989C119.71 59.3493 119.648 59.0997 119.584 58.8425C118.828 55.5945 118.65 52.3314 118.652 49.0253C118.652 48.6897 118.652 48.3541 118.651 48.0084C118.671 45.6483 118.861 43.4182 119.504 41.1161C119.151 40.9854 118.798 40.8547 118.435 40.7201C113.693 38.8804 110.845 36.5841 108.937 32.3087C107.45 28.2636 108.04 24.2088 110.279 20.4474C112.776 16.9862 116.29 15.0184 120.875 14.0566C125.327 13.4586 129.636 14.1342 133.48 16.1926C136.912 18.3516 139.227 21.2107 140.028 24.8203C140.676 29.3103 139.813 33.1031 136.646 36.7524C133.57 39.7021 129.812 41.0938 125.348 41.7874C122.708 50.4097 124.731 61.0166 129.244 68.9767C129.629 69.0875 130.015 69.1982 130.412 69.3124C131.256 68.9068 131.997 68.4974 132.774 68.0116C133 67.8726 133.226 67.7336 133.458 67.5903C142.621 61.8523 147.779 53.9537 149.891 44.4728C150.094 43.3511 150.226 42.2499 150.281 41.1161C150.296 40.8902 150.312 40.6643 150.328 40.4316C150.679 30.9235 146.03 22.1015 138.593 15.2695C131.211 8.73471 121.024 5.37214 110.544 5.11545C100.928 5.35059 92.2698 7.98075 84.8323 13.2554ZM119.115 19.9689C118.524 20.2389 118.524 20.2389 117.922 20.5143C116.065 21.8077 114.453 23.6015 114.05 25.6752C113.789 28.7035 114.069 30.9454 116.071 33.4586C117.733 34.8908 119.513 36.001 121.842 36.4167C121.974 36.2423 122.107 36.0679 122.244 35.8883C124.265 33.382 126.517 32.0066 130.023 31.3816C131.319 31.2406 132.616 31.1318 133.919 31.046C134.781 28.8161 134.704 26.1606 133.626 23.9969C132.208 21.6716 130.297 19.9318 127.34 19.0877C124.433 18.6433 121.699 18.722 119.115 19.9689ZM151.839 56.2212C151.687 56.4817 151.536 56.7422 151.379 57.0106C147.331 63.7464 142.029 68.8066 134.698 73.0047C134.255 73.2595 133.812 73.5143 133.369 73.7692C133.036 73.96 132.703 74.1508 132.36 74.3474C133.574 76.4303 134.91 78.4007 136.499 80.2846C136.786 80.6251 137.072 80.9656 137.367 81.3165C137.781 81.6884 137.781 81.6884 138.204 82.0678C139.802 82.2147 139.802 82.2147 140.827 81.2693C141.223 80.9161 141.614 80.5597 142.002 80.2007C142.419 79.8281 142.836 79.4561 143.255 79.0848C143.558 78.8139 143.558 78.8139 143.868 78.5375C145.03 77.5217 146.291 76.6105 147.554 75.6901C147.914 75.4103 147.914 75.4103 148.281 75.125C148.515 74.9445 148.749 74.7641 148.99 74.5782C149.193 74.4202 149.395 74.2623 149.603 74.0996C151.24 73.076 152.699 72.9251 154.688 72.9628C155.104 72.9688 155.52 72.9749 155.949 72.9811C156.422 72.9928 156.422 72.9928 156.903 73.0047C156.317 67.1849 154.908 61.6046 152.229 56.2212C152.1 56.2212 151.971 56.2212 151.839 56.2212ZM154.542 91.9701C154.184 92.1259 153.826 92.2816 153.457 92.4421C153.18 92.5633 152.903 92.6844 152.618 92.8093C153.328 93.1911 153.328 93.1911 154.176 93.4806C155.443 93.1449 155.443 93.1449 156.514 92.4736C156.888 91.7764 156.888 91.7764 156.903 91.1309C156.084 91.1309 155.251 91.6607 154.542 91.9701ZM148.333 120.67C148.333 128.645 148.333 136.621 148.333 144.838C152.832 144.838 157.332 144.838 161.968 144.838C161.968 136.863 161.968 128.887 161.968 120.67C157.468 120.67 152.969 120.67 148.333 120.67Z" fill="black"/>
</svg>
