<svg width="180" height="150" viewBox="0 0 180 150" fill="none" xmlns="http://www.w3.org/2000/svg">
<g clip-path="url(#clip0_581_635)">
<path d="M0 5.77332e-05C9.97734 5.77332e-05 19.9547 5.77332e-05 30.2344 5.77332e-05C30.2344 1.54693 30.2344 3.09381 30.2344 4.68756C35.0105 4.81065 38.3278 3.45415 42.4961 1.59615C45.735 0.344367 48.4336 -0.172525 52.0117 -0.151576C52.4495 -0.15363 52.8874 -0.155683 53.3385 -0.157799C54.5285 -0.162044 55.7182 -0.16109 56.9082 -0.157355C58.1622 -0.154361 59.4163 -0.157147 60.6703 -0.158979C62.7767 -0.161105 64.8831 -0.158321 66.9895 -0.152721C69.4113 -0.146356 71.8329 -0.148402 74.2547 -0.154861C76.3463 -0.160213 78.4379 -0.160913 80.5295 -0.157863C81.7733 -0.156052 83.0169 -0.155745 84.2607 -0.159663C90.4003 -0.176377 95.9562 -0.161463 101.47 2.34381C101.804 2.48033 101.804 2.48033 102.145 2.61961C105.763 4.22173 108.581 6.79156 110.941 9.52521C115.236 14.4572 120.123 19.3661 127.663 20.4099C130.926 20.7892 134.206 20.8755 137.497 20.8947C137.916 20.8976 137.916 20.8976 138.344 20.9005C143.169 20.9208 147.975 20.711 152.798 20.5445C166.263 20.2363 166.263 20.2363 180 19.9219C180 41.4815 180 63.0411 180 85.254C138.35 85.254 96.7008 85.254 53.7891 85.254C53.7891 74.7159 53.7891 64.1778 53.7891 53.3204C51.9328 53.127 50.0766 52.9337 48.1641 52.7344C44.0633 51.9411 39.9857 50.6797 36.5707 48.5734C35.2876 47.9379 34.1917 47.8534 32.7393 47.8272C31.9126 47.803 31.086 47.7789 30.2344 47.754C30.2344 50.171 30.2344 52.588 30.2344 55.0782C20.257 55.0782 10.2797 55.0782 0 55.0782C0 36.9024 0 18.7266 0 5.77332e-05ZM6.32812 5.27349C6.32812 19.9688 6.32812 34.6641 6.32812 49.8047C12.1289 49.8047 17.9297 49.8047 23.9062 49.8047C23.9062 35.1094 23.9062 20.4141 23.9062 5.27349C18.1055 5.27349 12.3047 5.27349 6.32812 5.27349ZM41.2202 8.12838C37.6045 9.81058 34.558 9.74905 30.2344 9.96099C30.2344 20.6924 30.2344 31.4239 30.2344 42.4805C32.6707 42.5772 35.107 42.6739 37.6172 42.7735C39.4405 43.6204 40.9032 44.3913 42.5391 45.4102C46.1105 47.0682 49.7544 47.6734 53.7891 48.0469C53.7891 44.0831 53.7891 40.1192 53.7891 36.0352C52.0488 35.2618 50.3086 34.4883 48.5156 33.6915C47.8195 33.2081 47.1234 32.7247 46.4062 32.2266C46.8774 30.8307 47.8951 29.9696 49.0567 28.9364C49.6449 28.4548 49.6449 28.4548 49.5703 27.8321C49.8046 27.9843 50.0389 28.1365 50.2803 28.2933C54.8029 31.1449 58.6809 32.2622 64.3359 31.9337C67.3862 31.4337 69.627 30.2533 72.0703 28.711C72.7721 28.3187 73.475 27.9278 74.1797 27.5391C74.5139 27.8225 74.5139 27.8225 74.8548 28.1116C76.9603 29.8956 79.0701 31.676 81.1847 33.4525C82.2716 34.3659 83.3567 35.2805 84.4382 36.1984C85.4829 37.0849 86.5318 37.9678 87.5839 38.8483C87.9835 39.184 88.3815 39.5209 88.778 39.8592C91.8261 42.6071 91.8261 42.6071 95.9903 43.6745C97.7264 43.5789 98.8945 43.1238 100.195 42.1876C101.437 40.8264 101.9 39.7051 101.764 37.9845C101.146 35.0233 97.2756 32.6114 94.8257 30.5958C94.3714 30.2188 93.9172 29.8416 93.4633 29.4642C92.2762 28.4783 91.086 27.4951 89.895 26.5124C88.677 25.5064 87.462 24.4979 86.2468 23.4896C83.868 21.5167 81.4859 19.5465 79.1016 17.5782C79.4316 17.254 79.7622 16.9302 80.0931 16.6066C80.2771 16.4262 80.4612 16.2459 80.6508 16.0601C81.3873 15.3597 82.1671 14.711 82.9688 14.0626C84.1861 14.4804 84.7193 14.9527 85.4625 15.8477C87.4208 17.9677 89.402 19.883 92.7294 20.2941C95.8833 20.5556 99.0612 20.4208 102.22 20.284C103.619 20.2293 105.02 20.2058 106.42 20.1794C109.152 20.1234 111.88 20.0339 114.609 19.9219C112.504 17.8394 110.251 15.9008 107.955 13.9649C107.472 13.5563 106.992 13.1459 106.513 12.7335C101.52 8.43046 96.3737 5.22214 88.864 5.09189C88.4855 5.09104 88.107 5.09019 87.7171 5.08932C87.3042 5.08397 86.8913 5.07862 86.4659 5.07311C85.1143 5.05763 83.7629 5.05095 82.4112 5.04576C81.9398 5.04293 81.4684 5.03995 80.9971 5.03683C78.5259 5.02078 76.0548 5.01166 73.5835 5.00806C71.304 5.00453 69.0254 4.98449 66.7462 4.95687C64.7703 4.93379 62.7947 4.9236 60.8187 4.92262C59.6467 4.92179 58.4762 4.91452 57.3042 4.89694C51.095 4.81085 46.6332 5.54846 41.2202 8.12838ZM97.3828 25.1954C98.0789 25.8721 98.775 26.5489 99.4922 27.2462C99.7305 27.4991 99.9688 27.7521 100.214 28.0127C101.659 29.42 102.715 30.0481 104.959 30.1999C105.86 30.2075 106.762 30.2007 107.663 30.1822C108.162 30.1815 108.661 30.1819 109.16 30.1834C110.507 30.1841 111.853 30.1687 113.2 30.1502C114.61 30.1337 116.02 30.1322 117.431 30.1291C120.098 30.1209 122.765 30.0993 125.432 30.0728C128.469 30.0432 131.507 30.0288 134.545 30.0156C140.791 29.988 147.036 29.9417 153.281 29.8829C153.273 30.1994 153.265 30.5159 153.257 30.842C153.251 31.2642 153.245 31.6865 153.239 32.1087C153.233 32.3165 153.227 32.5243 153.221 32.7383C153.192 35.4424 154.299 37.5401 156.489 39.5325C159.958 42.1873 163.472 42.4805 168.047 42.4805C168.047 49.1514 168.047 55.8223 168.047 62.6954C166.307 62.6954 164.566 62.6954 162.773 62.6954C159.367 63.3141 156.737 64.964 154.764 67.3611C152.97 69.9059 153.281 71.8617 153.281 75.0001C129.382 75.0001 105.483 75.0001 80.8594 75.0001C80.8594 73.7432 80.8594 72.4864 80.8594 71.1915C80.3487 69.3403 79.7948 68.0203 78.3984 66.504C78.2099 66.2623 78.0214 66.0206 77.8271 65.7715C76.0312 64.1962 73.8108 63.3742 71.3672 62.6954C69.5109 62.6954 67.6547 62.6954 65.7422 62.6954C65.7422 56.0245 65.7422 49.3536 65.7422 42.4805C66.9023 42.4805 68.0625 42.4805 69.2578 42.4805C73.0839 42.1522 75.6456 40.8439 78.3984 38.6719C77.7042 37.9805 77.003 37.2983 76.2891 36.6212C75.9791 36.3226 75.9791 36.3226 75.6628 36.018C74.5383 34.9195 74.5383 34.9195 72.9712 34.5154C72.249 34.7943 71.5415 35.0994 70.8398 35.4127C67.4818 36.8565 63.8323 36.9689 60.1172 37.2071C60.1172 51.3223 60.1172 65.4376 60.1172 79.9805C97.5902 79.9805 135.063 79.9805 173.672 79.9805C173.672 61.9014 173.672 43.8223 173.672 25.1954C148.496 25.1954 123.321 25.1954 97.3828 25.1954ZM107.578 35.1563C107.578 37.0899 107.578 39.0235 107.578 41.0157C107.462 41.5958 107.346 42.1758 107.227 42.7735C107.52 42.6323 107.813 42.491 108.115 42.3455C112.617 40.24 116.747 39.42 121.882 40.5945C125.845 41.7271 128.735 43.7776 130.693 46.8384C132.679 50.3665 132.693 54.0511 131.133 57.7149C129.352 60.9101 126.642 63.1733 122.695 64.4532C119.009 65.498 114.474 65.5481 110.878 64.2357C106.743 62.4197 104.311 60.2121 102.656 56.543C102.208 55.2536 102.24 54.013 102.239 52.6795C102.234 52.4414 102.23 52.2033 102.226 51.958C102.221 50.2899 102.495 48.7794 103.008 47.168C102.009 47.4389 101.026 47.7083 100.061 48.0538C96.8932 49.0387 93.4034 48.7002 90.3516 47.5892C87.6384 46.3672 85.4548 44.306 83.3203 42.4805C82.1463 42.9141 81.2971 43.4824 80.332 44.1834C77.8447 45.8729 75.0826 46.6242 72.0703 47.461C72.0703 50.8448 72.0703 54.2286 72.0703 57.7149C73.5785 58.1016 75.0867 58.4883 76.6406 58.8868C81.8648 61.2614 84.6075 64.1219 86.4844 68.8477C86.6004 69.1378 86.7164 69.4278 86.8359 69.7266C106.791 69.7266 126.745 69.7266 147.305 69.7266C147.769 68.4698 148.233 67.213 148.711 65.918C151.09 62.2697 154.232 59.8199 158.906 58.3008C159.834 58.1075 160.762 57.9141 161.719 57.7149C161.719 54.3311 161.719 50.9473 161.719 47.461C159.456 46.7359 159.456 46.7359 157.148 45.9962C151.409 43.491 149.172 40.0881 146.953 35.1563C133.959 35.1563 120.966 35.1563 107.578 35.1563ZM110.039 47.754C108.332 49.7749 107.806 51.7578 108.281 54.1993C109.24 56.6994 110.965 58.1345 113.621 59.4361C116.16 60.0606 118.597 60.0976 121.047 59.1981C123.296 58.133 124.702 56.6014 125.662 54.6204C126.174 52.0127 125.821 49.9278 123.935 47.7391C122.263 46.2006 120.192 45.351 117.738 45.0165C114.745 44.8973 111.971 45.8644 110.039 47.754Z" fill="black"/>
<path d="M149.766 99.9023C159.743 99.9023 169.72 99.9023 180 99.9023C180 116.435 180 132.967 180 150C170.023 150 160.045 150 149.766 150C149.65 148.937 149.534 147.873 149.414 146.777C149.01 146.908 149.01 146.908 148.597 147.042C147.376 147.436 146.154 147.83 144.932 148.224C144.507 148.361 144.083 148.498 143.646 148.64C143.238 148.771 142.83 148.902 142.41 149.038C142.035 149.159 141.659 149.28 141.272 149.405C139.748 149.866 138.497 150.037 136.869 150.043C136.461 150.045 136.054 150.047 135.634 150.049C135.188 150.05 134.742 150.051 134.283 150.052C133.808 150.054 133.332 150.056 132.857 150.058C131.297 150.064 129.736 150.067 128.176 150.07C127.638 150.071 127.099 150.072 126.561 150.073C124.03 150.079 121.499 150.083 118.968 150.086C116.053 150.088 113.139 150.096 110.224 150.108C107.967 150.117 105.71 150.121 103.454 150.122C102.108 150.123 100.762 150.125 99.4159 150.133C98.1476 150.14 96.8795 150.141 95.6112 150.138C94.9297 150.138 94.2481 150.143 93.5667 150.149C90.0911 150.132 87.1957 149.479 84.228 147.948C83.739 147.699 83.739 147.699 83.2402 147.446C82.8968 147.268 82.5534 147.089 82.1997 146.906C81.4244 146.51 80.649 146.116 79.8733 145.721C79.6707 145.618 79.4681 145.514 79.2594 145.407C77.0207 144.264 74.7602 143.152 72.4999 142.039C68.5071 140.072 64.5315 138.084 60.5713 136.072C57.2702 134.395 53.9517 132.744 50.625 131.104C46.5576 129.097 42.5058 127.071 38.4711 125.02C36.5642 124.051 34.6537 123.089 32.7268 122.148C28.939 120.29 26.1625 118.507 24.9609 114.844C24.5697 111.433 24.7904 108.376 27.4411 105.588C29.6617 103.616 32.0636 102.36 35.3457 102.176C35.8245 102.167 36.3033 102.16 36.7822 102.155C37.0147 102.146 37.2471 102.138 37.4867 102.129C40.969 102.093 44.0277 103.706 47.0214 105.029C47.3721 105.183 47.7227 105.337 48.0839 105.495C51.0843 106.815 54.0633 108.167 57.0382 109.527C62.4944 112.018 67.9825 114.462 73.4765 116.895C73.5681 116.632 73.6596 116.369 73.7539 116.098C74.8292 113.67 77.1221 112.288 79.835 111.204C82.8361 110.141 86.0721 109.55 89.2172 108.861C89.9955 108.688 90.7738 108.514 91.552 108.34C93.177 107.979 94.8029 107.619 96.4294 107.262C98.5023 106.807 100.573 106.346 102.644 105.883C104.249 105.525 105.855 105.169 107.462 104.814C108.225 104.645 108.988 104.475 109.751 104.305C114.836 103.173 119.762 102.145 125.061 102.168C125.357 102.168 125.653 102.167 125.958 102.167C126.575 102.166 127.191 102.167 127.808 102.17C128.74 102.173 129.672 102.17 130.605 102.166C138.383 102.16 138.383 102.16 141.548 103.564C142.063 103.792 142.063 103.792 142.589 104.025C145.002 105.161 147.385 106.336 149.766 107.52C149.766 105.006 149.766 102.492 149.766 99.9023ZM156.094 105.176C156.094 118.228 156.094 131.279 156.094 144.727C161.894 144.727 167.695 144.727 173.672 144.727C173.672 131.675 173.672 118.623 173.672 105.176C167.871 105.176 162.07 105.176 156.094 105.176ZM31.6406 110.156C31.2211 110.855 31.2064 111.335 31.1791 112.115C31.166 112.358 31.1529 112.601 31.1393 112.851C31.422 114.401 32.2878 115.451 33.7223 116.407C34.3111 116.703 34.3111 116.703 34.9118 117.004C35.1272 117.114 35.3426 117.224 35.5646 117.337C36.2454 117.683 36.9308 118.022 37.6171 118.359C38.0496 118.576 38.4818 118.793 38.9139 119.011C40.0166 119.563 41.1239 120.109 42.2329 120.652C43.4637 121.256 44.6926 121.862 45.9214 122.468C46.1701 122.59 46.4188 122.713 46.675 122.839C49.0802 124.028 51.4685 125.238 53.8549 126.453C57.3632 128.237 60.8965 129.982 64.4472 131.707C67.8536 133.362 71.2325 135.053 74.5992 136.764C78.2568 138.623 81.9365 140.449 85.6319 142.255C86.845 142.854 88.0478 143.466 89.25 144.08C90.4931 144.666 91.4858 144.767 92.888 144.783C93.2681 144.789 93.6483 144.794 94.0399 144.799C94.4573 144.803 94.8747 144.807 95.3048 144.811C95.7446 144.816 96.1845 144.821 96.6376 144.827C100.726 144.872 104.814 144.898 108.902 144.918C111.913 144.932 114.923 144.957 117.933 144.996C120.061 145.023 122.189 145.037 124.317 145.042C125.581 145.045 126.844 145.053 128.107 145.076C135.166 145.198 140.656 144.256 147.05 141.861C147.947 141.527 148.851 141.217 149.766 140.918C149.872 137.444 149.953 133.971 150.002 130.497C150.026 128.883 150.058 127.27 150.11 125.657C150.16 124.1 150.187 122.543 150.199 120.984C150.208 120.391 150.224 119.797 150.249 119.204C150.528 116.203 150.528 116.203 149.325 113.493C148.097 112.601 146.699 112.127 145.195 111.621C144.563 111.306 143.937 110.982 143.322 110.644C142.745 110.347 142.169 110.05 141.592 109.753C141.304 109.601 141.015 109.449 140.718 109.292C137.107 107.45 133.746 107.425 129.605 107.443C128.766 107.446 127.928 107.443 127.09 107.439C126.542 107.44 125.995 107.441 125.447 107.442C125.204 107.441 124.961 107.439 124.71 107.438C119.645 107.477 114.817 108.7 109.966 109.788C109.215 109.955 108.464 110.122 107.712 110.289C106.146 110.638 104.579 110.988 103.013 111.34C101.012 111.789 99.0084 112.234 97.0049 112.677C95.4562 113.021 93.9082 113.367 92.3605 113.713C91.6223 113.878 90.8837 114.043 90.145 114.206C89.1122 114.435 88.0805 114.667 87.049 114.9C86.7474 114.966 86.4458 115.032 86.1351 115.1C83.5136 115.698 80.9469 116.348 79.4531 118.359C78.6765 119.746 78.5793 120.997 79.1015 122.461C79.7827 123.601 80.5783 124.347 81.8261 125.079C84.9995 125.944 88.0617 125.063 91.1645 124.365C91.6789 124.252 92.1933 124.139 92.7078 124.027C94.2435 123.689 95.7777 123.347 97.3117 123.005C98.5664 122.725 99.8214 122.447 101.077 122.169C101.308 122.118 101.54 122.066 101.779 122.013C102.257 121.908 102.735 121.802 103.213 121.696C108.654 120.491 114.093 119.28 119.531 118.066C119.641 118.567 119.751 119.067 119.861 119.568C119.922 119.847 119.983 120.125 120.046 120.412C120.234 121.29 120.412 122.168 120.586 123.047C116.491 123.959 112.396 124.871 108.301 125.782C106.399 126.205 104.498 126.628 102.596 127.052C100.761 127.461 98.9263 127.869 97.0912 128.277C96.391 128.433 95.6909 128.589 94.9908 128.745C94.0105 128.964 93.0299 129.182 92.0493 129.399C91.7598 129.464 91.4702 129.529 91.1719 129.595C87.3657 130.439 82.7191 131.227 79.0837 129.565C78.8575 129.445 78.6314 129.324 78.3984 129.199C78.1541 129.078 77.9099 128.958 77.6582 128.833C75.4563 127.621 73.8392 125.818 73.2391 123.657C72.6398 122.495 71.8201 122.147 70.5157 121.616C70.288 121.518 70.0604 121.419 69.8258 121.318C69.0829 120.998 68.3355 120.686 67.5878 120.374C67.0704 120.152 66.5533 119.93 66.0365 119.707C65.0064 119.263 63.9749 118.822 62.9423 118.382C61.118 117.603 59.3193 116.786 57.5244 115.961C56.9161 115.683 56.3078 115.405 55.6993 115.128C55.3938 114.988 55.0883 114.849 54.7735 114.705C52.5 113.672 50.2206 112.648 47.9369 111.63C46.2352 110.872 44.539 110.11 42.8645 109.311C39.5816 107.685 39.5816 107.685 35.8634 107.355C33.9199 107.808 32.7788 108.821 31.6406 110.156Z" fill="black"/>
</g>
<defs>
<clipPath id="clip0_581_635">
<rect width="180" height="150" fill="white"/>
</clipPath>
</defs>
</svg>
