<svg width="150" height="150" viewBox="0 0 150 150" fill="none" xmlns="http://www.w3.org/2000/svg">
<g clip-path="url(#clip0_581_634)">
<path d="M142.914 25.5799C145.409 28.6451 145.693 31.4621 145.68 35.3396C145.68 35.7412 145.681 36.1428 145.682 36.5444C145.685 37.6424 145.684 38.7403 145.682 39.8382C145.681 41.0245 145.683 42.2108 145.684 43.397C145.687 45.7187 145.686 48.0404 145.685 50.3621C145.683 52.2493 145.683 54.1366 145.684 56.0238C145.684 56.2927 145.684 56.5615 145.684 56.8385C145.684 57.3846 145.684 57.9308 145.685 58.4769C145.686 63.5956 145.684 68.7143 145.681 73.833C145.679 78.223 145.679 82.6129 145.682 87.0029C145.685 92.1035 145.686 97.2042 145.684 102.305C145.684 102.849 145.684 103.393 145.684 103.937C145.684 104.205 145.684 104.473 145.683 104.748C145.683 106.633 145.684 108.517 145.685 110.402C145.687 112.699 145.686 114.996 145.683 117.294C145.682 118.465 145.681 119.637 145.683 120.809C145.685 121.882 145.684 122.955 145.681 124.029C145.68 124.599 145.682 125.169 145.684 125.74C145.668 129.211 145.186 131.821 142.763 134.422C141.632 135.472 140.673 135.843 139.16 136.231C139.174 136.576 139.187 136.922 139.201 137.279C139.212 137.735 139.223 138.191 139.233 138.648C139.243 138.875 139.253 139.103 139.263 139.338C139.292 141.031 139.292 141.031 138.624 141.941C137.808 142.508 137.22 142.635 136.23 142.676C135.495 142.451 135.177 142.258 134.736 141.631C134.354 140.597 134.411 139.586 134.436 138.501C134.439 138.283 134.441 138.064 134.444 137.84C134.451 137.303 134.461 136.767 134.472 136.231C134.201 136.144 133.929 136.058 133.649 135.968C131.757 135.312 130.277 134.101 129.199 132.422C128.179 130.29 128.195 128.338 128.205 126.001C128.203 125.587 128.201 125.172 128.199 124.758C128.194 123.623 128.195 122.488 128.197 121.354C128.197 120.128 128.193 118.903 128.19 117.677C128.183 115.278 128.182 112.879 128.183 110.48C128.183 108.529 128.182 106.579 128.18 104.629C128.179 104.066 128.178 103.504 128.178 102.942C128.178 102.662 128.177 102.383 128.177 102.094C128.171 96.8044 128.172 91.5146 128.174 86.2247C128.175 81.3874 128.169 76.5501 128.16 71.7127C128.15 66.7434 128.145 61.7742 128.147 56.8049C128.147 54.0159 128.146 51.227 128.138 48.438C128.132 46.0638 128.131 43.6896 128.137 41.3153C128.139 40.1045 128.14 38.8937 128.134 37.6829C128.128 36.5732 128.13 35.4638 128.136 34.3541C128.138 33.7652 128.133 33.1762 128.127 32.5872C128.155 29.7189 128.823 27.6801 130.737 25.525C134.319 22.2159 139.287 22.5983 142.914 25.5799ZM134.472 28.711C133.515 29.6697 133.068 30.1283 132.831 31.4699C132.835 31.8355 132.838 32.2011 132.841 32.5778C132.841 32.7809 132.841 32.9841 132.841 33.1934C132.842 33.8594 132.853 34.5247 132.865 35.1906C132.867 35.6545 132.869 36.1183 132.871 36.5822C132.876 37.7989 132.891 39.0153 132.907 40.232C132.922 41.4751 132.929 42.7182 132.936 43.9614C132.952 46.3976 132.978 48.8335 133.008 51.2696C135.618 51.2696 138.228 51.2696 140.918 51.2696C140.938 48.7457 140.954 46.2219 140.963 43.698C140.968 42.5259 140.974 41.3538 140.984 40.1818C140.994 39.0496 140.999 37.9175 141.001 36.7853C141.003 36.3544 141.006 35.9236 141.011 35.4927C141.017 34.8869 141.018 34.2812 141.018 33.6754C141.02 33.3312 141.021 32.9871 141.023 32.6325C140.871 31.2022 140.399 30.084 139.544 28.9124C137.825 27.6575 136.314 27.5993 134.472 28.711ZM133.008 55.9571C132.981 65.2578 132.96 74.5585 132.948 83.8592C132.946 84.9571 132.945 86.055 132.943 87.153C132.943 87.3715 132.943 87.5901 132.942 87.8153C132.937 91.3549 132.928 94.8945 132.917 98.4342C132.906 102.066 132.9 105.698 132.897 109.329C132.896 111.57 132.891 113.812 132.881 116.053C132.874 117.771 132.874 119.489 132.875 121.207C132.875 121.912 132.872 122.618 132.868 123.323C132.862 124.284 132.864 125.246 132.867 126.207C132.863 126.487 132.86 126.767 132.856 127.055C132.871 128.7 133.072 129.656 134.18 130.957C135.194 131.803 136.08 131.993 137.404 131.94C138.634 131.721 139.448 130.983 140.277 130.096C141.147 128.586 140.958 126.804 140.953 125.115C140.953 124.672 140.953 124.672 140.954 124.22C140.954 123.228 140.953 122.237 140.951 121.245C140.951 120.535 140.951 119.825 140.951 119.114C140.951 117.585 140.95 116.055 140.949 114.525C140.946 112.314 140.946 110.102 140.945 107.89C140.945 104.302 140.943 100.714 140.94 97.1251C140.937 93.6395 140.935 90.154 140.934 86.6684C140.934 86.4535 140.934 86.2386 140.934 86.0172C140.933 84.9392 140.933 83.8611 140.933 82.7831C140.929 73.8411 140.924 64.8991 140.918 55.9571C138.307 55.9571 135.697 55.9571 133.008 55.9571Z" fill="black"/>
<path d="M6.84824 29.2053C7.19606 29.1889 7.19606 29.1889 7.55091 29.1721C8.20322 29.2969 8.20322 29.2969 8.67655 29.7757C9.20043 30.6709 9.19215 31.2722 9.1924 32.3076C9.19463 32.688 9.19685 33.0683 9.19915 33.4602C9.19719 33.8832 9.19514 34.3063 9.19303 34.7294C9.19399 35.1781 9.19535 35.6267 9.19705 36.0754C9.20064 37.3103 9.19876 38.5451 9.19602 39.78C9.19404 41.111 9.19712 42.4421 9.19962 43.7732C9.20331 46.0806 9.20388 48.3881 9.20245 50.6955C9.20046 54.0346 9.20412 57.3736 9.20934 60.7126C9.21773 66.1336 9.22286 71.5545 9.22532 76.9754C9.22547 77.3 9.22562 77.6246 9.22577 77.959C9.22681 80.2625 9.22772 82.5659 9.22861 84.8694C9.22963 87.4981 9.2307 90.1267 9.2319 92.7554C9.23205 93.0792 9.2322 93.4029 9.23235 93.7364C9.23491 99.1351 9.2409 104.534 9.24933 109.932C9.25436 113.263 9.25629 116.593 9.25422 119.923C9.253 122.206 9.25486 124.488 9.25914 126.771C9.2615 128.088 9.26242 129.405 9.25949 130.722C9.25683 131.928 9.25821 133.134 9.26277 134.341C9.26371 134.776 9.26316 135.212 9.26097 135.648C9.24652 138.738 9.35322 141.385 11.5415 143.719C13.1617 145.17 15.0878 145.349 17.1784 145.35C17.6637 145.352 17.6637 145.352 18.1588 145.353C18.6873 145.352 18.6873 145.352 19.2266 145.352C19.6033 145.352 19.98 145.353 20.3681 145.354C21.4118 145.355 22.4555 145.355 23.4992 145.355C24.6255 145.355 25.7519 145.357 26.8783 145.358C29.0842 145.36 31.2902 145.361 33.4962 145.361C35.2893 145.362 37.0825 145.362 38.8756 145.363C43.9602 145.366 49.0448 145.367 54.1293 145.367C54.5404 145.367 54.5404 145.367 54.9598 145.367C55.2342 145.367 55.5085 145.367 55.7912 145.367C60.2388 145.367 64.6863 145.369 69.1338 145.374C73.7011 145.378 78.2685 145.38 82.8358 145.38C85.3998 145.379 87.9637 145.38 90.5277 145.383C92.7105 145.386 94.8933 145.387 97.076 145.385C98.1895 145.384 99.3029 145.384 100.416 145.386C101.624 145.389 102.831 145.387 104.039 145.385C104.39 145.386 104.741 145.388 105.103 145.389C107.686 145.379 109.822 145.229 111.914 143.555C114.177 141.24 114.048 138.94 114.045 135.87C114.051 135.108 114.057 134.345 114.063 133.583C114.071 132.385 114.075 131.187 114.077 129.989C114.078 128.831 114.089 127.672 114.1 126.513C114.099 126.154 114.097 125.795 114.096 125.425C114.099 125.091 114.103 124.758 114.107 124.414C114.108 124.121 114.109 123.828 114.11 123.526C114.3 122.537 114.638 122.188 115.43 121.582C116.529 121.445 117.199 121.426 118.176 121.967C119.029 122.852 118.984 123.749 118.993 124.917C118.995 125.24 118.998 125.563 119.001 125.895C119.003 126.42 119.003 126.42 119.005 126.955C119.007 127.316 119.008 127.677 119.01 128.049C119.013 128.815 119.015 129.582 119.016 130.348C119.018 131.511 119.028 132.674 119.037 133.837C119.039 134.583 119.04 135.328 119.042 136.074C119.045 136.418 119.049 136.762 119.053 137.117C119.043 140.732 118.391 143.962 116.016 146.777C112.976 149.551 110.199 150.133 106.18 150.114C105.78 150.115 105.38 150.116 104.98 150.118C103.886 150.123 102.793 150.121 101.699 150.119C100.518 150.118 99.3362 150.121 98.1547 150.124C95.8422 150.129 93.5298 150.13 91.2173 150.128C89.3372 150.127 87.457 150.127 85.5769 150.129C85.3091 150.129 85.0412 150.129 84.7653 150.13C84.2211 150.13 83.6769 150.131 83.1327 150.131C78.0323 150.135 72.9319 150.133 67.8315 150.13C63.1687 150.127 58.5059 150.131 53.843 150.138C49.0515 150.145 44.26 150.148 39.4685 150.146C36.7799 150.145 34.0914 150.146 31.4028 150.151C29.114 150.155 26.8252 150.155 24.5364 150.15C23.3695 150.148 22.2026 150.147 21.0357 150.152C19.9658 150.156 18.896 150.154 17.8261 150.149C17.2592 150.147 16.6923 150.151 16.1255 150.155C12.9101 150.128 9.95925 149.388 7.61729 147.07C4.48772 143.317 4.35028 139.792 4.35348 135.066C4.35273 134.618 4.35184 134.17 4.35085 133.722C4.34849 132.494 4.34796 131.266 4.34774 130.038C4.3472 128.713 4.34499 127.387 4.34301 126.062C4.33904 123.166 4.33727 120.271 4.33598 117.375C4.33517 115.567 4.33393 113.759 4.33261 111.952C4.32904 106.947 4.32602 101.941 4.32503 96.9363C4.32497 96.6162 4.3249 96.2962 4.32483 95.9664C4.32477 95.6456 4.32471 95.3248 4.32464 94.9942C4.32451 94.3441 4.32438 93.6941 4.32425 93.044C4.32418 92.7215 4.32412 92.399 4.32405 92.0668C4.32289 86.8353 4.31778 81.6039 4.31096 76.3724C4.30402 71.0016 4.30036 65.6308 4.30002 60.2599C4.29975 57.2442 4.29806 54.2286 4.29275 51.2129C4.28824 48.6466 4.28673 46.0804 4.28916 43.5142C4.2903 42.2045 4.29001 40.8948 4.28592 39.5851C4.2822 38.3869 4.28252 37.1887 4.28609 35.9904C4.28667 35.5563 4.28575 35.1222 4.28321 34.6882C4.27997 34.0992 4.28266 33.5102 4.28566 32.9213C4.28549 32.5938 4.28531 32.2663 4.28513 31.929C4.50243 30.1939 5.13717 29.2579 6.84824 29.2053Z" fill="black"/>
<path d="M17.1603 -0.113609C17.5603 -0.114833 17.9602 -0.116439 18.3602 -0.11839C19.4537 -0.122611 20.5471 -0.121386 21.6406 -0.11922C22.8221 -0.117831 24.0036 -0.121501 25.185 -0.124499C27.4975 -0.12953 29.81 -0.129781 32.1225 -0.128245C34.0026 -0.12706 35.8827 -0.127485 37.7629 -0.12905C38.0307 -0.129269 38.2986 -0.129489 38.5745 -0.129715C39.1187 -0.130163 39.6629 -0.130614 40.207 -0.131067C45.3074 -0.135086 50.4078 -0.133495 55.5082 -0.130133C60.1711 -0.127224 64.8339 -0.131014 69.4967 -0.138024C74.2883 -0.145173 79.0798 -0.147984 83.8713 -0.146036C86.5599 -0.145014 89.2484 -0.145663 91.937 -0.150797C94.2258 -0.155114 96.5145 -0.155292 98.8033 -0.150191C99.9703 -0.1477 101.137 -0.147062 102.304 -0.151553C103.374 -0.15562 104.444 -0.154202 105.514 -0.148553C106.081 -0.146938 106.647 -0.151039 107.214 -0.155396C110.639 -0.126653 113.566 0.736658 116.015 3.22263C118.721 6.56018 119.078 10.1615 119.055 14.3353C119.056 14.7677 119.057 15.2001 119.058 15.6325C119.061 16.8115 119.059 17.9904 119.056 19.1693C119.053 20.4442 119.056 21.7191 119.057 22.994C119.06 25.4872 119.058 27.9804 119.055 30.4736C119.051 33.3773 119.051 36.2809 119.052 39.1845C119.053 44.3638 119.049 49.543 119.044 54.7222C119.038 59.7488 119.036 64.7754 119.038 69.8021C119.039 75.2784 119.039 80.7548 119.036 86.2312C119.036 86.8147 119.035 87.3982 119.035 87.9817C119.035 88.4123 119.035 88.4123 119.034 88.8517C119.033 90.8764 119.033 92.9012 119.034 94.926C119.035 97.3911 119.033 99.8562 119.029 102.321C119.027 103.579 119.025 104.837 119.027 106.095C119.028 107.246 119.027 108.397 119.023 109.547C119.022 109.964 119.022 110.382 119.023 110.799C119.025 111.364 119.022 111.929 119.02 112.495C119.019 112.809 119.019 113.124 119.019 113.448C118.944 114.266 118.799 114.742 118.359 115.43C117.569 116.044 117.16 116.014 116.144 115.961C114.839 115.652 114.839 115.652 114.258 114.844C114.148 114.067 114.148 114.067 114.147 113.11C114.145 112.745 114.143 112.381 114.141 112.005C114.143 111.598 114.145 111.192 114.147 110.785C114.146 110.355 114.144 109.925 114.143 109.494C114.139 108.309 114.141 107.123 114.144 105.938C114.146 104.661 114.143 103.383 114.14 102.106C114.136 99.8912 114.136 97.6765 114.137 95.4618C114.139 92.2568 114.136 89.0518 114.13 85.8468C114.122 80.6434 114.117 75.44 114.114 70.2366C114.114 69.9251 114.114 69.6135 114.114 69.2924C114.113 67.0812 114.112 64.8699 114.111 62.6587C114.11 60.1358 114.109 57.613 114.108 55.0901C114.108 54.6241 114.108 54.6241 114.107 54.1486C114.105 48.9672 114.099 43.7858 114.09 38.6043C114.085 35.4079 114.083 32.2115 114.086 29.015C114.087 26.8238 114.085 24.6327 114.081 22.4415C114.078 21.1773 114.077 19.9132 114.08 18.649C114.083 17.4909 114.082 16.3329 114.077 15.1749C114.076 14.7567 114.077 14.3385 114.079 13.9203C114.125 10.1927 114.125 10.1927 112.528 6.93166C112.332 6.77719 112.135 6.62273 111.932 6.46359C111.736 6.30384 111.54 6.1441 111.338 5.97951C109.708 4.84956 108.127 4.65124 106.161 4.64978C105.838 4.64884 105.514 4.64789 105.181 4.64692C104.652 4.6476 104.652 4.6476 104.113 4.6483C103.737 4.64763 103.36 4.64697 102.972 4.64628C101.928 4.64449 100.884 4.64453 99.8406 4.64488C98.7142 4.64494 97.5879 4.64332 96.4615 4.64193C94.2555 4.6395 92.0496 4.63869 89.8436 4.63853C88.0504 4.63839 86.2573 4.63779 84.4642 4.63686C79.3796 4.63428 74.295 4.63293 69.2104 4.63315C68.9364 4.63316 68.6624 4.63317 68.38 4.63318C68.1056 4.63319 67.8312 4.63321 67.5485 4.63322C63.101 4.63334 58.6535 4.63053 54.206 4.6264C49.6387 4.62219 45.0713 4.62017 40.504 4.62042C37.94 4.62052 35.376 4.61972 32.8121 4.61656C30.6293 4.6139 28.4465 4.61326 26.2637 4.61525C25.1503 4.6162 24.0369 4.61622 22.9235 4.61368C21.7159 4.61095 20.5083 4.61277 19.3007 4.61504C18.9496 4.61353 18.5986 4.61202 18.2369 4.61047C15.2825 4.62272 12.9722 4.89874 10.7847 7.08615C9.52506 9.04085 9.24888 11.0427 9.26612 13.3266C9.26103 13.8467 9.25588 14.3669 9.25067 14.887C9.24771 15.6964 9.24667 16.5058 9.24716 17.3152C9.24612 18.1037 9.23813 18.8919 9.2295 19.6804C9.23189 19.9224 9.23429 20.1644 9.23676 20.4137C9.21496 22.0894 9.21496 22.0894 8.52397 23.004C7.48682 23.7362 6.81317 23.576 5.56624 23.4375C4.78275 22.9067 4.69929 22.5944 4.39437 21.6797C4.36236 20.8745 4.34631 20.0771 4.34516 19.2718C4.34418 19.0336 4.34321 18.7954 4.3422 18.5499C4.34072 18.0446 4.34003 17.5393 4.34008 17.0339C4.33945 16.2707 4.33414 15.5077 4.32856 14.7445C4.31382 10.538 4.66031 7.23701 6.93953 3.60715C9.98224 0.56444 12.9742 -0.133669 17.1603 -0.113609Z" fill="black"/>
<path d="M25.209 78.0739C25.5429 78.072 25.8769 78.0702 26.221 78.0683C27.3442 78.0636 28.4673 78.0674 29.5906 78.071C30.3942 78.0701 31.1977 78.0674 32.0013 78.0648C33.9598 78.0596 35.9183 78.0607 37.8769 78.0641C39.4684 78.0668 41.0598 78.0671 42.6513 78.0659C42.8777 78.0657 43.104 78.0655 43.3373 78.0653C43.7971 78.0649 44.2569 78.0646 44.7167 78.0642C49.0302 78.0608 53.3436 78.0647 57.6571 78.071C61.3596 78.0762 65.0622 78.0753 68.7647 78.0699C73.0626 78.0636 77.3604 78.0612 81.6582 78.0648C82.1164 78.0651 82.5745 78.0655 83.0327 78.0659C83.3708 78.0661 83.3708 78.0661 83.7158 78.0664C85.3057 78.0674 86.8955 78.0657 88.4854 78.063C90.4226 78.0597 92.3596 78.0606 94.2967 78.0668C95.2854 78.0699 96.274 78.0705 97.2627 78.0672C98.3335 78.064 99.4041 78.068 100.475 78.0739C100.946 78.0699 100.946 78.0699 101.426 78.0659C103.514 78.0882 103.514 78.0882 104.491 78.7538C105.066 79.6946 105.018 80.3653 104.883 81.4453C104.367 82.3785 104.151 82.5683 103.125 82.9102C102.67 82.9376 102.214 82.9485 101.758 82.9495C101.335 82.9515 101.335 82.9515 100.902 82.9535C100.591 82.9534 100.28 82.9534 99.9596 82.9533C99.6297 82.9544 99.2998 82.9554 98.9599 82.9566C97.8486 82.9598 96.7373 82.9609 95.626 82.962C94.8316 82.9637 94.0372 82.9658 93.2429 82.9679C90.8551 82.9737 88.4674 82.9766 86.0797 82.9792C84.9556 82.9805 83.8316 82.9821 82.7076 82.9836C78.9719 82.9886 75.2363 82.9928 71.5006 82.995C70.5313 82.9955 69.5619 82.9961 68.5925 82.9967C68.2311 82.9969 68.2311 82.9969 67.8624 82.9971C63.957 82.9995 60.0516 83.0069 56.1462 83.0165C52.138 83.0261 48.1299 83.0314 44.1217 83.0324C41.8707 83.033 39.6197 83.0356 37.3687 83.043C35.4521 83.0494 33.5357 83.0518 31.6192 83.0489C30.6411 83.0476 29.6632 83.0488 28.6851 83.0538C27.6253 83.059 26.5657 83.0569 25.5058 83.0531C25.196 83.0563 24.8863 83.0595 24.5671 83.0628C23.2531 83.0512 22.485 83.0427 21.3424 82.3519C20.7579 81.6895 20.6073 81.4367 20.6362 80.5664C20.6358 80.3731 20.6354 80.1797 20.635 79.9805C21.2683 77.7444 23.3006 78.058 25.209 78.0739Z" fill="black"/>
<path d="M25.5018 25.6344C25.9974 25.632 25.9974 25.632 26.5031 25.6295C27.6126 25.6255 28.722 25.6299 29.8315 25.6342C30.626 25.6338 31.4204 25.6316 32.2149 25.6294C34.1502 25.6254 36.0854 25.6276 38.0207 25.632C40.2742 25.6369 42.5276 25.636 44.781 25.6349C48.8016 25.6332 52.8221 25.6373 56.8427 25.6445C60.7446 25.6516 64.6464 25.6536 68.5483 25.6506C72.7965 25.6472 77.0448 25.6466 81.2931 25.6509C81.746 25.6513 82.199 25.6518 82.6519 25.6522C82.8748 25.6524 83.0977 25.6527 83.3273 25.6529C84.8983 25.6543 86.4693 25.6537 88.0402 25.6525C89.9546 25.651 91.8689 25.6528 93.7832 25.6586C94.7601 25.6615 95.7369 25.6625 96.7137 25.6607C97.7723 25.6589 98.8306 25.6626 99.8891 25.6677C100.198 25.6659 100.508 25.6641 100.827 25.6623C103.45 25.6852 103.45 25.6852 104.59 26.6601C105.043 27.5659 104.969 28.2991 104.883 29.2969C104.494 29.9399 104.494 29.9399 103.711 30.4687C102.634 30.6472 101.565 30.6266 100.475 30.6175C100.141 30.6194 99.807 30.6212 99.463 30.6231C98.3397 30.6278 97.2166 30.624 96.0933 30.6204C95.2898 30.6213 94.4862 30.624 93.6827 30.6266C91.7241 30.6318 89.7656 30.6307 87.8071 30.6273C86.2156 30.6246 84.6241 30.6243 83.0326 30.6255C82.6931 30.6258 82.6931 30.6258 82.3467 30.6261C81.8869 30.6265 81.4271 30.6268 80.9673 30.6272C76.6538 30.6306 72.3404 30.6267 68.0269 30.6204C64.3243 30.6152 60.6218 30.6161 56.9192 30.6215C52.6214 30.6278 48.3236 30.6303 44.0257 30.6267C43.5676 30.6263 43.1094 30.6259 42.6513 30.6255C42.3132 30.6253 42.3132 30.6253 41.9682 30.625C40.3783 30.624 38.7884 30.6257 37.1985 30.6285C35.2614 30.6317 33.3244 30.6309 31.3873 30.6246C30.3985 30.6215 29.41 30.621 28.4213 30.6242C27.3504 30.6274 26.2798 30.6234 25.209 30.6175C24.7382 30.6215 24.7382 30.6215 24.258 30.6255C22.1599 30.6031 22.1599 30.6031 21.195 29.9101C20.7732 29.2536 20.6346 28.9002 20.6362 28.125C20.6297 27.9316 20.6233 27.7383 20.6167 27.539C21.3083 25.3398 23.638 25.6174 25.5018 25.6344Z" fill="black"/>
<path d="M23.9209 54.4536C24.2024 54.4525 24.4838 54.4514 24.7739 54.4502C25.2388 54.4506 25.2388 54.4506 25.713 54.451C26.0417 54.4501 26.3705 54.4492 26.7091 54.4484C27.8164 54.4458 28.9236 54.4454 30.0309 54.4449C30.8224 54.4437 31.6139 54.4421 32.4054 54.4405C34.5596 54.4365 36.7139 54.4348 38.8682 54.4335C40.2129 54.4327 41.5576 54.4314 42.9023 54.4301C46.6244 54.4265 50.3465 54.4235 54.0685 54.4225C54.3068 54.4225 54.545 54.4224 54.7905 54.4223C55.1487 54.4222 55.1487 54.4222 55.5142 54.4221C55.9982 54.422 56.4821 54.4219 56.9661 54.4218C57.2062 54.4217 57.4462 54.4216 57.6936 54.4216C61.5847 54.4204 65.4759 54.4153 69.3671 54.4085C73.3607 54.4015 77.3543 54.3979 81.3479 54.3975C83.5907 54.3973 85.8336 54.3956 88.0764 54.3903C89.9859 54.3857 91.8954 54.3842 93.805 54.3867C94.7795 54.3878 95.7538 54.387 96.7283 54.3834C97.7843 54.3797 98.8402 54.3814 99.8961 54.3845C100.205 54.3821 100.513 54.3798 100.831 54.3773C103.448 54.3952 103.448 54.3952 104.59 55.371C105.043 56.2768 104.969 57.01 104.883 58.0078C104.493 58.6508 104.493 58.6508 103.711 59.1796C102.634 59.3581 101.564 59.3375 100.475 59.3284C100.141 59.3303 99.8069 59.3321 99.4628 59.334C98.3395 59.3387 97.2164 59.335 96.0932 59.3313C95.2896 59.3322 94.486 59.3349 93.6825 59.3375C91.7239 59.3427 89.7654 59.3416 87.8069 59.3382C86.2154 59.3355 84.6239 59.3352 83.0324 59.3365C82.6929 59.3367 82.6929 59.3367 82.3465 59.337C81.8867 59.3374 81.4269 59.3377 80.9671 59.3381C76.6536 59.3415 72.3402 59.3376 68.0267 59.3313C64.3241 59.3261 60.6216 59.327 56.919 59.3324C52.6212 59.3387 48.3234 59.3412 44.0255 59.3376C43.5674 59.3372 43.1093 59.3368 42.6511 59.3365C42.313 59.3362 42.313 59.3362 41.968 59.3359C40.3781 59.3349 38.7882 59.3366 37.1983 59.3394C35.2612 59.3426 33.3242 59.3418 31.3871 59.3355C30.3984 59.3324 29.4098 59.3319 28.4211 59.3351C27.3502 59.3383 26.2796 59.3343 25.2088 59.3284C24.738 59.3324 24.738 59.3324 24.2578 59.3364C22.1602 59.314 22.1602 59.314 21.1935 58.6217C20.5211 57.5706 20.664 56.8948 20.8008 55.664C21.5718 54.5259 22.6272 54.4556 23.9209 54.4536Z" fill="black"/>
<path d="M25.2087 66.355C25.5426 66.3532 25.8766 66.3514 26.2207 66.3495C27.3439 66.3448 28.467 66.3485 29.5903 66.3522C30.3939 66.3513 31.1974 66.3486 32.001 66.346C33.9595 66.3408 35.918 66.3419 37.8765 66.3453C39.468 66.348 41.0595 66.3483 42.651 66.347C42.8774 66.3469 43.1037 66.3467 43.3369 66.3465C43.7967 66.3461 44.2566 66.3457 44.7164 66.3454C49.0298 66.342 53.3433 66.3459 57.6567 66.3522C61.3593 66.3574 65.0618 66.3565 68.7644 66.3511C73.0623 66.3448 77.3601 66.3423 81.6579 66.3459C82.1161 66.3463 82.5742 66.3467 83.0323 66.347C83.3705 66.3473 83.3705 66.3473 83.7154 66.3476C85.3053 66.3486 86.8952 66.3469 88.4851 66.3441C90.4222 66.3408 92.3593 66.3417 94.2964 66.348C95.2851 66.3511 96.2736 66.3516 97.2624 66.3484C98.3332 66.3452 99.4038 66.3492 100.475 66.355C100.945 66.3511 100.945 66.3511 101.426 66.3471C103.514 66.3694 103.514 66.3694 104.49 67.035C105.072 67.9842 105.038 68.6371 104.883 69.7265C104.233 70.5782 103.852 70.8515 102.832 71.1914C102.381 71.2183 101.93 71.2287 101.479 71.229C101.199 71.23 100.92 71.2309 100.632 71.2319C100.324 71.2314 100.017 71.231 99.6997 71.2305C99.3734 71.2312 99.0471 71.2319 98.7108 71.2325C97.6117 71.2344 96.5126 71.2342 95.4134 71.2339C94.6277 71.2348 93.842 71.2358 93.0562 71.2369C91.1401 71.2393 89.2239 71.2401 87.3077 71.2403C85.7505 71.2404 84.1932 71.241 82.6359 71.242C78.2226 71.2445 73.8093 71.2459 69.396 71.2457C69.039 71.2457 69.039 71.2457 68.6747 71.2456C68.3173 71.2456 68.3173 71.2456 67.9526 71.2456C64.0898 71.2455 60.227 71.2483 56.3643 71.2524C52.3998 71.2566 48.4354 71.2587 44.4709 71.2584C42.2444 71.2583 40.018 71.2591 37.7915 71.2623C35.8959 71.2649 34.0003 71.2656 32.1047 71.2636C31.1374 71.2626 30.1701 71.2629 29.2027 71.2651C28.1545 71.2674 27.1063 71.2661 26.058 71.2638C25.7517 71.2653 25.4454 71.2668 25.1298 71.2684C24.8488 71.267 24.5678 71.2657 24.2783 71.2643C24.0364 71.2643 23.7945 71.2644 23.5452 71.2645C22.7273 71.1783 22.1204 70.976 21.3866 70.6054C20.6599 69.5154 20.6649 68.9654 20.8007 67.6757C21.8036 66.0273 23.491 66.3407 25.2087 66.355Z" fill="black"/>
<path d="M31.8239 110.065C32.1853 110.056 32.5467 110.048 32.9191 110.039C35.9879 110.018 38.4725 110.58 40.7594 112.72C41.6597 113.8 42.263 115.013 42.8903 116.266C43.2818 117.035 43.6972 117.723 44.1835 118.433C45.5357 120.57 45.6526 122.954 45.1173 125.391C44.4596 127.094 43.5059 128.574 42.4806 130.078C42.3477 130.362 42.2147 130.646 42.0778 130.939C40.8851 133.186 39.1568 134.742 36.6954 135.512C35.1711 135.818 33.5741 135.711 32.0253 135.718C31.6614 135.724 31.2975 135.73 30.9226 135.736C27.564 135.75 25.4229 135.271 22.957 132.931C21.9804 131.798 21.3267 130.573 20.675 129.232C20.2307 128.301 20.2307 128.301 19.6084 127.436C18.29 125.399 18.232 123.359 18.4572 120.996C18.8944 119.29 19.6674 117.9 20.7391 116.517C21.1195 115.979 21.3742 115.444 21.6432 114.844C22.6936 112.676 24.4347 111.303 26.6603 110.449C28.3251 109.94 30.1002 110.078 31.8239 110.065ZM26.2403 116.519C26.1432 116.691 26.0462 116.864 25.9462 117.041C25.8306 117.243 25.715 117.445 25.596 117.653C25.4638 117.886 25.3316 118.119 25.1954 118.359C25.0149 118.644 24.8344 118.928 24.6484 119.221C24.4603 119.523 24.2723 119.825 24.0785 120.135C23.9014 120.417 23.7243 120.698 23.5418 120.988C23.0504 122.085 22.9931 122.732 23.1447 123.926C23.4763 124.763 23.9087 125.517 24.3715 126.288C24.485 126.487 24.5984 126.687 24.7154 126.893C26.1336 129.374 26.1336 129.374 28.4181 130.957C29.5195 131.087 30.624 131.065 31.7323 131.067C32.0312 131.074 32.3301 131.081 32.6381 131.089C34.5208 131.096 35.7143 130.971 37.2072 129.785C37.7119 129.147 38.0856 128.478 38.4523 127.753C38.6429 127.396 38.8337 127.039 39.0245 126.683C39.1982 126.353 39.3719 126.023 39.5509 125.684C39.7133 125.413 39.8757 125.143 40.043 124.864C40.4991 124.103 40.6814 123.645 40.7228 122.754C40.273 121.23 39.638 119.98 38.7647 118.658C38.5032 118.257 38.2554 117.846 38.0208 117.429C37.9034 117.222 37.7859 117.016 37.6649 116.803C37.5626 116.617 37.4602 116.431 37.3548 116.239C36.541 115.285 35.653 114.902 34.4109 114.757C33.5345 114.715 32.6645 114.709 31.7872 114.716C31.3392 114.707 31.3392 114.707 30.882 114.698C28.8965 114.699 27.5788 114.914 26.2403 116.519Z" fill="black"/>
<path d="M24.5362 42.6286C24.7627 42.6272 24.9892 42.6258 25.2226 42.6243C25.9807 42.621 26.7384 42.6261 27.4964 42.6312C28.0402 42.6305 28.5841 42.6294 29.1279 42.6278C30.6042 42.6249 32.0804 42.6294 33.5568 42.6354C35.1011 42.6405 36.6454 42.6395 38.1897 42.6393C40.7828 42.6398 43.3759 42.6449 45.969 42.6529C48.9684 42.6621 51.9677 42.6652 54.967 42.6648C57.8511 42.6644 60.7351 42.6674 63.6191 42.6723C64.8472 42.6743 66.0752 42.6754 67.3033 42.6757C68.7487 42.6763 70.1941 42.6799 71.6396 42.6858C72.1706 42.6875 72.7016 42.6882 73.2325 42.6879C73.9563 42.6876 74.68 42.6909 75.4037 42.6951C75.6148 42.6942 75.8258 42.6933 76.0432 42.6924C77.1033 42.7027 77.9262 42.7395 78.8088 43.3594C79.2603 44.1551 79.4027 44.6603 79.3581 45.575C79.0283 46.4936 78.7045 46.8611 77.9299 47.461C77.1375 47.5761 76.4643 47.6195 75.6725 47.6098C75.3295 47.6125 75.3295 47.6125 74.9795 47.6153C74.2125 47.62 73.4458 47.6163 72.6787 47.6126C72.1292 47.6142 71.5796 47.6163 71.03 47.6189C69.5368 47.6242 68.0436 47.6221 66.5503 47.6184C64.9888 47.6154 63.4273 47.6182 61.8657 47.62C59.2433 47.6222 56.6209 47.6194 53.9984 47.6138C50.9649 47.6074 47.9315 47.6095 44.898 47.6159C42.2953 47.6212 39.6925 47.622 37.0897 47.6189C35.5344 47.6171 33.9792 47.6169 32.4239 47.6207C30.9619 47.6241 29.4999 47.6218 28.0378 47.615C27.5007 47.6134 26.9636 47.6139 26.4264 47.6165C25.6942 47.6197 24.9624 47.6157 24.2302 47.6098C24.0167 47.6124 23.8032 47.615 23.5832 47.6177C22.577 47.6021 22.0605 47.5293 21.2562 46.9024C20.7653 46.2411 20.6346 45.9313 20.6362 45.1172C20.6297 44.9239 20.6233 44.7305 20.6167 44.5313C21.1848 42.7246 22.9074 42.6053 24.5362 42.6286Z" fill="black"/>
<path d="M24.2299 14.2067C24.5729 14.2039 24.5729 14.2039 24.9228 14.2011C25.6898 14.1964 26.4566 14.2002 27.2236 14.2038C27.7732 14.2022 28.3227 14.2002 28.8723 14.1976C30.3656 14.1923 31.8588 14.1943 33.3521 14.1981C34.9136 14.201 36.4751 14.1983 38.0366 14.1964C40.6591 14.1943 43.2815 14.1971 45.9039 14.2027C48.9374 14.2091 51.9708 14.207 55.0043 14.2006C57.6071 14.1952 60.2098 14.1945 62.8126 14.1975C64.3679 14.1994 65.9231 14.1996 67.4784 14.1957C68.9405 14.1924 70.4024 14.1947 71.8645 14.2015C72.4016 14.203 72.9388 14.2026 73.4759 14.2C74.2081 14.1968 74.9399 14.2008 75.6721 14.2067C75.8856 14.204 76.0992 14.2014 76.3191 14.1987C77.3183 14.2143 77.8401 14.2863 78.6405 14.9061C79.1846 15.6395 79.3499 16.0804 79.3944 16.9922C79.1841 17.8139 79.0414 18.2933 78.338 18.7874C77.3632 19.1425 76.4272 19.1257 75.4034 19.1213C75.1773 19.1226 74.9512 19.124 74.7183 19.1253C73.9601 19.1291 73.202 19.1286 72.4439 19.1281C71.9005 19.1298 71.3572 19.1318 70.8139 19.134C69.3376 19.1392 67.8613 19.1406 66.3849 19.141C65.153 19.1415 63.9211 19.1437 62.6892 19.1458C59.7833 19.1505 56.8774 19.152 53.9715 19.1515C50.9723 19.1512 47.9732 19.1574 44.974 19.1666C42.4001 19.1743 39.8262 19.1774 37.2523 19.1771C35.7145 19.1769 34.1768 19.1786 32.639 19.1848C31.1931 19.1904 29.7472 19.1905 28.3013 19.1862C27.7704 19.1856 27.2395 19.187 26.7087 19.1905C25.9843 19.1951 25.2602 19.1924 24.5358 19.1878C24.2203 19.1924 24.2203 19.1924 23.8983 19.197C22.499 19.1776 21.7795 18.8686 20.8006 17.8711C20.6164 17.2852 20.6164 17.2852 20.6358 16.6992C20.6354 16.5059 20.6351 16.3125 20.6347 16.1133C21.1523 14.2856 22.5757 14.1864 24.2299 14.2067Z" fill="black"/>
<path d="M70.0195 120.996C71.8456 122.159 72.6674 123.669 73.5168 125.61C73.6916 125.989 73.6916 125.989 73.8699 126.376C74.707 128.217 74.707 128.217 74.707 128.906C76.1391 128.784 76.6711 128.164 77.6367 127.148C78.6524 126.481 79.5329 126.484 80.7312 126.489C81.0639 126.488 81.3966 126.486 81.7394 126.485C82.6496 126.518 83.5014 126.67 84.3933 126.852C86.0546 127.16 87.6679 127.25 89.3543 127.282C89.9527 127.3 90.551 127.318 91.1493 127.337C92.0796 127.363 93.0098 127.387 93.9402 127.406C94.8472 127.425 95.7535 127.454 96.6602 127.484C97.0782 127.489 97.0782 127.489 97.5046 127.494C99.424 127.566 99.424 127.566 100.372 128.426C100.871 129.368 100.938 129.905 100.781 130.957C100.26 131.876 100.042 132.082 99.0234 132.422C95.9736 132.556 92.8991 132.405 89.8499 132.312C89.5079 132.303 89.166 132.294 88.8137 132.285C86.6051 132.209 84.4954 131.944 82.3242 131.543C80.9492 131.348 80.9492 131.348 79.7459 131.916C79.3899 132.229 79.0388 132.547 78.693 132.871C77.5081 133.954 76.1475 134.054 74.5972 134.013C72.9072 133.736 71.7084 132.799 70.6776 131.463C69.6493 129.829 68.9169 128.081 68.2617 126.27C67.4389 127.238 67.0612 128.204 66.6504 129.401C66.5243 129.763 66.3981 130.125 66.2682 130.498C65.9806 131.356 65.709 132.217 65.4419 133.081C65.0391 134.18 65.0391 134.18 64.1602 134.766C63.1108 134.861 62.3737 134.891 61.4136 134.436C60.7567 133.678 60.7372 133.124 60.6445 132.129C61.0121 129.68 61.881 127.418 62.97 125.208C63.0647 125.013 63.1595 124.819 63.2571 124.619C64.6117 121.996 66.9351 119.846 70.0195 120.996Z" fill="black"/>
<path d="M57.3391 111.177C57.5367 111.175 57.7343 111.173 57.9378 111.171C58.5996 111.166 59.261 111.169 59.9228 111.172C60.3973 111.17 60.8719 111.167 61.3464 111.164C62.6351 111.158 63.9237 111.158 65.2124 111.161C66.2878 111.163 67.3631 111.16 68.4385 111.158C70.975 111.153 73.5115 111.154 76.048 111.159C78.6661 111.164 81.2841 111.16 83.9022 111.15C86.1492 111.142 88.3961 111.14 90.6432 111.143C91.9856 111.144 93.3279 111.143 94.6703 111.137C95.9324 111.132 97.1942 111.134 98.4562 111.141C98.9197 111.142 99.3831 111.141 99.8465 111.138C100.479 111.133 101.11 111.137 101.743 111.144C102.096 111.144 102.45 111.144 102.815 111.145C103.711 111.328 103.711 111.328 104.409 112.017C104.995 112.978 105.09 113.444 104.883 114.551C104.132 115.492 103.692 115.961 102.496 116.199C102.147 116.199 101.798 116.199 101.439 116.2C101.146 116.203 101.146 116.203 100.847 116.206C100.195 116.211 99.5432 116.206 98.8911 116.201C98.4228 116.202 97.9545 116.204 97.4861 116.207C96.2156 116.212 94.9452 116.208 93.6746 116.203C92.3447 116.198 91.0148 116.201 89.6849 116.202C87.4516 116.203 85.2184 116.199 82.9851 116.19C80.4034 116.181 77.8219 116.181 75.2402 116.186C72.7563 116.191 70.2724 116.189 67.7885 116.184C66.7316 116.182 65.6747 116.182 64.6178 116.184C63.3731 116.187 62.1285 116.183 60.8839 116.175C60.4272 116.173 59.9705 116.173 59.5138 116.175C58.8901 116.178 58.2668 116.173 57.6431 116.166C57.1198 116.165 57.1198 116.165 56.5858 116.164C55.4794 115.986 54.9887 115.624 54.199 114.844C54.0148 114.258 54.0148 114.258 54.0343 113.672C54.0339 113.479 54.0335 113.285 54.0331 113.086C54.5171 111.377 55.7443 111.181 57.3391 111.177Z" fill="black"/>
<path d="M25.4209 89.7851C25.7388 89.7826 26.0567 89.78 26.3843 89.7774C27.4346 89.7708 28.4847 89.7728 29.5351 89.7754C30.2651 89.7739 30.9952 89.7721 31.7253 89.7699C33.4511 89.7665 35.1768 89.7693 36.9026 89.7741C38.2782 89.7774 39.6537 89.7738 41.0292 89.7665C42.9267 89.7565 44.8241 89.7537 46.7216 89.7568C47.4449 89.757 48.1682 89.755 48.8914 89.7507C49.9022 89.7456 50.9124 89.7498 51.9232 89.7565C52.2224 89.753 52.5217 89.7496 52.83 89.7461C54.2106 89.7646 54.8657 89.7818 55.9965 90.6304C56.5431 91.4062 56.5431 91.4062 56.7262 92.2851C56.47 93.5148 56.0855 93.8746 55.0783 94.6289C54.0169 94.846 52.9718 94.826 51.8916 94.8138C51.4098 94.8169 51.4098 94.8169 50.9182 94.8201C49.8569 94.8251 48.7959 94.8194 47.7346 94.8131C46.9973 94.8134 46.26 94.8141 45.5226 94.8153C43.9777 94.8161 42.4329 94.8119 40.888 94.8037C39.1028 94.7944 37.3177 94.7944 35.5325 94.7994C33.8135 94.8041 32.0946 94.8021 30.3756 94.7971C29.6447 94.7956 28.9138 94.7957 28.183 94.7975C27.1624 94.7991 26.1421 94.7932 25.1216 94.7852C24.8185 94.7871 24.5155 94.789 24.2033 94.7909C22.1589 94.7635 22.1589 94.7635 21.2005 94.0698C20.7723 93.413 20.6346 93.0636 20.6362 92.2851C20.6297 92.0918 20.6233 91.8984 20.6167 91.6992C21.299 89.5294 23.5757 89.7733 25.4209 89.7851Z" fill="black"/>
</g>
<defs>
<clipPath id="clip0_581_634">
<rect width="150" height="150" fill="white"/>
</clipPath>
</defs>
</svg>
