<svg width="25" height="25" viewBox="0 0 25 25" fill="none" xmlns="http://www.w3.org/2000/svg">
<path d="M13.728 5.27291L16.758 2.24291C17.3513 1.64947 18.1072 1.24531 18.9302 1.08156C19.7532 0.917807 20.6062 1.00181 21.3815 1.32296C22.1567 1.6441 22.8193 2.18795 23.2854 2.8857C23.7515 3.58346 24.0002 4.40379 24 5.24291V24.5009M6.303 8.45491L4.89 9.86891M4.537 12.3439L3.12 13.7579M2.413 10.2229L1 11.6369M6.657 14.4659L5.243 15.8799M8.778 16.5869L7.364 18.0009M10.546 12.6979L9.132 14.1109M8.425 10.5749L7.01 11.9909M11.253 2.79791L11.098 2.95291C10.059 3.99192 8.67484 4.61354 7.208 4.69991L6.48 4.74291L6.303 4.91991L14.082 12.6979L14.258 12.5209L14.301 11.7929C14.3874 10.3261 15.009 8.94191 16.048 7.90291L16.203 7.74791L11.253 2.79791Z" stroke="black"/>
</svg>
