<svg width="20" height="11" viewBox="0 0 20 11" fill="none" xmlns="http://www.w3.org/2000/svg">
<path d="M12.4565 6.0949H14.8829C14.9976 6.09728 15.1066 6.13646 15.1862 6.20397C15.2255 6.23669 15.2564 6.27544 15.2772 6.31799C15.298 6.36053 15.3083 6.40602 15.3075 6.45184C15.3144 6.47798 15.3144 6.50502 15.3075 6.53116C15.2913 6.60988 15.2393 6.68068 15.1619 6.72946C15.0868 6.78015 14.9925 6.80816 14.895 6.80878H12.4565C12.359 6.80816 12.2647 6.78015 12.1895 6.72946C12.1227 6.68971 12.0719 6.63443 12.044 6.57082L11.9833 6.34278H10.5274V6.66997C10.5836 7.05207 10.8078 7.40445 11.1583 7.66147C11.4911 7.91005 11.921 8.0541 12.3715 8.06799H12.8932V9H14.2642V8.06799H14.7009C15.1698 8.06111 15.6198 7.91574 15.9677 7.65875C16.3156 7.40176 16.5379 7.05053 16.5935 6.66997C16.5996 6.61058 16.5996 6.55089 16.5935 6.4915C16.594 6.26177 16.5318 6.03484 16.4116 5.8272C16.2876 5.61693 16.1096 5.43094 15.8899 5.28187C15.5491 5.0505 15.1197 4.92419 14.6767 4.92493H12.4565C12.3437 4.92418 12.2354 4.88879 12.1531 4.82578C12.1108 4.79238 12.0771 4.75232 12.0542 4.70802C12.0313 4.66372 12.0195 4.61609 12.0197 4.56799C12.014 4.5518 12.014 4.53461 12.0197 4.51841C12.0233 4.47563 12.0382 4.43398 12.0633 4.39633C12.0884 4.35868 12.1232 4.32592 12.1653 4.30028C12.1998 4.26307 12.2436 4.23231 12.2938 4.21008C12.344 4.18785 12.3995 4.17466 12.4565 4.17139H14.7858C14.889 4.17243 14.9882 4.20416 15.0649 4.26062C15.1408 4.31871 15.1918 4.39518 15.2105 4.47875V4.72663H16.6663V4.39943C16.6135 4.02082 16.3986 3.66965 16.0597 3.40793C15.7051 3.1425 15.2425 2.9941 14.7616 2.9915H14.3855V2H12.9903V2.9915H12.4565C11.9749 2.99121 11.511 3.14 11.1583 3.40793C10.815 3.66697 10.5993 4.01956 10.5517 4.39943V4.51841C10.5524 4.7251 10.6031 4.92963 10.701 5.12022C10.7989 5.31081 10.9419 5.48369 11.1219 5.6289C11.2947 5.77584 11.5019 5.89284 11.7311 5.9729C11.9604 6.05297 12.2071 6.09446 12.4565 6.0949ZM4.84954 6.38244H5.86865C6.38258 6.39274 6.8714 6.5662 7.2315 6.86604C7.5916 7.16588 7.79467 7.56854 7.79767 7.98867H9.3142C9.32253 7.25094 8.97872 6.53961 8.35576 6.00567C8.60934 5.85121 8.81576 5.6509 8.95888 5.42042C9.102 5.18993 9.17793 4.93551 9.18075 4.67705C9.18075 4.22739 8.96217 3.79614 8.57311 3.47818C8.18404 3.16022 7.65636 2.98159 7.10614 2.98159H3.33301V7.98867H4.84954V6.38244ZM7.10614 4.22096C7.24154 4.23723 7.36526 4.29276 7.45472 4.37741C7.54418 4.46205 7.5934 4.57017 7.5934 4.68201C7.5934 4.79386 7.54418 4.90197 7.45472 4.98662C7.36526 5.07126 7.24154 5.12679 7.10614 5.14306H4.84954V4.22096H7.10614Z" fill="black"/>
<path d="M18.4375 0.00110421H1.5625C1.16665 -0.0124821 0.780166 0.0997495 0.487419 0.313295C0.194672 0.52684 0.0194462 0.824353 0 1.14088L0 9.85912C0.0194462 10.1756 0.194672 10.4732 0.487419 10.6867C0.780166 10.9003 1.16665 11.0125 1.5625 10.9989H18.4375C18.8333 11.0125 19.2198 10.9003 19.5126 10.6867C19.8053 10.4732 19.9806 10.1756 20 9.85912V1.14088C19.9806 0.824353 19.8053 0.52684 19.5126 0.313295C19.2198 0.0997495 18.8333 -0.0124821 18.4375 0.00110421ZM18.4375 9.74915H1.5625V1.25085H18.4375V9.74915Z" fill="black"/>
</svg>
