<svg width="20" height="18" viewBox="0 0 20 18" fill="none" xmlns="http://www.w3.org/2000/svg">
<g clip-path="url(#clip0_413_123)">
<path d="M5 10.125C5 10.4234 4.8683 10.7095 4.63388 10.9205C4.39946 11.1315 4.08152 11.25 3.75 11.25C3.41848 11.25 3.10054 11.1315 2.86612 10.9205C2.6317 10.7095 2.5 10.4234 2.5 10.125C2.5 9.82663 2.6317 9.54048 2.86612 9.3295C3.10054 9.11853 3.41848 9 3.75 9C4.08152 9 4.39946 9.11853 4.63388 9.3295C4.8683 9.54048 5 9.82663 5 10.125ZM17.5 10.125C17.5 10.4234 17.3683 10.7095 17.1339 10.9205C16.8995 11.1315 16.5815 11.25 16.25 11.25C15.9185 11.25 15.6005 11.1315 15.3661 10.9205C15.1317 10.7095 15 10.4234 15 10.125C15 9.82663 15.1317 9.54048 15.3661 9.3295C15.6005 9.11853 15.9185 9 16.25 9C16.5815 9 16.8995 9.11853 17.1339 9.3295C17.3683 9.54048 17.5 9.82663 17.5 10.125ZM7.5 9C7.16848 9 6.85054 9.11853 6.61612 9.3295C6.3817 9.54048 6.25 9.82663 6.25 10.125C6.25 10.4234 6.3817 10.7095 6.61612 10.9205C6.85054 11.1315 7.16848 11.25 7.5 11.25H12.5C12.8315 11.25 13.1495 11.1315 13.3839 10.9205C13.6183 10.7095 13.75 10.4234 13.75 10.125C13.75 9.82663 13.6183 9.54048 13.3839 9.3295C13.1495 9.11853 12.8315 9 12.5 9H7.5ZM6.0775 4.8105L4.8825 6.96375C4.83364 7.05449 4.81221 7.15521 4.82037 7.25577C4.82853 7.35633 4.866 7.45318 4.92899 7.53656C4.99198 7.61995 5.07827 7.68692 5.17917 7.73073C5.28008 7.77454 5.39203 7.79365 5.50375 7.78612C6.64125 7.704 8.44125 7.59487 10 7.59487C11.5588 7.59487 13.36 7.704 14.4963 7.78612C14.608 7.79365 14.7199 7.77454 14.8208 7.73073C14.9217 7.68692 15.008 7.61995 15.071 7.53656C15.134 7.45318 15.1715 7.35633 15.1796 7.25577C15.1878 7.15521 15.1664 7.05449 15.1175 6.96375L13.9225 4.81162C13.8707 4.7181 13.791 4.6394 13.6923 4.58436C13.5936 4.52932 13.4799 4.50011 13.3638 4.5H6.63625C6.52028 4.5 6.40659 4.52905 6.30791 4.58388C6.20924 4.63872 6.12946 4.71718 6.0775 4.8105Z" fill="black"/>
<path d="M3.14973 3.95438C3.39086 3.44813 3.79185 3.01674 4.30294 2.71375C4.81403 2.41077 5.41272 2.24951 6.02473 2.25H13.9772C15.2272 2.25 16.3572 2.9205 16.8497 3.95438L17.8397 6.03338C17.9335 6.23025 18.1022 6.39225 18.3147 6.48788C18.9397 6.76913 19.3835 7.29225 19.521 7.90763L19.9397 9.7965C19.9814 9.978 20.0018 10.1618 20.001 10.3478V10.8124C20.001 11.7281 19.5135 12.5483 18.751 13.059V15.1875C18.751 15.3367 18.6851 15.4798 18.5679 15.5852C18.4507 15.6907 18.2917 15.75 18.126 15.75H15.626C15.4602 15.75 15.3012 15.6907 15.184 15.5852C15.0668 15.4798 15.001 15.3367 15.001 15.1875V13.6823C13.386 13.7363 11.5697 13.7813 10.001 13.7813C8.43223 13.7813 6.61598 13.7363 5.00098 13.6823V15.1875C5.00098 15.3367 4.93513 15.4798 4.81792 15.5852C4.70071 15.6907 4.54174 15.75 4.37598 15.75H1.87598C1.71022 15.75 1.55124 15.6907 1.43403 15.5852C1.31682 15.4798 1.25098 15.3367 1.25098 15.1875V13.059C0.488477 12.5483 0.000976562 11.7281 0.000976562 10.8124V10.3478C0.00118635 10.1626 0.0217025 9.97799 0.0622266 9.7965L0.480977 7.9065C0.618477 7.29225 1.06223 6.768 1.68598 6.48788C1.89993 6.39242 2.06887 6.23119 2.16223 6.03338L3.15223 3.95438H3.14973ZM6.02473 3.375C5.6576 3.37502 5.29855 3.47204 4.99213 3.65403C4.6857 3.83602 4.44538 4.09497 4.30098 4.39875L3.31098 6.47663C3.101 6.91881 2.72304 7.27932 2.24473 7.49363C2.10697 7.55508 1.9868 7.6443 1.89358 7.75434C1.80036 7.86438 1.73659 7.99229 1.70723 8.12813L1.28723 10.017C1.26266 10.1259 1.2501 10.2367 1.24973 10.3478V10.8124C1.24973 11.7079 2.02473 12.4414 3.00973 12.4819C4.95348 12.5606 7.74223 12.6563 9.99973 12.6563C12.2572 12.6563 15.046 12.5618 16.9897 12.4819C17.4655 12.461 17.914 12.2758 18.2418 11.9648C18.5696 11.6539 18.7516 11.2411 18.7497 10.8124V10.3478C18.7497 10.2368 18.7372 10.1265 18.7122 10.017L18.2935 8.127C18.2639 7.99137 18.2001 7.86369 18.1069 7.75385C18.0137 7.64401 17.8936 7.55497 17.756 7.49363C17.2777 7.27932 16.8997 6.91881 16.6897 6.47663L15.6997 4.39763C15.555 4.09388 15.3145 3.83505 15.0078 3.65325C14.7011 3.47146 14.3419 3.37471 13.9747 3.375H6.02473Z" fill="black"/>
</g>
<defs>
<clipPath id="clip0_413_123">
<rect width="20" height="18" fill="white"/>
</clipPath>
</defs>
</svg>
