<svg width="20" height="18" viewBox="0 0 20 18" fill="none" xmlns="http://www.w3.org/2000/svg">
<g clip-path="url(#clip0_413_131)">
<path fill-rule="evenodd" clip-rule="evenodd" d="M19.3333 18C19.5101 18 19.6797 17.9368 19.8047 17.8243C19.9298 17.7117 20 17.5591 20 17.4L20 0.599998C20 0.44087 19.9298 0.288256 19.8047 0.175735C19.6797 0.0632133 19.5101 0 19.3333 0H14C13.8232 0 13.6536 0.0632133 13.5286 0.175735C13.4036 0.288256 13.3333 0.44087 13.3333 0.599998L13.3333 12L0.666666 12C0.489855 12 0.320286 12.0632 0.195261 12.1757C0.0702362 12.2883 0 12.4409 0 12.6V17.4C0 17.5591 0.0702362 17.7117 0.195261 17.8243C0.320286 17.9368 0.489855 18 0.666666 18L19.3333 18ZM18.6667 13.11V16.8H14.5667V13.11H18.6667ZM18.6667 12.09V1.2H14.6667V2.49H16.3333C16.4836 2.49 16.6278 2.54373 16.734 2.63938C16.8403 2.73502 16.9 2.86474 16.9 3C16.9 3.13526 16.8403 3.26498 16.734 3.36062C16.6278 3.45627 16.4836 3.51 16.3333 3.51H14.6667L14.6667 4.89H17C17.1503 4.89 17.2944 4.94373 17.4007 5.03938C17.507 5.13502 17.5667 5.26474 17.5667 5.4C17.5667 5.53526 17.507 5.66498 17.4007 5.76062C17.2944 5.85627 17.1503 5.91 17 5.91H14.6667V7.29H16.3333C16.4836 7.29 16.6278 7.34373 16.734 7.43938C16.8403 7.53502 16.9 7.66474 16.9 7.8C16.9 7.93526 16.8403 8.06498 16.734 8.16062C16.6278 8.25627 16.4836 8.31 16.3333 8.31H14.6667V9.69H16.3333C16.4836 9.69 16.6278 9.74373 16.734 9.83938C16.8403 9.93502 16.9 10.0647 16.9 10.2C16.9 10.3353 16.8403 10.465 16.734 10.5606C16.6278 10.6563 16.4836 10.71 16.3333 10.71H14.6667V12.09H18.6667ZM13.4333 13.2H11.9V14.7C11.9 14.8353 11.8403 14.965 11.734 15.0606C11.6278 15.1563 11.4836 15.21 11.3333 15.21C11.183 15.21 11.0389 15.1563 10.9326 15.0606C10.8264 14.965 10.7667 14.8353 10.7667 14.7V13.2H9.23333V14.7C9.23333 14.8353 9.17363 14.965 9.06736 15.0606C8.96109 15.1563 8.81696 15.21 8.66667 15.21C8.51638 15.21 8.37224 15.1563 8.26597 15.0606C8.1597 14.965 8.1 14.8353 8.1 14.7V13.2H6.56667V15.3C6.56667 15.4353 6.50696 15.565 6.40069 15.6606C6.29442 15.7563 6.15029 15.81 6 15.81C5.84971 15.81 5.70558 15.7563 5.59931 15.6606C5.49304 15.565 5.43333 15.4353 5.43333 15.3V13.2H3.9V14.7C3.9 14.8353 3.8403 14.965 3.73403 15.0606C3.62776 15.1563 3.48362 15.21 3.33333 15.21C3.18304 15.21 3.03891 15.1563 2.93264 15.0606C2.82637 14.965 2.76667 14.8353 2.76667 14.7V13.2H1.33333V16.8H13.4333V13.2Z" fill="black"/>
</g>
<defs>
<clipPath id="clip0_413_131">
<rect width="20" height="18" fill="white" transform="matrix(-1 0 0 -1 20 18)"/>
</clipPath>
</defs>
</svg>
