<svg width="20" height="16" viewBox="0 0 20 16" fill="none" xmlns="http://www.w3.org/2000/svg">
<path d="M14.375 3.39188e-08C15.1684 -0.000111668 15.9321 0.275676 16.5113 0.771423C17.0905 1.26717 17.4417 1.94576 17.4937 2.66954L17.5 2.85696V5.77105C18.1698 5.89629 18.7762 6.21879 19.2264 6.68918C19.6766 7.15957 19.9457 7.7519 19.9925 8.37545L20 8.57086V15.4276C20.0003 15.5703 19.9421 15.7081 19.8369 15.8136C19.7316 15.9191 19.587 15.9848 19.4315 15.9977C19.2759 16.0106 19.1207 15.9698 18.9965 15.8833C18.8722 15.7968 18.7878 15.6709 18.76 15.5304L18.75 15.4276V12.5706H1.25V15.4276C1.25029 15.5703 1.19209 15.7081 1.08686 15.8136C0.981641 15.9191 0.837017 15.9848 0.681473 15.9977C0.525929 16.0106 0.370738 15.9698 0.24646 15.8833C0.122183 15.7968 0.0378253 15.6709 0.00999994 15.5304L6.51427e-08 15.4276V8.57086C-0.000146969 7.91225 0.248615 7.27381 0.704184 6.76361C1.15975 6.25341 1.79415 5.90277 2.5 5.77105V2.85696C2.49988 2.13161 2.80154 1.43338 3.3438 0.903889C3.88606 0.374399 4.62831 0.0532967 5.42 0.00571407L5.625 3.39188e-08H14.375ZM16.875 6.85669H3.125C2.65909 6.85668 2.20987 7.01526 1.86487 7.30152C1.51986 7.58778 1.30379 7.98121 1.25875 8.40516L1.25 8.57086V11.4278H18.75V8.57086C18.75 8.14492 18.5766 7.73423 18.2634 7.41882C17.9503 7.1034 17.52 6.90587 17.0563 6.86469L16.875 6.85669ZM14.375 1.14278H5.625C5.1589 1.1428 4.70951 1.30154 4.36448 1.58803C4.01944 1.87453 3.8035 2.26824 3.75875 2.69239L3.75 2.85696V5.71391H5V5.14252C5 4.99098 5.06585 4.84564 5.18306 4.73848C5.30027 4.63133 5.45924 4.57113 5.625 4.57113H8.75C8.91576 4.57113 9.07473 4.63133 9.19194 4.73848C9.30915 4.84564 9.375 4.99098 9.375 5.14252V5.71391H10.625V5.14252C10.625 4.99098 10.6908 4.84564 10.8081 4.73848C10.9253 4.63133 11.0842 4.57113 11.25 4.57113H14.375C14.5408 4.57113 14.6997 4.63133 14.8169 4.73848C14.9342 4.84564 15 4.99098 15 5.14252V5.71391H16.25V2.85696C16.25 2.43101 16.0766 2.02032 15.7634 1.70491C15.4503 1.3895 15.02 1.19196 14.5563 1.15078L14.375 1.14278Z" fill="black"/>
</svg>
